<svg height="512pt" viewBox="-46 0 512 512.00103" width="512pt" xmlns="http://www.w3.org/2000/svg">
  <path d="m404.929688 0h-325.730469c-8.5625 0-15.5 6.941406-15.5 15.5v48.199219h-48.199219c-8.558594 0-15.5 6.9375-15.5 15.5v417.300781c0 8.5625 6.941406 15.5 15.5 15.5h325.730469c8.5625 0 15.5-6.9375 15.5-15.5v-48.195312h48.199219c8.558593 0 15.5-6.941407 15.5-15.5v-417.304688c0-8.558594-6.941407-15.5-15.5-15.5zm-79.199219 481h-294.730469v-386.300781h204.085938v75.144531c0 8.5625 6.9375 15.5 15.5 15.5h75.144531zm-59.644531-326.65625v-37.726562l37.726562 37.726562zm123.34375 262.960938h-32.699219v-247.460938c0-.078125-.011719-.144531-.011719-.222656-.007812-.390625-.027344-.78125-.0625-1.171875-.003906-.0625-.007812-.128907-.015625-.191407-.359375-3.472656-1.875-6.800781-4.449219-9.375l-90.648437-90.644531c-2.574219-2.578125-5.90625-4.097656-9.382813-4.453125-.054687-.007812-.109375-.007812-.167968-.015625-.398438-.035156-.796876-.058593-1.199219-.0625-.070313 0-.136719-.011719-.207031-.011719h-155.886719v-32.695312h294.730469zm0 0"/>
</svg>