<svg xmlns="http://www.w3.org/2000/svg" viewBox="0 0 166 50">
  <path d="M161 50H5c-2.8 0-5-2.2-5-5V5c0-2.8 2.2-5 5-5h156c2.8 0 5 2.2 5 5v40c0 2.8-2.2 5-5 5z"></path>
  <g fill="#fff">
    <path d="M25.3 14.7c.9 0 2.1.2 3.4.6 1.3.4 2.2.6 2.6.6.6 0 1.5-.2 2.7-.7s2.4-.7 3.3-.7c1.5 0 2.9.4 4.1 1.2.7.5 1.3 1.1 2 1.9-1 .8-1.7 1.6-2.2 2.3-.8 1.2-1.2 2.5-1.2 3.9 0 1.6.4 3 1.3 4.3.9 1.3 1.9 2.1 3 2.4-.5 1.5-1.3 3.1-2.3 4.8-1.7 2.5-3.3 3.7-4.9 3.7-.6 0-1.5-.2-2.7-.6-1.1-.4-2.1-.6-2.9-.6-.8 0-1.7.2-2.7.6-1 .4-1.9.6-2.5.6-2 0-3.9-1.7-5.7-5-1.9-3.3-2.8-6.5-2.8-9.6 0-2.9.7-5.3 2.2-7.1s3.1-2.6 5.3-2.6z"></path>
    <path d="M37.1 7.4c0 .2.1.3.1.4v.4c0 .8-.2 1.7-.6 2.6-.4.9-1 1.8-1.8 2.6-.7.7-1.4 1.1-2.1 1.4-.4.1-1.1.2-2 .3 0-1.9.5-3.5 1.5-4.9s2.6-2.3 4.9-2.8z"></path>
  </g>
  <path d="M59.4 20.9l-5.7 16.7h2.6l1.7-5.1h5.5l1.7 5.1H68l-5.7-16.7h-2.9zm1.4 2.8c.2.7.4 1.5.7 2.4l1.5 4.4h-4.4l1.5-4.5c.2-.7.5-1.5.7-2.3zm14.5 1.6c-1.7 0-3.1.7-4 1.9l-.1-1.7h-2.3v.2c.1 1 .1 2.2.1 3.8v12.9h2.5v-6c.8.9 2 1.5 3.5 1.5s2.8-.6 3.8-1.6c1.1-1.2 1.7-2.9 1.7-4.9 0-1.8-.5-3.3-1.5-4.4-.9-1.1-2.2-1.7-3.7-1.7zm-.6 2.1c2.3 0 3.3 2.1 3.3 4.2 0 2.7-1.3 4.3-3.4 4.3-1.4 0-2.6-1-3-2.4-.1-.2-.1-.5-.1-.8v-2c0-.2 0-.4.1-.6v-.2c.4-1.5 1.7-2.5 3.1-2.5zm13.7-2.1c-1.7 0-3.1.7-4 1.9l-.1-1.7H82v.2c.1 1 .1 2.2.1 3.8v12.9h2.5v-6c.8.9 2 1.5 3.5 1.5s2.8-.6 3.8-1.6c1.1-1.2 1.7-2.9 1.7-4.9 0-1.8-.5-3.3-1.5-4.4s-2.3-1.7-3.7-1.7zm-.7 2.1c2.3 0 3.3 2.1 3.3 4.2 0 2.7-1.3 4.3-3.4 4.3-1.4 0-2.6-1-3-2.4-.1-.2-.1-.5-.1-.8v-2c0-.2 0-.4.1-.6v-.2c.5-1.5 1.7-2.5 3.1-2.5zm17 .6c-2.4-.9-3.1-1.6-3.1-3 0-1.1.9-2.2 2.9-2.2 1.6 0 2.7.6 3 .7l.2.1.7-2.1-.1-.1c-.4-.2-1.6-.8-3.7-.8-3.2 0-5.5 1.9-5.5 4.6 0 2.2 1.4 3.7 4.4 4.8 2.1.8 2.9 1.6 2.9 3 0 1.6-1.2 2.6-3.2 2.6-1.3 0-2.6-.4-3.7-1l-.2-.1-.7 2.2.1.1c1 .6 2.8 1.1 4.3 1.1 4.4 0 5.9-2.7 5.9-4.9.1-2.3-1.2-3.8-4.2-5zm8.8-5.4l-2.5.8v2.1h-1.8v2h1.8v6.2c0 1.5.3 2.6.9 3.2.6.6 1.4 1 2.5 1 1 0 1.6-.2 2-.3l.1-.1-.1-2-.2.1c-.3.1-.6.1-1.2.1-1 0-1.4-.6-1.4-2.1v-6.1h3.1v-2h-3.1v-2.9h-.1zm9.4 2.7c-3.5 0-6 2.6-6 6.4 0 3.7 2.4 6.2 5.8 6.2 2.9 0 6-2 6-6.5 0-1.8-.6-3.4-1.6-4.5-1.1-1-2.5-1.6-4.2-1.6zm-.1 2c2.3 0 3.3 2.2 3.3 4.3 0 2.5-1.4 4.4-3.4 4.4-1.9 0-3.3-1.8-3.3-4.3 0-2.2 1.1-4.4 3.4-4.4zm13.7-1.9h-.2c-.2-.1-.4-.1-.6-.1-1.3 0-2.5.8-3.2 2l-.1-1.8h-2.3v.2c.1 1 .1 2.1.1 3.6v8.3h2.5v-6.5c0-.4 0-.7.1-1 .3-1.6 1.3-2.6 2.7-2.6h1v-2.1zm5.7-.2c-3.4 0-5.7 2.7-5.7 6.6 0 3.7 2.3 6.1 6 6.1 1.9 0 3.2-.4 4-.8l.2-.1-.5-1.9-.2.1c-.7.3-1.6.6-3.2.6-1.1 0-3.6-.4-3.8-3.7h8.2v-.2c.1-.3.1-.6.1-1.1-.1-2.5-1.4-5.6-5.1-5.6zm-.2 2c.8 0 1.4.2 1.9.7.7.7.9 1.8.9 2.4H139c.2-1.5 1.1-3.1 3-3.1z" fill="#fff"></path>
  <text transform="translate(54.9 16.1)" fill="#fff" font-family="'Helvetica Neue Cyr',Arial,'Nimbus Sans L',sans-serif" font-size="11">
    Загрузите в
  </text>
</svg>