<svg xmlns="http://www.w3.org/2000/svg" viewBox="0 0 166 50">
  <path d="M161 50H5c-2.8 0-5-2.2-5-5V5c0-2.8 2.2-5 5-5h156c2.8 0 5 2.2 5 5v40c0 2.8-2.2 5-5 5z"></path>
  <path d="M91.1 42.1c-.6-.5-1.1-1.3-1.4-1.9l2-.9c.1.2.3.6.6.9.5.6 1.2.9 2 .9s1.7-.4 2.1-1 .6-1.3.6-2.1v-.8c-1.4 1.8-4.6 1.6-6.3-.3-1.9-2-1.9-5.3 0-7.4 1.9-1.9 4.6-2.1 6.3-.3v-.9h2.2v9.5c0 2.4-.9 3.8-2 4.6-.8.6-1.9.8-2.9.8-1.3.1-2.4-.3-3.2-1.1zm52.1.6l2.1-5-3.7-8.6h2.1l2.7 6.1 2.6-6.1h2.1l-5.7 13.6h-2.2zm-10-4.8c-.6-.6-.9-1.5-.9-2.3 0-.7.2-1.5.8-2 .9-.9 2.1-1.3 3.5-1.3.9 0 1.7.2 2.2.5 0-1.5-1.2-2.1-2.2-2.1-.9 0-1.8.5-2.1 1.3l-1.9-.8c.3-.9 1.4-2.5 3.9-2.5 1.2 0 2.4.4 3.2 1.3.8.8 1.1 1.9 1.1 3.3v5.2h-2.1v-.9c-.3.3-.7.7-1.1.9-.5.3-1.2.4-1.7.4-1 0-2.1-.3-2.7-1zm-66.4-4.5c0-2.5 1.9-5.2 5.2-5.2 3.3 0 5.2 2.7 5.2 5.2s-1.9 5.2-5.2 5.2c-3.3.1-5.2-2.7-5.2-5.2zm11.2 0c0-2.5 1.9-5.2 5.2-5.2 3.3 0 5.2 2.7 5.2 5.2s-1.9 5.2-5.2 5.2c-3.3.1-5.2-2.7-5.2-5.2zm-25.3 2.8c-3.1-3.2-3-8.2.1-11.4 1.6-1.6 3.6-2.4 5.7-2.4 2 0 4 .7 5.5 2.2l-1.6 1.6c-2.3-2.2-5.8-2.2-8 .1s-2.3 6-.1 8.3 6 2.4 8.2.1c.8-.8 1-1.8 1.2-2.8h-5.3v-2.2h7.4c.1.6.1 1.1.1 1.7 0 1.8-.8 3.8-2 5-1.4 1.4-3.3 2.2-5.4 2.2-2 0-4.2-.8-5.8-2.4zm52.7.9c-1.8-2-1.8-5.4 0-7.4s5-2 6.8 0c.6.7 1 1.5 1.3 2.4l-6.9 2.9c.4.8 1.2 1.6 2.5 1.6 1.1 0 1.8-.4 2.6-1.5l1.8 1.2c-.2.3-.5.5-.7.8-1.9 2-5.6 2-7.4 0zm12.9 1.5V24.8h4.4c2.7 0 4.7 1.9 4.7 4.2s-1.9 4.2-4.3 4.2h-2.7v5.4h-2.1zm10.5 0V24.8h2.1v13.8h-2.1zm-28.1-.3V22.9h2.3v15.4h-2.3zm38-3.8c-.5-.3-1.3-.5-2-.5-1.5 0-2.3.8-2.3 1.6 0 .9.9 1.4 1.7 1.4 1.2 0 2.6-1 2.6-2.5zm-63.8-1.1c0-1.5-1.1-3.2-2.9-3.2s-2.9 1.7-2.9 3.2 1.1 3.2 2.9 3.2 2.9-1.7 2.9-3.2zm11.2 0c0-1.5-1.1-3.2-2.9-3.2s-2.9 1.7-2.9 3.2 1.1 3.2 2.9 3.2 2.9-1.7 2.9-3.2zm11 1c0-.1.1-.2.1-.4V32.8c0-.2-.1-.3-.1-.5-.4-1.2-1.4-2.1-2.7-2.1-1.6 0-2.8 1.4-2.8 3.2 0 1.7 1.3 3.1 2.8 3.1 1.3.1 2.3-.8 2.7-2.1zm9.1-1.2l4.6-2c-.5-.8-1.3-1.1-1.9-1.1-1.7.1-2.9 2.1-2.7 3.1zm19.1-4.2c0-1.2-.9-2.2-2.3-2.2h-2.5v4.4h2.6c1.2 0 2.2-1 2.2-2.2z" fill="#fff"></path>
  <linearGradient gradientUnits="userSpaceOnUse" x1="22.919" y1="40.678" x2="29.992" y2="11.633" gradientTransform="matrix(1 0 0 -1 0 49)">
    <stop offset="0" stop-color="#006884"></stop>
    <stop offset="1" stop-color="#8ad1d0"></stop>
  </linearGradient>
  <path d="M14.7 24.8V11.5c0-.7.6-1.4 1.3-1.4.6 0 .9.2 1.2.3l24.4 13.3c.5.3.8.7.8 1 0 .4-.3.8-.8 1L17.2 39.2c-.3.2-.6.3-1.2.3-.7 0-1.3-.7-1.3-1.4V24.8z" fill="url(#aandblack)"></path>
  <linearGradient gradientUnits="userSpaceOnUse" x1="14.268" y1="36.53" x2="33.541" y2="26.111" gradientTransform="matrix(1 0 0 -1 0 49)">
    <stop offset="0" stop-color="#24bbb6"></stop>
    <stop offset="1" stop-color="#dbe692"></stop>
  </linearGradient>
  <path d="M30.5 24.9L15.8 10.1h.2c.6 0 .9.2 1.2.3l18 9.8-4.7 4.7z" fill="url(#bandblack)"></path>
  <linearGradient gradientUnits="userSpaceOnUse" x1="36.5" y1="19.138" x2="36.5" y2="29.179" gradientTransform="matrix(1 0 0 -1 0 49)">
    <stop offset="0" stop-color="#fcc072"></stop>
    <stop offset="1" stop-color="#f58a5b"></stop>
  </linearGradient>
  <path d="M35.1 29.4l-4.5-4.5 4.6-4.6 6.4 3.5c.5.3.8.7.8 1 0 .4-.3.8-.8 1l-6.5 3.6z" fill="url(#candblack)"></path>
  <linearGradient gradientUnits="userSpaceOnUse" x1="17.994" y1="6.961" x2="33.218" y2="22.456" gradientTransform="matrix(1 0 0 -1 0 49)">
    <stop offset="0" stop-color="#712b8f"></stop>
    <stop offset="1" stop-color="#ea1d27"></stop>
  </linearGradient>
  <path d="M15.9 39.5l14.6-14.6 4.5 4.5-17.9 9.8c-.2.1-.5.3-1.2.3.1 0 .1 0 0 0z" fill="url(#dandblack)"></path>
  <text transform="translate(52.4 15.497)" fill="#fff" font-family="'Helvetica Neue Cyr',Arial,'Nimbus Sans L',sans-serif" font-size="11">
    Доступно в
  </text>
</svg>