<svg xmlns="http://www.w3.org/2000/svg" width="30.682" height="27.514" viewBox="0 0 30.682 27.514"><path d="M.02 8.313c-.006.006-.014.01-.02.017l.52.502.2.198.014-.018c.59-.602 1.514-.954 2.544-.965 1.067-.035 2.047.35 2.677.96.006.008.01.016.017.023l.004-.004s.002 0 .003.002l.38-.384.32-.318v-.003l.005-.005c-.007-.007-.017-.012-.024-.02-.61-.63-.97-1.627-.96-2.677.013-1.036.37-1.967.98-2.554h-.002l.014-.013-.36-.347-.347-.36-.01.014H5.97c-.588.61-1.52.966-2.56.977-1.025.04-2.057-.35-2.688-.97-.007-.006-.01-.014-.017-.02l-.577.598-.122.123.02.016c.6.588.952 1.51.963 2.538.012 1.055-.35 2.06-.97 2.69zm3.34-3.975h.063a5.173 5.173 0 0 0 1.54-.263c-.154.48-.255.993-.262 1.534a5.31 5.31 0 0 0 .267 1.695 4.9 4.9 0 0 0-1.7-.258 5.188 5.188 0 0 0-1.543.263c.172-.53.274-1.103.267-1.7a5.232 5.232 0 0 0-.263-1.54c.512.165 1.06.268 1.634.268zM15.49 3.375l-2.284-.73 1.803 1.582c2.515 2.21 3.813 4.71 3.86 7.438.05 3.07-1.5 5.637-2.968 7.017-1.446 1.36-3.74 2.17-6.136 2.17-1.978 0-4.94-.548-7.818-3.166l-1.53-1.392.726 1.938c2.212 5.898 6.767 9.282 12.498 9.282 3.485 0 6.936-1.325 9.004-3.457C25.318 21.3 26.4 16.95 25.404 12.97c-1.13-4.503-4.65-7.91-9.913-9.595zM21.93 23.36c-1.887 1.946-5.062 3.154-8.287 3.154-4.676 0-8.512-2.46-10.76-6.82 2.583 1.75 5.1 2.16 6.885 2.16 2.644 0 5.194-.914 6.82-2.443 1.625-1.525 3.34-4.367 3.282-7.76-.04-2.306-.918-4.52-2.563-6.5 3.745 1.73 6.245 4.537 7.128 8.064.917 3.65-.067 7.634-2.504 10.147zM28.107 0c-1.42 0-2.575 1.155-2.575 2.575s1.155 2.575 2.575 2.575 2.575-1.155 2.575-2.575S29.527 0 28.107 0zm0 4.15c-.87 0-1.575-.707-1.575-1.575S27.238 1 28.107 1c.868 0 1.575.707 1.575 1.575s-.707 1.575-1.575 1.575z"></path></svg>