<svg xmlns="http://www.w3.org/2000/svg" width="14.634" height="16.873" viewBox="0 0 14.634 16.873"><path fill-rule="evenodd" clip-rule="evenodd" fill="#0073A5" d="M14.634 10.487c0 .366-.23.536-.646.536h-.792v-.366h.792c.073 0 .134-.012.158-.036a.158.158 0 0 0 .05-.11.184.184 0 0 0-.05-.12c-.024-.026-.073-.038-.146-.038-.377-.012-.853.012-.853-.523 0-.245.16-.513.585-.513h.816v.365h-.756c-.073 0-.122 0-.158.024-.037.037-.062.073-.062.134 0 .06.037.097.085.122.05.012.098.024.16.024h.218c.23 0 .377.05.475.134a.525.525 0 0 1 .124.367zm-1.718-.365c-.098-.085-.244-.134-.476-.134h-.22c-.06 0-.11-.012-.158-.024-.048-.024-.085-.06-.085-.122s.013-.098.06-.134c.038-.024.087-.024.16-.024h.755v-.366h-.816c-.438 0-.585.268-.585.512 0 .536.477.512.855.523.073 0 .122.012.146.037.025.024.05.073.05.122a.16.16 0 0 1-.05.11.277.277 0 0 1-.157.036H11.6v.366h.792c.415 0 .646-.17.646-.536 0-.17-.05-.28-.122-.366zm-1.56.548h-.963v-.34h.938v-.342h-.937V9.67h.962V9.32H9.992v1.706h1.364v-.354zM9.552 9.403c-.134-.073-.292-.085-.5-.085h-.938v1.706h.414v-.622h.438c.146 0 .23.013.292.073.073.085.073.232.073.34v.208h.402v-.33c0-.157-.012-.23-.06-.316a.485.485 0 0 0-.208-.146.47.47 0 0 0 .292-.45c0-.195-.073-.304-.207-.377zm-2.316-.085H5.934l-.524.56-.5-.56H3.266v1.706h1.62l.524-.56.5.56h.792v-.573h.512c.354 0 .707-.097.707-.572 0-.462-.365-.56-.683-.56zm1.986.706c-.06.024-.12.024-.195.024l-.5.012v-.39h.5c.074 0 .146 0 .195.037.05.025.086.073.086.147a.21.21 0 0 1-.087.17zm-1.986.086H6.7v-.44h.537c.146 0 .244.062.244.208s-.096.232-.243.232zm-1.57.06l.632-.67v1.377l-.634-.707zm-.988.5H3.666v-.34h.902v-.342h-.903V9.67H4.69l.45.5-.46.5zm8.82-2.583h-.584l-.768-1.28v1.28h-.83l-.158-.377h-.852l-.158.377h-.476c-.195 0-.45-.05-.597-.195-.134-.146-.207-.34-.207-.646 0-.255.037-.487.22-.67.122-.134.34-.195.62-.195h.39v.367h-.39c-.145 0-.23.024-.315.097-.074.074-.11.208-.11.39 0 .183.036.317.11.402.06.062.17.086.28.086h.183l.584-1.34h.61l.68 1.608V6.38h.635l.72 1.183V6.38h.413v1.707zM8.663 6.38H8.25v1.707h.413V6.38zm-.865.075c-.134-.074-.28-.074-.487-.074h-.937v1.707h.402v-.622h.438c.146 0 .244.012.305.073.073.086.06.232.06.33v.22h.415v-.342c0-.146-.012-.22-.073-.305a.51.51 0 0 0-.195-.145.484.484 0 0 0 .292-.45c0-.196-.085-.305-.22-.39zM6.08 7.733h-.95v-.34h.938V7.04H5.13v-.306h.95V6.38H4.716v1.707H6.08v-.354zM4.41 6.38h-.67l-.5 1.16-.535-1.16h-.658v1.61l-.694-1.61h-.61l-.73 1.707H.45l.16-.377h.852l.16.377h.828v-1.34l.597 1.34H3.4l.597-1.34v1.34h.415V6.38zm6.605.963l-.28-.67-.28.67h.56zM7.48 7.076c-.06.037-.12.037-.206.037h-.5v-.38h.5c.073 0 .158 0 .207.026.05.036.075.084.075.158 0 .073-.025.134-.074.158zm-6.725.267l.28-.67.28.67h-.56zm13.782-6.31H0v6.14L.5 6.04h1.06l.146.28v-.28H2.95l.28.61.267-.61h3.96c.183 0 .34.037.463.134V6.04h1.084v.134c.183-.097.414-.134.683-.134h1.57l.147.28v-.28h1.158l.17.28v-.28h1.133v2.388H12.72l-.22-.366v.366h-1.426l-.158-.39h-.354l-.158.39h-.74c-.293 0-.513-.073-.66-.146v.146H7.238V7.88c0-.073-.012-.085-.06-.085h-.06v.634H3.703v-.306l-.122.304h-.718l-.122-.292v.292H1.364l-.146-.39H.865l-.158.39H0v7.2h14.537v-4.374a1.48 1.48 0 0 1-.598.11h-1.06v-.146c-.123.098-.343.146-.55.146H8.993v-.548c0-.073-.012-.073-.074-.073h-.06v.62H7.762v-.645c-.183.085-.39.085-.573.085h-.123v.56h-1.34L5.41 11l-.353.365H2.9V8.977h2.193l.317.365.342-.366h1.474c.17 0 .45.024.573.146v-.145h1.314c.134 0 .39.024.56.146v-.146h1.987v.146c.11-.098.318-.146.5-.146h1.11v.146a.882.882 0 0 1 .512-.146h.756V1.032z"></path></svg>