<svg xmlns="http://www.w3.org/2000/svg" width="34.52" height="49.299" viewBox="0 0 34.52 49.299"><g fill="#E83D3C"><path d="M23.535 21.14c-1.508-.367-3.002.154-3.897 1.36l.803.597c.663-.89 1.73-1.26 2.858-.984.955.232 1.674.873 1.79 1.594l.988-.16c-.183-1.13-1.18-2.074-2.54-2.406zM27.738 12.903c.955.232 1.674.873 1.79 1.594l.988-.16c-.183-1.13-1.18-2.074-2.54-2.406-1.51-.368-3.002.154-3.898 1.36l.803.597c.662-.89 1.73-1.26 2.858-.984zM25.707 17.556c.954.232 1.673.874 1.79 1.595l.987-.16c-.183-1.13-1.18-2.073-2.54-2.405-1.508-.368-3.003.153-3.898 1.36l.803.595c.66-.892 1.728-1.26 2.857-.984zM12.443 19.816l.218-.976c-1.32-.298-2.54.13-3.263 1.137-.634.885-.71 2.007-.19 2.86l.853-.52c-.31-.51-.25-1.2.15-1.757.48-.672 1.315-.95 2.233-.744zM4.876 19.523c-.634.885-.71 2.007-.19 2.86l.853-.52c-.31-.51-.252-1.2.148-1.757.48-.672 1.317-.95 2.233-.744l.22-.976c-1.32-.296-2.542.13-3.264 1.137zM30.9 15.665c-.907-.598-2.03-.628-2.862-.077l.554.833c.496-.33 1.186-.297 1.76.08.69.455 1 1.278.833 2.204l.983.18c.243-1.334-.23-2.537-1.267-3.22zM19.212 23.59c-1.086.07-2 .724-2.33 1.665l.943.33c.196-.562.766-.953 1.452-.998.82-.062 1.57.415 1.993 1.254l.893-.45c-.61-1.21-1.722-1.882-2.95-1.8zM10.904 24.356c-1.086.07-2 .725-2.33 1.666l.943.33c.196-.562.766-.953 1.452-.998.823-.063 1.567.415 1.992 1.254l.893-.45c-.61-1.21-1.712-1.885-2.95-1.802zM28.45 19.652c-1.087.07-2.002.726-2.33 1.667l.942.33c.197-.563.767-.955 1.452-1 .825-.06 1.568.414 1.993 1.253l.893-.45c-.61-1.21-1.724-1.88-2.95-1.8zM13.56 21.37c-.845.69-1.21 1.753-.933 2.71l.96-.277c-.165-.572.072-1.222.605-1.657.64-.522 1.52-.57 2.35-.135l.465-.884c-1.2-.63-2.488-.54-3.448.245zM10.682 15.13l.466-.884c-1.2-.63-2.486-.54-3.447.245-.843.69-1.208 1.753-.93 2.71l.96-.277c-.167-.572.07-1.223.603-1.657.64-.522 1.518-.57 2.35-.135zM11.845 18.033c-.024-.595.36-1.17.98-1.463.748-.354 1.61-.193 2.315.43l.663-.748c-1.013-.898-2.287-1.12-3.406-.586-.983.467-1.593 1.412-1.552 2.408l1-.04zM18.857 17.044c-1.682-.052-3.087.847-3.622 2.246l.934.357c.463-1.216 1.748-1.625 2.666-1.604.926.02 2.052.45 2.438 1.603l.948-.318c-.453-1.354-1.774-2.25-3.365-2.284zM19.21 13.862c.927.02 2.053.45 2.44 1.603l.947-.318c-.454-1.354-1.775-2.25-3.366-2.284-1.667-.06-3.086.847-3.62 2.246l.933.356c.466-1.216 1.756-1.62 2.668-1.604z"></path></g><g fill="#1E180F"><path d="M16.925 9.338c1.486-.5 3.018-1.014 4.25-2.27.283.277.576.537.862.79 1.18 1.048 2.197 1.952 2.197 3.704h1c0-2.202-1.288-3.345-2.534-4.45-.397-.354-.81-.72-1.172-1.115l-.39-.424-.364.445C19.67 7.36 18.182 7.86 16.607 8.39c-1.702.573-3.462 1.164-4.67 2.885l-.09.13v.157c0 .76.143 1.563.424 2.392l.948-.322a6.58 6.58 0 0 1-.37-1.91c1.02-1.356 2.506-1.856 4.077-2.384zM33.945 29.82c-.235-1.373-.886-2.56-1.882-3.43l-.025.028c.26-1.154.322-2.26.053-3.262l-.32-1.203-.6 1.092c-2.314 4.22-11.15 4.888-12.15 4.95-4.883.302-10.617-.167-12.078-2.395l-.676-1.03-.233 1.21c-.026.136-.04.277-.057.418l-.113-.16c-1.313.935-2.06 1.906-2.494 3.247C1.853 33.962 0 43.178 0 47.27c0 .482.196.9.568 1.21.605.5 1.653.703 3.02.703 2.175 0 5.157-.51 8.438-1.127.684-.128 1.313-.246 1.855-.34l-.17-.985c-.546.095-1.18.214-1.87.344-3.477.653-9.297 1.746-10.633.637A.535.535 0 0 1 1 47.27c0-4.006 1.827-13.067 3.32-17.674.31-.956.815-1.667 1.64-2.352.275 4.16 4.398 9.502 7.39 12.862-1.476.814-3.723.716-5.17-.318-1.62-1.157-1.96-3.18-.964-5.698l-.93-.368c-1.01 2.548-.782 4.767.595 6.245.267.92.483 1.986.65 3.157l-.06-.005c-1.11-.097-2.365-.208-3.293.308l.485.874c.66-.367 1.755-.272 2.72-.187.427.038.835.072 1.196.072H12.613c1.035 0 1.85-.425 2.637-.837.26-.135.526-.267.8-.39l.123.123-.235.61.75.29.002.05.105-.01.075.03.014-.036.478-.037c1.372-.11 3.173-.253 4.273.224l-.316.692c.34.156.59.303.793.458a2.78 2.78 0 0 0-.56-.236l-.273.962c.377.107.75.367.94.694a1.618 1.618 0 0 0-.715-.34l-.184.984c.493.092.78.82.753 1.262l.998.06a2.505 2.505 0 0 0-.41-1.48l.69.043a1.77 1.77 0 0 0-.206-.926l.425.038c.1-1.16-.61-1.775-1.262-2.143l.46-.544c-.036-.03-.08-.05-.117-.077.562-.535 1.195-1.293 1.877-2.24.56.162 1.135.253 1.71.253 1 0 1.97-.26 2.815-.704-.855 3.88-.754 8.097-.75 8.293l1-.027c0-.052-.125-5.156 1-9.16.028-.027.063-.046.09-.074.813-.865 1.976-2.83.61-6.27l-.93.367c.874 2.2.73 4.004-.41 5.216-1.166 1.237-3.06 1.538-4.53 1.23.93-1.384 1.92-3.055 2.9-4.922.34-.796.803-1.708 1.293-2.672.894-1.76 1.85-3.65 2.42-5.462.778.84 1.088 1.807 1.208 2.51 1.08 6.286.29 18.367.19 19.19l.994.12c.185-1.474.856-13.38-.192-19.48zM14.79 42.462c-.744.388-1.385.723-2.175.723H8.55c-.11-.806-.243-1.56-.4-2.262a6.2 6.2 0 0 0 2.92.725c1.07 0 2.112-.278 2.953-.8.48.525.915.98 1.28 1.355-.175.086-.348.17-.514.258zm13.65-9.974c-.498.978-.967 1.904-1.305 2.695-1.976 3.763-3.988 6.736-5.384 7.95l.06.068c-1.308-.472-3.054-.34-4.526-.22l.062-.16-.242-.23a37.244 37.244 0 0 1-.773-.77l-.013-.043-.02.008c-2.37-2.42-9.177-9.78-9.36-14.74 2.817 2.24 9.273 2.126 12.145 1.947 1.574-.098 8.99-.746 12.18-4.36C31.228 27 29.703 30 28.44 32.49z"></path><path d="M7.06 13.604l.88-.477a4.243 4.243 0 0 1-.346-.782c-.144-.48.04-1.14.215-1.777a9.55 9.55 0 0 0 .244-1.03C8.19 8.662 9.634 1 18.304 1V.5 1h.02c2.36 0 4.272.754 5.684 2.24 1.698 1.788 2.576 4.604 2.41 7.725l1 .053c.18-3.395-.8-6.48-2.685-8.466C23.125.858 20.968 0 18.323 0h-.02C8.803 0 7.215 8.422 7.065 9.383c-.046.293-.133.604-.22.918-.214.775-.436 1.576-.21 2.334a5.2 5.2 0 0 0 .425.97z"></path></g></svg>