<svg xmlns="http://www.w3.org/2000/svg" width="40.321" height="49.946" viewBox="0 0 40.321 49.946"><g fill="#010202"><path d="M24.51 7.676l-.294-.077c-4.7-1.237-12.573-3.31-16.91 4.448-3.024 5.414 2.058 16.973 4.105 21.184-1.082.115-2.19-.265-3.51-.72-1.07-.37-2.178-.753-3.432-.913C1.178 31.18.58 34.61.322 36.076c-.047.27-.11.633-.158.77a.992.992 0 0 0 1.595 1.177c.298-.366.385-.858.516-1.603.41-2.324.855-3 1.94-2.852 1.05.134 2.06.482 3.037.82.288.1.578.196.87.29-1.28.466-2.395 1.123-3.186 1.81-.82.713-1.25 1.415-1.28 2.088-.025.548.396 1.03.943 1.055.016.002.032.002.047.002a.973.973 0 0 0 .986-.93c.16-.597 2.166-2.1 4.66-2.56A412.744 412.744 0 0 1 7.2 39.877c-.01.01-.01.024-.02.036-.008.01-.02.015-.028.025-2.464 3.325-2.668 4.443-2.19 5.252 1.383 2.333 3.613 3.88 6.452 4.478a13.57 13.57 0 0 0 2.77.277c2.6 0 4.923-.688 5.91-1.396 1.423-1.023.88-2.997.25-5.282-.5-1.815-1.064-3.854-.887-5.808 2.097-1.053 5.206-3.484 8.48-6.646.01-.01.012-.023.02-.033.01-.01.023-.013.033-.022.636-.72 1.446-1.525 2.304-2.378 2.955-2.936 6.304-6.264 6.5-9.73.335-5.834-8.888-10.085-12.285-10.974zm-5.57 39.26c-.7.505-3.846 1.48-7.116.79-2.244-.47-3.942-1.61-5.052-3.384.072-.265.407-1.1 1.956-3.194.476-.553 3.445-4.164 4.63-5.607l4.122 1.862c-.176 2.278.44 4.54.952 6.395.262.95.807 2.925.508 3.14zm9.957-19.964c-.866.86-1.684 1.674-2.356 2.43-3.13 3.025-6.136 5.376-8.012 6.295l-4.732-2.135c-2.32-4.442-7.304-15.988-4.757-20.545 3.583-6.415 9.993-4.728 14.67-3.5l.295.08c3.174.83 11.05 4.708 10.81 8.938-.152 2.71-3.35 5.885-5.918 8.437z"></path><path d="M39.966 13.495c-.685-1.817-2.215-3.006-4.093-3.18a.986.986 0 0 0-1.08.898.992.992 0 0 0 .898 1.08c1.59.145 2.222 1.378 2.42 1.9.39 1.04.262 2.233-.31 2.837a.992.992 0 1 0 1.442 1.362c1.1-1.16 1.39-3.13.724-4.897zM28.414 4.967c1.48-1.045 3.325-1.067 4.933-.063 1.354.846 2.14 2.192 1.954 3.35a.992.992 0 1 0 1.96.316c.315-1.967-.808-4.066-2.862-5.35-2.272-1.417-5.003-1.37-7.126.125a.993.993 0 0 0-.24 1.383.994.994 0 0 0 1.382.24zM8.72 8.04a.992.992 0 0 0 .896-1.42c-.405-.85-.196-1.933.532-2.756.423-.48 1.632-1.52 3.713-.82a.993.993 0 0 0 .63-1.883c-2.224-.742-4.4-.225-5.828 1.388-1.257 1.42-1.585 3.353-.837 4.926.17.356.526.565.896.565zM17.032 4.237a.997.997 0 0 0 1.282-.57c.492-1.276 1.85-1.67 2.85-1.68.987.023 2.182.477 2.582 1.68a.99.99 0 0 0 1.882-.626C25.03 1.245 23.298.054 21.21.005c-2.167-.078-4.04 1.107-4.75 2.95a.994.994 0 0 0 .572 1.283z"></path></g></svg>