<svg xmlns="http://www.w3.org/2000/svg" width="17.176" height="22.148" viewBox="0 0 17.176 22.148"><g fill-rule="evenodd" clip-rule="evenodd"><path d="M16.878 9.543c-1.23-1.05-1.357 1.603-1.937 1.483-.297-.062-.24-1.33-.297-1.565-.123-.517-.298-.967-.968-.905-1.132.104-.8 2.178-1.266 2.225-.41.04-.394-1.295-.448-1.648-.148-.99-.914-1.684-1.566-.848-.337.433-.208 2.39-.817 2.166-.28-.103-.13-1.277-.224-2.472-.064-.815-.095-2.41-.14-3.715A2.225 2.225 0 0 0 8.315 0C7.086 0 6.09.997 6.09 2.228c0 .838.467 1.56 1.15 1.94.015.342.03.685.03 1.01v6.426c0 1.143.176 3.553-.298 3.13-.283-.25-1.096-1.444-1.19-1.564-.71-.898-.72-1.52-1.565-1.565-.386-.02-1.035.21-1.117.74-.083.542.87 1.913 1.117 2.39.976 1.88 1.48 2.793 2.384 4.615.62 1.25.852 2.406 2.012 2.637 1.198.238 4.95.197 5.958 0 1.596-.313 1.873-2.5 2.16-4.202.32-1.89.447-3.533.447-5.767 0-.622.027-2.196-.3-2.475z"></path><circle cx="14.799" cy="4.722" r="2.228"></circle><circle cx="2.228" cy="4.653" r="2.228"></circle></g></svg>