<svg xmlns="http://www.w3.org/2000/svg" width="23.366" height="22.059" viewBox="0 0 23.366 22.059"><path class="svg-fav" fill="#ccc" d="M11.686 22.06h-.003c-.447 0-.793-.203-1-.323C6.165 19.23.735 14.285.07 8.472-.56 2.952 3.17.42 5.834.064c2.135-.29 4.226.452 5.85 2.05 1.676-1.63 3.7-2.34 5.85-2.05 2.662.356 6.394 2.89 5.763 8.408-.666 5.812-6.096 10.756-10.543 13.224l-.44-.563.353.615c-.206.115-.546.31-.98.31zM6.752 1.417a5.45 5.45 0 0 0-.73.05C3.912 1.75.962 3.806 1.48 8.312c.602 5.277 5.667 9.84 9.82 12.145l.093.053c.093.055.226.132.286.132h.006c.058 0 .188-.074.275-.124a5.48 5.48 0 0 1 .104-.06c4.153-2.306 9.218-6.87 9.823-12.146.515-4.505-2.435-6.56-4.543-6.843-1.854-.25-3.6.45-4.976 1.975-.09.103-.174.18-.27.25a.704.704 0 0 1-.852-.013 1.786 1.786 0 0 1-.266-.256C9.8 2.116 8.334 1.418 6.752 1.418z"></path></svg>