<svg xmlns="http://www.w3.org/2000/svg" width="48.851" height="47.85" viewBox="0 0 48.851 47.85"><g fill="#010202"><path d="M47.99 9.77c-.87-4.455-4.055-7.594-8.736-8.61C35.858.423 30.404 0 24.287 0 18.443 0 13.017.39 9.4 1.066 4.11 2.06 1.813 4.258.93 9.176-.04 14.554-.537 25.782.882 31.143 2.195 36.1 5.06 38.772 9.4 39.087c1.492.11 3.89.164 7.13.164 4.71 0 9.91-.117 11.462-.154 1.388 1.53 7.003 7.403 12.706 8.73.075.016.15.024.225.024h.02a.992.992 0 0 0 .74-1.65c-1.28-2.168-1.73-4.383-1.46-7.273 5.902-1.573 7.37-5.802 7.714-8.24.81-5.726 1.544-13.276.054-20.916zm-2.017 20.637c-.35 2.47-1.824 5.647-6.87 6.748-.41.09-.72.43-.773.845-.25 1.975-.358 4.46.657 7.15-5.06-2.244-9.753-7.644-9.806-7.706a.993.993 0 0 0-.75-.345h-.027c-.063 0-6.31.166-11.872.166-3.19 0-5.54-.053-6.984-.158-3.5-.254-5.642-2.312-6.744-6.475-1.33-5.022-.832-16.03.08-21.105.745-4.14 2.353-5.66 6.884-6.512 3.5-.656 8.794-1.032 14.52-1.032 5.894 0 11.332.417 14.547 1.115 3.87.84 6.498 3.41 7.21 7.052 1.435 7.35.716 14.685-.07 20.255z"></path><path d="M16.03 15.456h.004c1.208 0 2.193-.98 2.196-2.188 0-.588-.228-1.14-.643-1.557a2.17 2.17 0 0 0-1.547-.64 2.2 2.2 0 0 0-2.196 2.187c0 .585.225 1.136.637 1.55.415.418.965.647 1.55.65zm.01-2.402c.07 0 .117.032.144.06a.21.21 0 0 1 .062.15.21.21 0 0 1-.21.208c-.098 0-.207-.11-.207-.208a.21.21 0 0 1 .21-.21zM31.038 15.5h.007c1.205 0 2.19-.98 2.197-2.188a2.172 2.172 0 0 0-.64-1.552 2.195 2.195 0 0 0-3.748 1.542c0 1.204.98 2.19 2.184 2.2zm.01-2.4c.1 0 .21.106.21.202 0 .12-.093.213-.21.215a.213.213 0 0 1-.208-.21c0-.117.09-.208.21-.208zM35.018 23.35c-1.464 2.013-4.674 3.282-8.807 3.484-5.293.257-10.664-1.268-12.764-3.63a.99.99 0 1 0-1.482 1.32c2.325 2.614 7.573 4.322 13.065 4.322.424 0 .852-.01 1.278-.03 4.805-.235 8.468-1.762 10.314-4.298a.993.993 0 0 0-1.604-1.167z"></path></g></svg>