<svg xmlns="http://www.w3.org/2000/svg" width="34.444" height="40.71" viewBox="0 0 34.444 40.71"><path fill="#010202" d="M33.448 15.484c-.27-.36-.678-.897-.867-1.216a3.99 3.99 0 0 0 1.256-1.52c.884-1.892.17-4.104-1.59-4.934.285-.638.305-1.387.02-2.166-.323-.878-.983-1.69-1.86-2.285-.975-.664-2.065-.94-3.022-.857C27.072 1.136 25.428.12 23.372.12c-1.045 0-2.032.288-2.782.777C19.85.345 18.802 0 17.612 0c-1.355 0-2.584.453-3.336 1.203a3.41 3.41 0 0 0-.632-.396c-.816-.394-1.84-.534-2.883-.39C8.648.7 7.126 2.01 7.1 3.474a5.018 5.018 0 0 0-.998.047c-1.056.165-2 .655-2.66 1.38-.576.632-.86 1.377-.862 2.136C1.134 7.59.188 9.335.395 11.278c.105.99.502 1.89 1.104 2.572-1.88 3.383-1.57 3.667-1.287 3.91a.55.55 0 0 0 .364.137c.16 0 .358-.066.598-.254.435-.34 1.314-.466 2.246-.6.047-.005.094-.013.14-.02v19.83c0 3.355 9.28 3.856 14.813 3.856 4.964 0 13.293-.53 13.293-4.073V17.393c.63.04 1.245.104 1.902.31a.935.935 0 0 0 .28.047c.28 0 .43-.16.487-.243.31-.443-.064-.938-.887-2.023zm-.518-3.16c-.636 1.354-2.242 2.033-3.488 1.45a2.41 2.41 0 0 1-1.273-1.483 2.917 2.917 0 0 1 .157-2.123c.476-1.016 1.454-1.672 2.49-1.672.35 0 .683.074.996.22 1.27.595 1.77 2.214 1.117 3.61zm-10.66 6.634c-.655-.504-1.358-.85-1.995-1.164-1.3-.64-1.827-.985-1.786-1.73a3.665 3.665 0 0 0 1.238-2.517c.195 1.104.9 2.042 1.885 2.608-.062.716.242 1.67.658 2.803zM6.145 12.534c0-1.54 1.38-2.793 3.077-2.793 1.29 0 2.424.725 2.875 1.81a3.548 3.548 0 0 0-.5 1.782c0 .288.04.565.107.834-.58.724-1.492 1.16-2.48 1.16-1.698 0-3.078-1.252-3.078-2.792zm4.51-6.31c-.006-.035-.02-.068-.028-.103.036 0 .07.01.107.01.262 0 .524-.02.788-.055.122-.016.232-.05.35-.072-.53.555-.856 1.24-.856 1.992 0 .465.126.913.35 1.322a4.26 4.26 0 0 0-1.54-.532c.675-.75.972-1.658.83-2.56zM21.65 4.57c1.697 0 3.078 1.025 3.078 2.285 0 1.26-1.38 2.284-3.078 2.284s-3.08-1.025-3.08-2.284c0-1.26 1.383-2.285 3.08-2.285zm-1.966 8.15c-.18-1.01-.78-1.882-1.635-2.457.35-.295.622-.643.812-1.022.595.45 1.356.753 2.203.852-.798.65-1.316 1.58-1.38 2.627zM18.1 8.437c-.14.517-.524.992-1.08 1.328a4.293 4.293 0 0 0-1.346-.23c-.717 0-1.382.19-1.968.493-1.03-.392-1.692-1.18-1.692-2.035 0-1.26 1.38-2.287 3.078-2.287.998 0 1.92.367 2.5.976-.003.058-.02.112-.02.17 0 .578.2 1.113.53 1.585zm-7.475 7.655a4.128 4.128 0 0 0 1.51-.913c.294.485.69.907 1.175 1.23-.526.717-1.748 1.06-2.673 1.318-.206.058-.395.11-.564.164.113-.483.33-1.183.552-1.8zm1.97-2.76c0-1.542 1.382-2.796 3.08-2.796s3.077 1.254 3.077 2.795c0 1.54-1.38 2.792-3.078 2.792s-3.078-1.252-3.078-2.792zm8.066-.4c0-1.54 1.382-2.795 3.08-2.795 1.696 0 3.077 1.254 3.077 2.795s-1.38 2.795-3.078 2.795-3.08-1.254-3.08-2.795zm6.762-3.19c-.16.34-.253.698-.313 1.058-.602-.82-1.54-1.404-2.627-1.592.665-.52 1.095-1.22 1.2-2 .338.458.765.877 1.277 1.225.31.21.635.374.967.51a3.995 3.995 0 0 0-.505.8zm2.422-5.553c.705.48 1.23 1.12 1.482 1.802.215.588.19 1.13-.057 1.552-.15-.02-.298-.05-.452-.05-.748 0-1.467.25-2.078.678a4.3 4.3 0 0 1-1.22-.567c-.844-.573-1.44-1.396-1.593-2.202-.063-.33-.078-.813.21-1.235.63-.926 2.326-.918 3.707.022zM26.41 2.742c-.445.188-.83.468-1.1.864a2.447 2.447 0 0 0-.408 1.288c-.744-.8-1.92-1.325-3.252-1.325-.034 0-.065.006-.1.007.086-.233.14-.474.14-.722 0-.443-.148-.854-.395-1.225.57-.322 1.296-.51 2.076-.51 1.538 0 2.84.722 3.04 1.622zM17.61 1c1.67 0 3.08.85 3.08 1.854 0 .404-.23.72-.428.922-1.08.317-1.95.982-2.385 1.835-.75-.566-1.74-.903-2.788-.903-.246 0-.484.025-.718.06.593-.59.91-1.314.81-2.066-.035-.258-.133-.498-.258-.726.547-.596 1.566-.974 2.686-.974zm-6.717.408c.85-.115 1.672-.01 2.315.3.573.276.92.676.982 1.127.134.996-1.15 2.026-2.806 2.25-.396.054-.79.05-1.178.006-.21-.32-.48-.61-.812-.85a4.014 4.014 0 0 0-1.306-.6c-.115-.992 1.16-2.01 2.805-2.232zM6.257 4.51c.948-.147 1.877.046 2.55.538.48.35.777.81.858 1.332.096.604-.116 1.226-.595 1.752-.507.556-1.245.934-2.08 1.065-.116.02-.227.02-.34.027-.584-1.422-1.78-2.34-3.08-2.352.043-.455.25-.902.61-1.296.508-.557 1.245-.935 2.077-1.066zm-2.89 3.354c1.092-.118 2.155.817 2.524 2.22l.32-.085c-.656.672-1.066 1.556-1.066 2.534 0 .274.035.54.094.797-.268.298-.662.597-1.218.657-.594.06-1.19-.18-1.682-.683-.523-.536-.86-1.294-.95-2.134-.18-1.685.71-3.17 1.98-3.306zm-.087 8.19c-.72.103-1.413.2-1.986.41.242-.54.606-1.257.98-1.944.482.306 1.01.48 1.555.48.098 0 .197-.006.297-.017a2.853 2.853 0 0 0 1.516-.667c.178.308.39.596.647.845-.736.566-1.887.734-3.01.894zM18.373 39.71c-8.133 0-13.813-1.174-13.813-2.855v-3.36c2.537 1.856 9.375 2.182 13.813 2.182 3.927 0 9.943-.337 12.293-2.228v3.187c0 1.867-4.826 3.073-12.293 3.073zm0-5.033c-8.133 0-13.813-1.173-13.813-2.853v-14.96c.95-.18 1.88-.47 2.56-1.097.615.348 1.33.56 2.102.56.09 0 .178-.01.268-.015-.765 2.268-.46 2.52-.252 2.685.05.04.18.126.363.126.11 0 .24-.032.384-.125.136-.088.536-.2.922-.307 1.064-.296 2.605-.73 3.303-1.83.455.165.946.264 1.464.264.683 0 1.317-.172 1.883-.45.265 1.012 1.278 1.526 2.276 2.018.755.372 1.61.792 2.295 1.463.267.262.61.6.963.6.102 0 .204-.03.305-.094.46-.296.272-.802-.137-1.912-.216-.585-.57-1.55-.647-2.187.36.1.734.167 1.128.167a4.22 4.22 0 0 0 2.806-1.054c1.49 1.33 2.832 1.574 4.12 1.662v14.273c.002 1.864-4.824 3.07-12.29 3.07zM31.27 16.37c-1.4-.074-2.626-.155-4.072-1.45.264-.398.454-.84.546-1.315a3.32 3.32 0 0 0 1.275 1.074c.446.208.924.315 1.42.315.44 0 .87-.093 1.275-.25.19.336.49.754.937 1.344.102.133.22.29.335.445-.597-.108-1.164-.137-1.717-.166z"></path></svg>