<svg xmlns="http://www.w3.org/2000/svg" width="34.117" height="41.576" viewBox="0 0 34.117 41.576"><path d="M33.665 15.508c.723-1.4.597-3.82-.506-4.99.108-.32.182-.663.183-1.036.004-.92-.334-1.87-.954-2.67-.887-1.148-2.17-1.738-3.332-1.68-.106-1.153-1.138-2.412-2.668-3.185-2.063-1.036-4.202-.808-4.87.518a1.792 1.792 0 0 0-.12.33c-.457-.338-1.036-.59-1.69-.738C19.557.875 17.86 0 15.62 0c-2.193 0-3.863.838-4.076 1.98a4.505 4.505 0 0 0-1.796.003c-1.27.265-2.278 1.024-2.816 1.97-.033-.026-.054-.06-.09-.084-1.325-.902-3.31-.305-4.423 1.33-.816 1.2-.955 2.64-.395 3.7-.004 0-.01.002-.013.005-.845.464-1.51 1.356-1.826 2.447-.258.894-.247 1.813.032 2.588.253.705.708 1.21 1.283 1.48-.214.64-.3 1.346-.2 2.07.265 1.98 1.686 3.476 3.305 3.476.1 0 .2-.01.3-.02.535.676 2.228 2.55 5.936 4.744-.598 1.138-.507 3.344-.504 3.37.047.486.348.726 2.627.694-1.02 1.8-3.88 7.003-3.88 8.58 0 .52.16.938.48 1.247.634.62 1.713.59 2.503.566.235-.005.448-.014.612 0 .787.073 1.578.424 2.353 1.044.367.292.9.387 1.465.387.618 0 1.274-.113 1.792-.202.25-.042.447-.082.497-.087.783.175 1.245-.02 1.654-.19.396-.167.77-.323 1.595-.213 1.237.17 1.82-1.082 2.176-1.828.088-.187.21-.443.22-.474.054-.02.23-.016.348-.01.375.006.885.02 1.252-.346.243-.242.36-.596.353-1.055-.015-.788-2.415-4.324-4.206-6.857.065.002.14.012.205.012.554 0 1.022-.066 1.34-.227 1.247-.636.807-3.717.613-4.426 3.825-2.198 5.922-4.614 6.415-5.223.15.03.305.054.46.054a2.5 2.5 0 0 0 .323-.02c.796-.108 1.484-.594 1.938-1.37.432-.736.6-1.653.475-2.582a4.294 4.294 0 0 0-.28-1.024zm-2.716-2.153c.006-.086.016-.172.016-.26 0-.263-.037-.518-.098-.766a2.67 2.67 0 0 0 1.41-.53c.137-.106.25-.23.36-.358.478.742.59 2.004.37 2.964-.55-.642-1.276-1.035-2.06-1.05zm-2.76 2.68a4.216 4.216 0 0 0-3.185-1.433c-.097 0-.188.02-.283.027.07-.27.11-.543.11-.822 0-.698-.236-1.345-.63-1.898.444-.714 1.26-1.214 2.176-1.37l.074-.01c.145-.02.29-.037.438-.04 1.7.02 3.076 1.18 3.076 2.606 0 .16-.03.315-.063.47-.89.406-1.526 1.336-1.713 2.468zm-7.278 2.17a3.955 3.955 0 0 0-.785-.835c.193.025.386.052.586.052.115 0 .23-.014.345-.022-.078.26-.128.527-.146.805zm-13.31-.922c0-.21-.005-.42-.034-.635a4.49 4.49 0 0 0-.942-2.22c.327.08.665.122 1.01.122.306 0 .616-.032.925-.096.118-.025.228-.064.34-.097.208.49.528.935.95 1.304-.942.28-1.737.856-2.25 1.623zm-.253-8.625c1.39-.292 2.746.313 3.23 1.384-1.165.638-1.947 1.764-1.947 3.055 0 .1.014.196.022.293-.1.03-.2.063-.303.086-.785.162-1.572.057-2.218-.3-.62-.343-1.036-.878-1.167-1.508-.276-1.33.792-2.68 2.382-3.01zm6.985-3.535c.016.09.017.185.045.274l-.063.016c.014-.097.014-.193.018-.29zm1.42 1.068c1.65 0 2.99.967 3.098 2.182-.01.097-.035.19-.035.29 0 .052.015.102.017.153-.184 1.103-1.388 1.963-2.886 2.033-.72-.783-1.793-1.297-3.013-1.346-.192-.31-.3-.634-.3-.976 0-1.287 1.4-2.335 3.118-2.335zm4.1 2.185c.185-1.208 1.488-2.15 3.083-2.15 1.72 0 3.118 1.093 3.118 2.437 0 .332-.096.647-.26.946-.97.224-1.815.753-2.377 1.498a4.423 4.423 0 0 0-2.706-.91c-.058 0-.11.014-.168.016-.42-.394-.664-.878-.708-1.387.01-.1.037-.196.037-.298 0-.052-.017-.1-.02-.152zm1.725 7.938a3.68 3.68 0 0 1-.866.108c-1.72 0-3.12-1.17-3.12-2.612 0-1.44 1.4-2.61 3.12-2.61s3.12 1.17 3.12 2.61c0 .362-.09.715-.265 1.047-.816.286-1.514.794-1.99 1.458zm-7.64.226c1.276-.342 2.283-1.204 2.703-2.312.12.884.592 1.668 1.305 2.24-.168-.02-.333-.048-.506-.048a4.26 4.26 0 0 0-2.76 1.007 3.86 3.86 0 0 0-.743-.888zm-4.307-3.443c0-1.44 1.4-2.61 3.12-2.61s3.118 1.17 3.118 2.61-1.398 2.613-3.118 2.613v.092a4.317 4.317 0 0 0-1.615-.334l.053-.11c-.96-.466-1.557-1.333-1.557-2.26zm7.19-.42a3.226 3.226 0 0 0-.24-.88c.348-.06.67-.163.98-.287a3.485 3.485 0 0 0-.74 1.168zm2.573-2.273c-.118.035-.238.065-.35.11.086-.095.164-.192.238-.293.037.062.07.125.112.184zm-7.542-.825c-.12.022-.232.062-.348.094a3.188 3.188 0 0 0-.843-1.14c.147-.015.293-.014.442-.045.192-.042.374-.105.557-.168-.005.07-.026.135-.026.206 0 .36.08.713.218 1.05zm-.764 6.884c1.258 0 2.397.702 2.877 1.75a3.61 3.61 0 0 0-.643 2.037c0 .31.05.606.125.895-.596.623-1.454.98-2.36.98-1.72 0-3.118-1.27-3.118-2.83s1.398-2.83 3.118-2.83zm6.352.956c1.72 0 3.12 1.27 3.12 2.83s-1.4 2.832-3.12 2.832c-1.72 0-3.118-1.27-3.118-2.83s1.4-2.832 3.118-2.832zm7.563-1.817c1.72 0 3.12 1.27 3.12 2.83 0 1.562-1.4 2.83-3.12 2.83-1.72 0-3.118-1.27-3.118-2.83s1.4-2.83 3.118-2.83zm6.593-8.18c.484.626.75 1.355.745 2.055-.003.652-.243 1.196-.675 1.53-.338.26-.768.367-1.248.328-.53-.822-1.408-1.44-2.466-1.7-.703-1.194-.63-2.55.194-3.185.93-.72 2.48-.283 3.45.974zm-9.185-4.508c.35-.698 1.885-.9 3.527-.075 1.432.723 2.142 1.806 2.125 2.508a2.534 2.534 0 0 0-.527.31c-.472.365-.79.874-.946 1.453-.58-.947-1.66-1.64-2.955-1.828-1.017-.762-1.532-1.758-1.224-2.367zM21.52 4.77c0 .266-.1.526-.296.774-.782.302-1.423.803-1.85 1.425-.693-1.052-2.046-1.778-3.62-1.778-.124 0-.24.02-.363.03-.064-.148-.11-.3-.11-.452 0-1.014 1.43-1.87 3.12-1.87s3.12.856 3.12 1.87zM12.5 2.223c0-.5 1.215-1.223 3.118-1.223 1.533 0 2.606.47 2.97.913-.064-.002-.124-.013-.19-.013-2.223 0-3.965 1.172-4.094 2.695-.008-.054-.008-.11-.02-.163-.21-1.014-.96-1.792-1.952-2.208h.168zm-2.55.74c1.59-.334 3.095.42 3.356 1.67.09.435.02.89-.2 1.314l.038.02c-.46.306-.834.687-1.095 1.125l-.017-.03c-.343.21-.725.36-1.133.447-1.587.33-3.096-.42-3.357-1.675-.26-1.252.82-2.54 2.41-2.873zm-6.705 2.8c.8-1.18 2.163-1.66 3.033-1.068.114.078.204.17.288.27a2.81 2.81 0 0 0-.004 1.075c.06.288.175.55.313.8-.088.364-.24.728-.463 1.06a4.144 4.144 0 0 0-1.73 1.273 2.182 2.182 0 0 0-.875-.505 2.16 2.16 0 0 0-.81-.07c-.498-.723-.398-1.887.247-2.836zM1.16 13.6c-.21-.578-.213-1.278-.013-1.97.24-.826.742-1.517 1.347-1.85.246-.134.626-.27 1.038-.15.248.07.46.227.636.453-.223.565-.306 1.175-.178 1.79.104.5.336.95.66 1.342a2.587 2.587 0 0 0-.737-.017c-.717.095-1.377.494-1.857 1.122-.048.063-.08.138-.123.205-.338-.158-.612-.473-.774-.924zm1.13 3.757c-.124-.917.08-1.803.56-2.43.322-.422.735-.677 1.195-.738a1.58 1.58 0 0 1 .216-.016c1.103 0 2.12 1.145 2.315 2.607.214 1.59-.574 3.012-1.757 3.17-1.177.164-2.32-1.035-2.528-2.593zm9.027 11.337c-.01-.846.194-2.467.476-2.675.324-.098 1.778.113 3.42.43a7.027 7.027 0 0 0-1.127 2.272c-1.747.067-2.477.016-2.77-.028zm6.99 2.156l.05-.29c.38 3.147 1.667 4.838 2.334 5.515-.525.612-1.083 1.23-1.394 1.528-.66-.59-1.25-1.654-1.726-3.104l-.02.006c.32-1.162.547-2.44.756-3.656zm-.987-.17c-.447 2.605-.95 5.54-2.286 6.508l-1.887-.888c1.304-1.412 1.414-3.048 1.52-4.636.11-1.645.238-3.343 1.652-4.993.384.083.77.166 1.142.25l.11.026.11-.024c.176-.04.358-.077.538-.115-.396.972-.638 2.347-.9 3.874zm8.063 6.51c.004.21-.035.305-.06.328-.063.064-.35.057-.522.053-.32-.007-.68-.015-.956.208-.217.172-.36.47-.54.85-.347.73-.68 1.32-1.14 1.266-1.097-.146-1.66.09-2.114.28-.36.152-.58.243-1.053.137-.178-.04-.387-.005-.88.08-.612.105-2.048.35-2.463.02-.93-.745-1.9-1.168-2.886-1.258a6.462 6.462 0 0 0-.732-.004c-.61.016-1.446.04-1.78-.283-.042-.042-.175-.17-.175-.53 0-1.073 2.132-5.217 3.695-7.987-.048.427-.08.846-.106 1.252-.116 1.723-.216 3.21-1.718 4.46l-.605.502 3.736 1.756.222-.12c.778-.42 1.328-1.233 1.75-2.235.54 1.26 1.188 2.16 1.936 2.674.1.068.183.126.295.126.312 0 .838-.453 2.484-2.41l.34-.408-.43-.316c-.02-.017-2.043-1.57-2.386-5.696.526.11 1.056.198 1.573.27 2.164 3.027 4.418 6.437 4.516 6.987zM23.27 29.21c-.527.264-2.31.09-4.58-.437.216-1.016.472-1.848.814-2.22 1.74-.328 3.373-.552 3.908-.47.236.952.204 2.95-.142 3.128zm.122-4.146l.016.03c-.832-.07-2.476.09-5.832.83-1.837-.418-4.77-1.02-5.88-.888-3.367-1.94-5.09-3.65-5.78-4.44.428-.25.8-.607 1.08-1.06.137 2 1.91 3.592 4.094 3.592 1.035 0 2.012-.38 2.77-1.023.704 1.175 2.037 1.98 3.582 1.98 2.188 0 3.965-1.6 4.094-3.603.73 1.07 2.01 1.785 3.47 1.785 1.94 0 3.564-1.26 3.996-2.945.228.29.49.538.78.73-.723.834-2.84 3.062-6.39 5.012zm9.216-6.454c-.295.504-.724.818-1.208.883-1.055.143-2.06-.925-2.245-2.313-.19-1.417.507-2.685 1.554-2.826.062-.008.125-.012.188-.012.978 0 1.88 1.02 2.056 2.326.096.71-.027 1.4-.346 1.944z"></path></svg>