<svg xmlns="http://www.w3.org/2000/svg" width="35.167" height="39.319" viewBox="0 0 35.167 39.319"><g fill="#010202"><path d="M15.753 6.05c-1.762 0-3.195 1.336-3.195 2.98 0 1.642 1.434 2.978 3.195 2.978 1.76 0 3.194-1.336 3.194-2.98 0-1.642-1.433-2.98-3.194-2.98zm0 4.958c-1.21 0-2.195-.888-2.195-1.98 0-1.09.985-1.98 2.195-1.98s2.194.89 2.194 1.98c0 1.093-.984 1.98-2.194 1.98zM9.627 7.776c.388 0 .782-.05 1.17-.147 2.04-.514 3.373-2.243 2.968-3.855-.32-1.28-1.636-2.138-3.273-2.138a4.79 4.79 0 0 0-1.165.145c-2.042.512-3.375 2.242-2.97 3.856.322 1.28 1.637 2.138 3.27 2.138zM9.57 2.752c.307-.077.617-.115.922-.115 1.17 0 2.097.555 2.304 1.38.27 1.078-.736 2.263-2.243 2.642-1.483.372-2.964-.222-3.226-1.265-.27-1.08.736-2.265 2.243-2.643zM29.948 11.2c.45 0 .88-.122 1.245-.35.537-.34.903-.878 1.06-1.56.213-.942-.006-2.023-.6-2.966-.736-1.17-1.898-1.9-3.036-1.9-.45 0-.88.122-1.244.35-1.307.822-1.512 2.854-.46 4.53.737 1.17 1.9 1.895 3.035 1.895zm-2.043-5.58c.207-.13.446-.195.712-.195.784 0 1.643.562 2.188 1.432.448.71.624 1.537.47 2.21-.065.293-.226.69-.615.936-.817.512-2.17-.07-2.9-1.23-.746-1.19-.68-2.633.145-3.152zM22.18 5.484c.512.367 1.107.57 1.677.57.647 0 1.208-.266 1.54-.728.324-.452.4-1.054.21-1.652-.177-.555-.563-1.068-1.09-1.445-1.09-.786-2.593-.712-3.216.157-.265.37-.366.844-.286 1.335.11.668.535 1.31 1.166 1.762zm-.067-2.514c.194-.27.54-.312.728-.312.363 0 .75.136 1.095.382.347.25.61.59.72.937.055.173.12.502-.07.765-.194.27-.54.312-.728.312-.362 0-.75-.136-1.095-.383-.41-.293-.695-.71-.762-1.11-.025-.162-.027-.394.113-.59z"></path><path d="M19.45 7.028l.01.84-.352.8.646.647.31.766.922.13.698.358c-.085-.007-.167-.026-.253-.026-1.623 0-2.944 1.336-2.944 2.98s1.32 2.978 2.945 2.978c1.624 0 2.945-1.336 2.945-2.98a2.963 2.963 0 0 0-2.555-2.94l.726-.37.922-.13.31-.766.647-.646-.35-.8.01-.84-.84-.404-.58-.61-.9.146-.895-.147-.58.61-.84.405zm3.925 6.493c0 1.092-.872 1.98-1.944 1.98-1.07 0-1.944-.888-1.944-1.98s.873-1.978 1.945-1.978c1.073 0 1.945.888 1.945 1.98zm-2.917-5.867l.347-.167.426-.4.537.087.536-.088.28.294.493.272-.006.42.164.374L23 8.68l-.242.49-.435.062-.557.254-.4-.204-.59-.112-.133-.326-.344-.4.163-.372-.005-.42zM14.475 3.68l.42.818 1.24.136 1.03.417 1.032-.416 1.24-.136.42-.817.938-.735-.513-.927.016-.933-1.17-.446-.774-.64-1.188.154L15.978 0l-.773.64-1.172.445.018.933-.515.928.94.735zm.57-1.91l.592-.226.642-.496.885.115.886-.115.502.414.732.308-.01.5.232.416-.353.277-.36.602-.776.085-.853.325-.72-.29-.907-.12-.226-.437-.488-.44.232-.417-.008-.5z"></path><path d="M33.25 17.387a3.168 3.168 0 0 0 .825-2.157c0-.636-.18-1.223-.48-1.707.43-.71.686-1.86.413-2.83-.23-.814-.782-1.377-1.6-1.63l-.295.957c.49.15.796.46.932.943.163.58.036 1.283-.17 1.77-.41-.302-.9-.483-1.425-.483-.68 0-1.294.302-1.76.785l.005-.445-.86-.482-.625-.76-.97.18-.97-.18-.624.76-.86.482.012.988-.348.923.643.75.327.93.972.16.85.504.847-.505.89-.146c.227.75.707 1.364 1.33 1.708l-2.34 1.65.288.41.15.478c.272-.084.32-.017.336.01.336.48-.05 2.15-.412 3.205-.33-.69-.86-1.533-1.617-1.935a1.972 1.972 0 0 0-1.575-.14l.15.476-.287-.41-4.095 2.89c-1.21.34-4.415.96-5.794.047l-4.292-3.29c.287.013.563.05.796.15l.39-.922c-1.242-.523-3.218-.114-4.35.61.074-.598.276-1.418.7-2.055.35-.527.78-.82 1.28-.867l-.096-.995c-.953.092-1.64.696-2.113 1.482l-1.75-1.338.414-.48-.377-.997.012-1.07-.93-.52-.676-.826-1.05.198-1.013-.192c-.004-.166.03-.34.083-.522.034 0 .066.01.1.01.683 0 1.382-.26 1.99-.712.213 1.86 1.89 3.32 3.945 3.32 1.43 0 2.674-.71 3.378-1.763l.01.908-.327.866.603.7.305.874.913.148.796.473.794-.47.912-.148.306-.873.603-.703-.326-.865.012-.925-.807-.452-.586-.715-.91.173-.907-.173-.585.715-.79.443c.368-.562.592-1.215.592-1.92 0-2.045-1.788-3.71-3.986-3.71-.93 0-1.773.31-2.452.808-.08-.428-.256-.823-.563-1.133-.955-.966-2.846-.758-4.058.44C.407 8.957.005 9.847 0 10.707c-.003.63.22 1.203.624 1.61.157.16.345.282.546.384-.12.423-.216 1.032.11 1.63l-.86.48.014 1.07-.377.997.696.81.353 1.008 1.053.17.26.155c-.45.683-.467 1.37-.474 1.922-.003.288-.007.537-.07.72-.163.462.038.69.172.783a.53.53 0 0 0 .314.11c.317 0 .697-.31 1.408-.886.755-.613 2.512-2.03 3.148-1.825-.12.38-.206.767-.252 1.138-.16 1.26.133 1.534.405 1.633.06.02.123.033.19.033.177 0 .376-.086.53-.325.188-.295.848-.647 1.613-.858l3.856 2.955c-1.014.255-1.73 1.063-2.342 1.767-.567.654-1.103 1.273-1.74 1.32l-.367.027-.57 2.43.203.196c.273.267.564.375.863.375.692 0 1.43-.577 2.108-1.108-.342 1.066-.94 1.627-2.65 1.36l-1.07-.167.567.922c.358.582 1.05 1.57 1.677 1.66.424.062.813.09 1.178.093l-2.21 4.634.53.182c.19.064 3.594 1.205 8.45 1.205 1.66 0 3.487-.134 5.413-.488l-.09-.492.126.484c1.245-.324 3.468-1.452 3.87-2.286a.718.718 0 0 0 .027-.615c-.335-.753-5.02-7.58-5.555-8.356l-.024-.035c.006-.568.012-1.684-.01-2.287l3.853-2.72a.98.98 0 0 1 .754.078c.78.414 1.343 1.732 1.532 2.37l.455.39.06.003c.347 0 .523-.33.6-.475.335-.624 1.56-3.944.61-5.09-.015-.02-.042-.04-.062-.06l.34-.24-.013.075c2.015.34 4.18 1.014 4.458 1.385l.6.807.28-.966c.35-1.21-.944-2.606-1.857-3.413zM12.564 14.37l.37-.21.412-.447.51.097.512-.097.268.328.513.328-.006.52.184.487-.277.323-.234.562-.42.068-.54.28-.366-.216-.594-.132-.14-.4-.37-.484.183-.486-.007-.52zM8.178 9.15c1.646 0 2.986 1.214 2.986 2.708s-1.34 2.71-2.986 2.71-2.986-1.216-2.986-2.71c0-.33.075-.645.196-.938.037-.07.066-.14.097-.212.478-.918 1.5-1.56 2.693-1.56zm-6.37-.175c.502-.496 1.15-.792 1.735-.792.26 0 .63.06.91.343.402.407.42 1.102.123 1.768-.036.072-.072.144-.104.218-.128.23-.292.452-.495.652-.5.497-1.15.793-1.735.793-.26 0-.628-.06-.91-.344-.276-.28-.333-.646-.332-.903.002-.587.305-1.236.81-1.735zm.045 8.827l-.187-.535-.463-.592.234-.62-.008-.663.494-.276.502-.56.65.123.65-.124.36.44.637.397-.007.663.233.618-.372.432-.28.696-.56.09-.168.09-.014-.022c-.06.038-.105.077-.162.116l-.32.17-.486-.29-.735-.154zm1.287 3.09l-.196.16v-.097c.01-.73.027-1.42 1.065-2.094l1.036-.166.155-.446.92.703c-.87.29-1.88 1.05-2.98 1.943zm17.508 4.742c.01.536.006 1.3 0 1.924-1.433.533-3.91.537-5.317.008v-1.783c1.712.57 4.18.117 5.318-.15zm-11.276 3.89l.253-1.078c.85-.215 1.458-.92 2.05-1.603.787-.908 1.482-1.69 2.657-1.456v1.72c-.024.016-.04.04-.062.056-1.32-.192-2.537.745-3.465 1.473-.642.504-1.126.863-1.433.887zm.734 2.7c-.083-.034-.23-.177-.4-.377 2.29-.105 2.69-1.972 2.95-3.3.402-.24.78-.39 1.147-.415a9.23 9.23 0 0 0-.08.958c-.036.99-.078 2.113-.8 2.715-.557.465-1.515.6-2.817.418zM26.24 36.19c-.36.423-1.928 1.34-3.146 1.662-6.028 1.102-11.162-.07-12.795-.523l1.982-4.16c.502-.116.935-.308 1.282-.598 1.064-.887 1.12-2.366 1.16-3.446.008-.215.018-.483.04-.714 1.635.706 4.584.733 6.32.063 1.876 2.736 4.636 6.812 5.157 7.716zm2.075-20.9l-.48.077-.593.313-.418-.25-.656-.14-.16-.46-.41-.53.205-.545-.007-.582.424-.237.452-.496.572.107.57-.107.31.376.567.357-.006.583.206.545-.318.372-.257.617zm1.59-.64l.127-.148-.044-.118c.26-.667.816-1.133 1.462-1.133.896 0 1.625.89 1.625 1.98 0 1.092-.73 1.98-1.625 1.98s-1.625-.89-1.625-1.98c0-.204.033-.396.08-.58zm.924 4.11l.81-.57a2.35 2.35 0 0 0 .78-.196c.608.518 1.186 1.122 1.5 1.654-.95-.4-2.238-.71-3.09-.888z"></path><path d="M21.794 20.706l.834.552c.376-.568 1.294-1.137 1.966-1.216.224-.028.33.013.355.037.333.312.604.213.735.126l.188-.637c-.19-.516-1.762-2.407-3.606-2.176l.124.992c.67-.083 1.33.3 1.81.71-.904.204-1.917.87-2.406 1.61zM16.653 20.312c-1.258-1.29-3.205-1.616-3.808-1.146a.59.59 0 0 0-.147.79c.212.347.456.593.69.83.404.41.786.793 1.104 1.754l.95-.314c-.393-1.183-.92-1.715-1.342-2.143L14.018 20c.535.094 1.3.375 1.92 1.01l.715-.698zM19.377 21.546l.07.242c.178.61.362 1.243.362 1.598h1c0-.498-.196-1.168-.403-1.878-.133-.457-.27-.93-.347-1.332l-.324-1.714-.633 1.625c-.196.502-.574.928-.94 1.338-.565.636-1.15 1.292-.83 2.137l.935-.354c-.1-.265.18-.598.643-1.12.153-.17.313-.348.467-.542z"></path></g></svg>