<svg xmlns="http://www.w3.org/2000/svg" width="26.66" height="43.344" viewBox="0 0 26.66 43.344"><path d="M24.678 8.77l1.982-1.16-2.285.23c-1.677.17-3.666.657-5.632 1.788.917-2.814 3.137-6.723 4.595-8.267L24.625 0 22.83.54c-2.43.732-5.092 2.805-7.076 5.036-.282-2.67-1.304-4.54-2.424-5.415-1.12.875-2.142 2.746-2.424 5.416C8.922 3.344 6.26 1.27 3.83.54L2.037 0l1.286 1.362C4.78 2.907 7 6.815 7.917 9.63 5.95 8.497 3.96 8.01 2.285 7.84L0 7.612l1.982 1.16c3.477 2.033 5.71 5.557 6.397 7.29-.737-.15-1.51-.236-2.305-.233l-1.898.026 1.665.912c1.47.804 2.218 1.7 2.613 2.455-3.5 1.63-5.58 5.86-5.58 11.456 0 6.122 2.728 12.664 10.382 12.664 6.66 0 9.732-4.954 10.38-10.273l.018-.03-.01-.005c.093-.782.14-1.572.14-2.355 0-2.38-.382-4.507-1.083-6.3 0-.03.007-.064.004-.093l-.04.003c-.948-2.377-2.475-4.14-4.46-5.066.393-.756 1.143-1.65 2.612-2.455l1.665-.913-1.898-.027a11.27 11.27 0 0 0-2.305.236c.685-1.733 2.92-5.26 6.398-7.295zm-3.296-6.53c-1.593 2.31-3.38 5.85-3.897 8.214-.61.45-1.21.966-1.792 1.57a11.32 11.32 0 0 0-1.254-2.927c1.298-2.373 4.148-5.342 6.942-6.857zm-8.768 26c-1.133 1-2.383 1.932-3.7 2.737-1.24-1.29-2.237-2.57-2.915-3.715a31.315 31.315 0 0 0 3.51-2.76c.81 1.27 1.863 2.542 3.104 3.74zm-3.65-7.356l.004.005c.375.532.9.86 1.558 1.066-.22.295-.49.61-.803.938-.353-.69-.612-1.363-.76-2.01zm4.397 8.04a27.14 27.14 0 0 0 3.72 2.786 30.494 30.494 0 0 1-3.72 3.065 30.575 30.575 0 0 1-3.72-3.065 27.17 27.17 0 0 0 3.72-2.786zm-.913 6.454a24.618 24.618 0 0 1-4 2.1c-1.498-1.158-2.753-2.383-3.593-3.473a22.28 22.28 0 0 0 3.865-1.75 30.705 30.705 0 0 0 3.727 3.123zm.914.626a26.65 26.65 0 0 0 3.97 2.173c-1.23.87-2.58 1.665-3.97 2.296a24.675 24.675 0 0 1-3.968-2.296 26.6 26.6 0 0 0 3.97-2.173zm.915-.626a30.788 30.788 0 0 0 3.728-3.123 22.37 22.37 0 0 0 3.866 1.75c-.84 1.09-2.096 2.314-3.593 3.473a24.51 24.51 0 0 1-4.002-2.1zm3.533-4.4a26.735 26.735 0 0 1-3.7-2.737c1.242-1.196 2.294-2.468 3.105-3.738a31.43 31.43 0 0 0 3.51 2.76c-.678 1.143-1.673 2.424-2.915 3.715zM17 22.893a9.994 9.994 0 0 1-.815-.955c.634-.207 1.14-.53 1.508-1.05l.08-.112c-.14.68-.4 1.39-.773 2.116zm-.513.91c-.787 1.265-1.86 2.55-3.126 3.758-1.264-1.21-2.338-2.493-3.125-3.76.56-.567 1.035-1.123 1.36-1.63.52.063 1.09.09 1.728.09v-.07l.015.07c.662 0 1.252-.03 1.786-.097.324.51.8 1.067 1.363 1.638zm-3.258-2.545a14.68 14.68 0 0 1-1.383-.062c.126-1.21.845-3.17 1.483-4.274.64 1.104 1.357 3.064 1.483 4.274-.392.04-1.028.06-1.584.06zm.1-6.066a17.16 17.16 0 0 0-1.584-2.302l.07.005c.077-.972.863-2.82 1.514-3.667.65.848 1.437 2.695 1.515 3.667l.07-.005a17.1 17.1 0 0 0-1.585 2.302zm0-13.88c.834.92 1.356 2.754 1.515 5.36a16.03 16.03 0 0 0-1.074 1.56c-.017-.016-.036-.042-.053-.058l-.387.44-.386-.44c-.018.015-.037.042-.054.058a16.097 16.097 0 0 0-1.074-1.56c.158-2.607.68-4.44 1.515-5.36zm-8.05.927c2.79 1.515 5.64 4.484 6.942 6.857a11.29 11.29 0 0 0-1.254 2.926 14.027 14.027 0 0 0-1.792-1.57C8.66 8.09 6.873 4.552 5.28 2.242zm-.89 7.002c2.792.756 5.975 2.603 8.295 6.823-.26.393-.538.938-.798 1.537-.646-.524-1.46-.94-2.366-1.24-.375-1.55-2.25-4.75-5.13-7.12zm3.504 7.724c1.47.248 2.742.833 3.59 1.64-.304.847-.54 1.71-.627 2.413-.45-.135-.767-.33-.993-.604-.074-.733-.432-2.123-1.97-3.45zm.016 3.716c.156.94.532 1.93 1.078 2.936a30.472 30.472 0 0 1-3.46 2.76c-.36-.765-.552-1.44-.514-1.958.686-1.615 1.668-2.89 2.896-3.738zm-3.514 5.59c.084.22.163.436.273.666-.168.103-.33.2-.483.288.06-.326.13-.644.21-.954zm-.412 6.365a19.094 19.094 0 0 1-.107-1.958c0-.775.046-1.516.126-2.23.33-.158.714-.372 1.144-.636.686 1.172 1.655 2.438 2.842 3.697a20.75 20.75 0 0 1-3.733 1.635 5.342 5.342 0 0 1-.273-.508zm.433 2.42c.77.92 1.774 1.897 2.936 2.842-.528.18-1.06.334-1.594.462-.64-1.053-1.062-2.2-1.343-3.305zM6.36 39.23a19.553 19.553 0 0 0 1.916-.613c1.178.876 2.48 1.69 3.836 2.374-.82.307-1.645.55-2.456.702A7.724 7.724 0 0 1 6.36 39.23zm6.897 3.114c-.587 0-1.13-.047-1.647-.124a18.71 18.71 0 0 0 1.75-.647 18.76 18.76 0 0 0 1.727.64c-.527.08-1.228.13-1.83.13zm3.77-.662a14.8 14.8 0 0 1-2.42-.692 26.415 26.415 0 0 0 3.837-2.374c.618.23 1.24.432 1.867.598a7.703 7.703 0 0 1-3.284 2.468zm3.883-3.336a17.526 17.526 0 0 1-1.54-.448c1.12-.91 2.088-1.853 2.848-2.743-.28 1.07-.693 2.174-1.308 3.19zm1.874-7.667c0 .513-.024 1.246-.12 2.097-.062.12-.123.24-.2.37-1.25-.4-2.508-.958-3.73-1.635 1.186-1.26 2.155-2.524 2.84-3.697.402.247.764.45 1.08.605.083.722.13 1.474.13 2.26zm-.497-4.312c.066.268.126.54.18.82a18.35 18.35 0 0 1-.414-.25c.094-.197.16-.38.234-.57zm-3.48-5.644c1.234.872 2.217 2.174 2.895 3.824.005.5-.172 1.123-.505 1.83a30.494 30.494 0 0 1-3.46-2.76c.535-.99.91-1.968 1.07-2.894zm-1.03.022l.005-.116c.007-.122.032-.287.072-.468l.012.005a5.82 5.82 0 0 1-.09.58zm.99-3.78c-1.538 1.328-1.896 2.717-1.97 3.45-.227.275-.545.47-.994.603-.087-.703-.323-1.568-.628-2.414.85-.808 2.12-1.392 3.592-1.64zm-1.626-.6c-.905.3-1.72.714-2.366 1.236-.26-.6-.538-1.145-.8-1.538 2.323-4.22 5.504-6.067 8.297-6.823-2.883 2.372-4.757 5.576-5.13 7.126z"></path></svg>