<svg xmlns="http://www.w3.org/2000/svg" width="33.238" height="41.708" viewBox="0 0 33.238 41.708"><path d="M7.915 37.535l-2.512-9.94.97-.244 2.512 9.94zM11.247 38.394l-1.103-9.47.994-.116 1.102 9.47zM15.873 29.474h1v9.47h-1zM21.612 38.99l-.995-.093.906-9.836.996.093zM25.673 37.83l-.984-.178 1.71-9.48.984.178zM12.63 5.83l-.963-.27c-.322 1.15-2.126 1.184-3.187.934l-.23.973c.44.103.893.158 1.335.158 1.404 0 2.697-.545 3.045-1.796z"></path><path d="M33.198 20.613c-.182-1.336-1.004-2.562-2.136-3.225.207-1.35-.16-2.694-1.07-3.905-1.182-1.573-2.975-2.53-4.32-2.76-.255-2.6-1.612-5.197-3.322-6.293-.98-.627-2.024-.75-3.023-.35l-.39.154.085.41c.148.714.133 1.19-.045 1.46-.265.398-1.04.552-2.114.764l-.158.03c-.902-2.296-3.054-3.74-5.718-3.74-.49 0-.984.06-1.476.16C7.778.176 5-.725 1.06.575l.313.95c3.385-1.117 5.652-.48 7.15 2.064-3.09 1.09-4.833 4.025-4.102 7.125.077.326.185.636.307.938-.622.222-1.203.676-1.63 1.3-.713 1.042-.925 2.417-.6 3.828C1.08 17.46.165 18.59.02 19.864c-.142 1.264.49 2.495 1.73 3.413.18.854.876 3.408 1.68 6.354.876 3.208 1.782 6.525 1.968 7.48.875 4.468 10.654 4.597 11.767 4.597 6.682 0 10.686-1.662 11.58-4.808.297-1.06 2.727-11.242 3.054-12.617 1.088-.982 1.588-2.277 1.398-3.67zM19.81 6.656c.29-.436.377-.99.27-1.764.573-.12 1.153.01 1.73.38 1.478.946 2.682 3.36 2.87 5.69-1.645 1.533-4.676 1.978-8.242 1.216a6.422 6.422 0 0 0 .565-4.318l.055-.01c1.31-.26 2.257-.447 2.753-1.194zM8.99 4.506c.124.277.243.564.355.875l.94-.337c-.098-.276-.203-.54-.312-.792.34-.055.68-.093 1.015-.093 2.502 0 4.474 1.502 5.022 3.828a5.462 5.462 0 0 1-5.312 6.707 5.432 5.432 0 0 1-5.306-4.206c-.63-2.668.88-5.09 3.598-5.98zm-5.07 9.012c.338-.494.794-.826 1.26-.952a6.415 6.415 0 0 0 5.518 3.126 6.422 6.422 0 0 0 5.176-2.605c1.33.308 2.602.464 3.78.464 2.405 0 4.41-.64 5.714-1.856 1.115.135 2.764.977 3.826 2.39.542.72 1.106 1.862.852 3.266-4.37 2.675-18.472 4.238-26.522-.608-.444-1.632.048-2.72.396-3.226zm23.86 23.11c-.958 3.372-6.302 4.08-10.617 4.08-3.474 0-10.198-.792-10.785-3.79-.194-.99-1.104-4.326-1.984-7.55-.28-1.026-.563-2.064-.816-3 .68.41 1.505.392 2.366-.1.62 1.606 1.79 1.867 2.48 1.867.873 0 1.73-.38 2.408-.793.6 1.086 1.74 1.76 3.05 1.76.994 0 1.9-.41 2.514-1.107.654.824 1.7 1.34 2.807 1.34 1.177 0 2.15-.57 2.694-1.534.574.534 1.266.82 2.006.82 1.187 0 2.258-.724 2.862-1.888.705.46 1.336.687 1.917.687.575 0 1.06-.214 1.47-.555-.84 3.522-2.164 9.026-2.372 9.763zm.903-10.21c-.49 0-1.087-.277-1.826-.85l-.555-.43-.225.665c-.374 1.104-1.227 1.817-2.173 1.817-.665 0-1.286-.37-1.748-1.045l-.615-.897-.28 1.05c-.268 1.007-1.037 1.607-2.057 1.607-1.013 0-1.948-.587-2.326-1.462l-.43-.996-.478.974c-.386.785-1.166 1.252-2.088 1.252-.832 0-1.95-.435-2.36-1.663l-.215-.645-.55.396c-.846.61-1.675.945-2.334.945-.87 0-1.432-.582-1.714-1.78l-.183-.77-.617.495c-.48.384-.912.578-1.282.578-1.06 0-1.672-1.748-1.942-2.79l-.464.096.263-.384c-1.057-.723-1.58-1.648-1.47-2.604.11-.964.874-1.828 2.053-2.35 3.963 2.367 9.193 3.278 14.13 3.278 5.59 0 10.786-1.16 13.302-2.66a3.452 3.452 0 0 1 1.71 2.504c.15 1.098-.272 2.126-1.184 2.894l.277.33-.42-.133c-.927 2.31-1.7 2.58-2.2 2.58z"></path></svg>