<svg xmlns="http://www.w3.org/2000/svg" width="43.052" height="41.217" viewBox="0 0 43.052 41.217"><path d="M42.68 19.96c.94-1.626.04-4.04-2.004-5.383-.32-.21-.652-.37-.986-.506.533-1.587-.365-3.67-2.21-4.888a5.213 5.213 0 0 0-2.41-.853c.012-.094.042-.184.042-.278 0-1.76-1.928-3.14-4.39-3.14-.902 0-1.768.206-2.497.568-.468-.99-1.604-1.755-3.062-2.018V2.006C25.163.9 24.306 0 23.253 0s-1.91.9-1.91 2.006v2.032c-.763.434-1.302 1.036-1.53 1.71-.66-.96-2.01-1.656-3.65-1.736-1.35-.058-2.62.323-3.436 1.027-.983-.53-2.4-.532-3.8.02-2.21.862-3.555 2.743-3.066 4.282.164.51.535.91 1.03 1.196-.986-.142-2.183.29-3.202 1.2-1.61 1.444-2.19 3.513-1.315 4.71.243.334.576.567.975.697l-.495.47-1.482.79-.405 1.452L0 21.327l.68 1.105.094 1.516 1.56.155.424.266a4.033 4.033 0 0 0-.8 2.4c0 2.05 1.522 3.73 3.473 3.977.153 1.314.486 3.995.89 5.933.88 4.21 13.248 4.536 17.017 4.536 3.776 0 13.808 0 15.25-4.76.354-1.17.58-3.218.71-4.808l.266-.035.568-1.32 1.17-1.106-.637-1.362.022-1.43-.08-.036 1.483-.35-.05-1.47.57-1.172-1.104-1.298-.362-.9c.66-.226 1.204-.632 1.54-1.21zm-3.95-6.176c-1.032-.198-2.02-.042-2.753.475-.508-1.216-1.73-2.15-3.25-2.41-.163-.612-.123-1.19.138-1.644.245-.424.658-.716 1.196-.843.863-.206 1.937.04 2.87.654 1.487.98 2.23 2.6 1.8 3.767zm-6.514 14.042l-.04.086-.542-.248-1.068-1.06-1.65.253-.212-.033-.435-.922-.81-.754.41-.804-.015-.896.998-.417.922-.795 1.314.185 1.313-.185.78.705 1.14.507-.014.897.26.51-.847.844-1.528.697.02 1.43zm-3.61 5.41l-.766-.37-1.355-.205-.384-.89-.832-.845.427-.918L25.68 29l1.014-.463.918-.87 1.303.202 1.303-.202.774.77 1.158.56-.015 1.01.427.917-.72.68-.498 1.056-1.202.16-.76.35c-.262.025-.52.046-.776.066zm-19.8-22.43c.52-.237 1.06-.362 1.562-.362.79 0 1.373.305 1.563.816.338.91-.566 2.215-1.974 2.854-1.342.61-2.813.383-3.124-.458-.338-.906.566-2.212 1.974-2.85zm4.273-1.86c.698.5 1.64.833 2.71.91-1.156.056-2.18.487-2.9 1.152-.01-.03-.01-.064-.022-.095-.16-.43-.458-.77-.845-1.018a5.444 5.444 0 0 0 1.056-.948zm7.236-.632c.354 0 .696.052 1.028.132v3.98c-.38.094-.776.135-1.174.133-.317-1.242-1.473-2.225-2.958-2.576.365-.957 1.642-1.67 3.104-1.67zM19.01 29.798a3.347 3.347 0 0 1-1.966-.64c.022-.183.055-.362.055-.55a4.54 4.54 0 0 0-1.405-3.282c.414-1.525 1.75-2.582 3.314-2.582 1.9 0 3.448 1.582 3.448 3.525 0 1.945-1.547 3.528-3.45 3.528zM9.2 28.608c0-1.945 1.547-3.526 3.448-3.526 1.902 0 3.45 1.582 3.45 3.525 0 1.945-1.548 3.527-3.45 3.527-1.9 0-3.448-1.582-3.448-3.527zm2.693-11.145c1.633 0 2.96 1.358 2.96 3.027 0 1.67-1.328 3.03-2.96 3.03s-2.96-1.36-2.96-3.03c0-1.67 1.327-3.027 2.96-3.027zm9.45 3.84c-.068.32-.21.624-.413.904a4.328 4.328 0 0 0-1.923-.463c-1.112 0-2.13.418-2.915 1.112a2.894 2.894 0 0 1-.646-.62c.252-.53.406-1.12.406-1.747 0-.448-.09-.87-.222-1.272.608-.658 1.548-1.054 2.542-1.054 1.605 0 2.928.986 3.167 2.268v.87zm-7.85 2.866a3.967 3.967 0 0 0 1.39-1.065c.163.18.344.344.543.495-.24.333-.436.7-.58 1.098a4.332 4.332 0 0 0-1.352-.53zm2.547-13.336c1.773 0 3.216 1.085 3.216 2.42 0 1.334-1.443 2.42-3.216 2.42s-3.216-1.086-3.216-2.42c0-1.335 1.443-2.42 3.216-2.42zm-8.496 4.542c.262.064.544.1.846.1a4.83 4.83 0 0 0 1.976-.453 5.197 5.197 0 0 0 1.546-1.076c.397 1.554 2.096 2.725 4.128 2.725 2.19 0 3.974-1.365 4.176-3.1.384 0 .76-.05 1.126-.123v4.99c-.773-.775-1.9-1.276-3.167-1.276-1.144 0-2.192.41-2.98 1.108-.71-1.09-1.923-1.81-3.302-1.81-1.235 0-2.326.588-3.053 1.492l-1.014-.59-.667-1.173-.627.15c.137-.1.277-.195.41-.312.22-.194.412-.422.603-.652zm.544 6.173c.383 1.42 1.5 2.528 2.92 2.86a4.42 4.42 0 0 0-1.4.91 3.95 3.95 0 0 0-2.674-2.43l.43-.682.724-.66zm.32 8.35c.267.906.798 1.687 1.513 2.257-1.48-.39-2.585-.875-3.156-1.456a3.9 3.9 0 0 0 1.642-.8zm8.393.292a4.324 4.324 0 0 0 2.207.605c.86 0 1.654-.26 2.335-.69v3.308c-2.57-.057-5.113-.225-7.36-.51a4.48 4.48 0 0 0 2.818-2.713zm5.475-.876a4.54 4.54 0 0 0 1.18-3.047 4.543 4.543 0 0 0-1.236-3.115h.122v-1.8c.003-.018.003-.038.005-.057l.804.695.57 1.204.438.054v7.68l-.105.226.105.1v2.178a66.558 66.558 0 0 1-1.818-.002v-4.116h-.066zM23.6 19.013l.997-.413.924-.797 1.315.184 1.314-.184.778.706 1.14.503-.014.9.41.802-.606.522-.41-.058-1.062.96-1.544.645.002.146-.01.006-1.09-.48-1.352-.186-.38-.802-.808-.754.41-.804-.014-.897zm8.047-7.58c.01.12.02.236.042.357-1.517.048-2.83.744-3.572 1.773-1.13.046-2.285-.318-2.956-.943v-2.36c.64-.604 1.673-.966 2.803-.966 1.837 0 3.39.98 3.39 2.14h.292zm.207 6.755c-1.87 0-3.39-1.214-3.39-2.707 0-1.49 1.52-2.704 3.39-2.704 1.868 0 3.388 1.213 3.388 2.705 0 1.493-1.52 2.708-3.388 2.708zm-6.692-4.33c.69.41 1.547.638 2.462.688-.094.3-.16.61-.16.935 0 .483.12.942.318 1.365l-.947.133-1.64-.23-.033.03v-2.92zm0 9.515l.247.03 1.427.628.026-.01v.092l-.652 1.282 1.198 1.032.102.215-.245-.037-1.068 1.06-1.035.473v-4.763zm0 8.83l.062.058.49 1.137-.552.017v-1.21zm7.444.058l.703-.664.007.018 1.686.22.462.224c-.917.307-1.977.544-3.086.73l.226-.527zm.743-10.863l.24.564-.863-.78-1.518.214.502-.434-.654-1.28.01-.56c.255.04.517.067.786.067 1.288 0 2.437-.48 3.24-1.23.204.527.524 1.03.924 1.486l-1.006-.1-.542 1.217-1.12.837zM30.72 5.912c1.837 0 3.39.98 3.39 2.14 0 .106-.022.21-.047.312-.077.013-.16.008-.235.026-.812.192-1.445.648-1.83 1.317-.056.095-.087.2-.13.3-.716-1.02-2.17-1.714-3.905-1.714-.112 0-.217.022-.328.028.516-.517.828-1.144.828-1.826l-.002-.015c.626-.364 1.42-.568 2.26-.568zm-3.257.582c0 .91-.962 1.728-2.303 2.022v-4.04c1.338.294 2.303 1.112 2.303 2.018zM23.253 1c.5 0 .91.45.91 1.006v15.68l-.03.024-1.545.64.023 1.33-.266.522V2.006c0-.555.408-1.006.91-1.006zm-1.91 4.26v2.164a5.403 5.403 0 0 0-.57-.076l.146-.09c-.154-.246-.23-.502-.23-.764 0-.44.244-.87.654-1.233zm-5.23-.25c1.745.085 3.184 1.043 3.142 2.092a1.195 1.195 0 0 1-.083.347c-1.023.22-1.888.723-2.437 1.404v-.002a4.946 4.946 0 0 1-.763.02c-1.744-.085-3.183-1.042-3.142-2.088.017-.426.278-.752.494-.95.62-.57 1.664-.874 2.79-.823zm-6.82.98c1.028-.404 2.053-.435 2.77-.137-.14.28-.22.58-.233.89-.02.547.18 1.058.525 1.51-.38.467-.91.89-1.543 1.203l.02.042c-.153-.02-.3-.054-.464-.054-.642 0-1.325.156-1.975.45-.044.02-.08.046-.123.067-.765-.088-1.296-.422-1.456-.922-.32-1.002.815-2.398 2.48-3.047zm-4.938 6.493c.648-.58 1.402-.924 2.03-.97-.567.8-.785 1.7-.492 2.49.14.378.4.675.72.916-.113.122-.215.255-.338.364-.752.672-1.653 1.04-2.342.972-.333-.035-.586-.17-.753-.397-.555-.762-.017-2.31 1.175-3.377zM1.72 23.037l-.06-.916-.476-.775.658-1.004.375-1.253 1.165-.622 1.08-.998 1.096.138 1.104-.265.428.754.75.436-.317 1.04.097 1.053-.98.89-.78 1.204-.256.056a3.873 3.873 0 0 0-2.14.86l-.8-.502-.945-.093zm1.238 3.733c0-.92.413-1.737 1.048-2.293l.967-.54.837-.184c.037 0 .07-.01.107-.01 1.455 0 2.683 1.062 2.92 2.526l.024-.005a4.534 4.534 0 0 0-.66 2.343c0 .026.006.05.007.077a2.923 2.923 0 0 1-2.29 1.113c-1.63 0-2.96-1.36-2.96-3.028zm34.67 9.396c-1.226 4.05-11.06 4.05-14.29 4.05-7.594 0-15.498-1.156-16.04-3.74-.296-1.425-.555-3.27-.73-4.654 3.323 2.334 12.525 2.62 16.77 2.62 1.227 0 3.076-.036 5.082-.185l.495.24.706-.342c3.328-.32 6.838-.99 8.59-2.363l.072-.01c-.128 1.504-.34 3.346-.653 4.384zm1.74-6.527l-.5 1.056-1.2.158-1.23.564-1.074-.52-1.354-.202-.384-.892-.48-.508.014-.936-.074-.034.133-.287-.017-1.006 1.015-.463.918-.87 1.303.202 1.303-.2.773.768 1.16.563-.016 1.007.428.917-.72.682zm1.693-4.415l-.83.195-.653.47-.42-.192-1.067-1.063-1.65.254-.793-.123-.334-.657.02-1.326-.428-.18.042-.017-.37-.862.7-.522.355-.795 1.132.11 1.07-.28 1.045.752 1.318.504.41 1.02.816 1-.393.808.03.903zm.754-5.766c-.322.556-.93.88-1.71.91v.03l-.697-.258-1.37-.986-.696.18c-.79-.65-1.34-1.515-1.482-2.356a3.19 3.19 0 0 0 .383-1.5c0-.04-.01-.076-.013-.115.775-.93 2.444-.912 3.898.046 1.583 1.04 2.356 2.894 1.69 4.05z"></path></svg>