<svg xmlns="http://www.w3.org/2000/svg" width="30.859" height="42.025" viewBox="0 0 30.859 42.025"><path d="M4.536 2.842c-1.063.542-1.77 1.705-1.803 2.96-.032 1.214.577 2.272 1.67 2.904l.5-.866c-1.05-.606-1.184-1.52-1.17-2.01.022-.883.528-1.726 1.257-2.098.71-.362 1.53-.25 2.366.325l.565-.825c-1.14-.783-2.343-.922-3.384-.39zM11.82 9.767c.936 0 1.696-.76 1.696-1.694a1.696 1.696 0 0 0-3.39 0c0 .934.76 1.694 1.695 1.694zm0-2.39c.384 0 .696.313.696.695a.696.696 0 0 1-1.39 0c0-.382.312-.694.695-.694zM7.788 29.68c-2.36 0-4.282 2.187-4.282 4.877s1.92 4.88 4.282 4.88 4.284-2.19 4.284-4.88-1.922-4.878-4.284-4.878zm0 8.757c-1.81 0-3.282-1.74-3.282-3.88 0-2.138 1.472-3.878 3.282-3.878s3.284 1.74 3.284 3.877c0 2.14-1.473 3.88-3.284 3.88zM25.868 3.732c.73.372 1.235 1.215 1.26 2.097.012.49-.123 1.404-1.17 2.01l.5.865c1.092-.63 1.7-1.69 1.67-2.902-.034-1.257-.742-2.42-1.805-2.962-1.04-.53-2.244-.39-3.386.39l.565.826c.838-.573 1.657-.685 2.366-.324zM19.038 9.767c.935 0 1.695-.76 1.695-1.694s-.76-1.694-1.695-1.694c-.934 0-1.694.76-1.694 1.693s.76 1.694 1.694 1.694zm0-2.39c.383 0 .695.313.695.695s-.312.694-.695.694a.695.695 0 0 1 0-1.388zM14.954 18.317v.015h.95v-.015c1.302-.072 2.29-.502 3.27-2.063l-.85-.53c-.743 1.187-1.38 1.522-2.37 1.592V15.62a2.302 2.302 0 0 0 1.52-1.016c.374-.576.457-1.266.217-1.8-.357-.798-1.32-.798-2.286-.798-.967 0-1.88 0-2.24.797-.24.535-.156 1.225.217 1.8.35.54.89.894 1.524 1.016v1.696c-.99-.07-1.628-.405-2.372-1.593l-.848.53c.98 1.562 1.97 1.992 3.27 2.064zm-.732-4.257c-.185-.286-.243-.626-.144-.848.086-.19.652-.207 1.327-.207.675 0 1.29.016 1.375.207.1.222.042.563-.143.848-.146.226-.495.605-1.183.605h-.05c-.688 0-1.036-.38-1.182-.605zM23.07 29.68c-2.36 0-4.282 2.187-4.282 4.877s1.92 4.88 4.283 4.88 4.284-2.19 4.284-4.88-1.92-4.878-4.283-4.878zm0 8.757c-1.81 0-3.282-1.74-3.282-3.88 0-2.138 1.473-3.878 3.283-3.878s3.284 1.74 3.284 3.877c0 2.14-1.473 3.88-3.283 3.88z"></path><path d="M30.802 28.62c-.337-2.68-2.322-6.347-6.84-8.867 2.22-2.04 3.6-4.87 3.6-7.996 0-.093-.002-.223-.006-.344 1.817-1.01 2.5-2.634 2.75-3.847.456-2.207-.2-4.446-1.047-5.432-1.305-1.517-4.712-3.56-8.44-.698A12.43 12.43 0 0 0 15.522.212V.21h-.03l-.038-.002v.004c-1.826.01-3.763.43-5.415 1.224-3.728-2.86-7.136-.82-8.44.7C.752 3.12.098 5.36.553 7.565c.25 1.214.933 2.836 2.75 3.847-.003.12-.006.25-.006.344 0 3.125 1.38 5.955 3.6 7.996C2.38 22.273.395 25.94.057 28.62c-.21 1.666.16 3.097 1.006 4a7.956 7.956 0 0 0-.246 1.937c0 4.118 3.127 7.468 6.97 7.468 1.91 0 3.64-.827 4.9-2.162 1.07.53 1.79.573 2.413.573h.66c.623 0 1.34-.043 2.413-.573 1.26 1.335 2.99 2.162 4.9 2.162 3.843 0 6.97-3.35 6.97-7.468 0-.67-.09-1.318-.246-1.937.845-.903 1.214-2.335 1.005-4zM4.297 11.757c0-.207.018-.617.018-.62l.014-.327-.295-.144c-1.673-.814-2.284-2.245-2.502-3.3-.372-1.803.14-3.78.826-4.58 1.112-1.294 4.07-3.04 7.3-.375l.253.21.293-.15c1.598-.82 3.5-1.255 5.286-1.26 1.782.006 3.566.44 5.16 1.26l.293.15.255-.208c3.23-2.664 6.188-.92 7.3.375.687.8 1.198 2.777.827 4.58-.218 1.055-.83 2.486-2.502 3.302l-.295.143.015.33s.02.41.02.617c0 5.653-4.984 10.253-11.11 10.253S4.298 17.41 4.298 11.757zM1.05 28.745c.313-2.497 2.238-5.957 6.668-8.3.215.165.442.315.67.465-1.69 1.816-2.998 4.8-3.21 6.727-1.652.718-2.99 2.097-3.728 3.83-.385-.692-.535-1.652-.4-2.722zm6.738 12.28c-3.292 0-5.97-2.9-5.97-6.468 0-3.567 2.677-6.47 5.97-6.47 3.293 0 5.972 2.903 5.972 6.47 0 3.567-2.68 6.468-5.972 6.468zm7.82-1.59h-.154v.002h-.202c-.556 0-1.09 0-1.917-.373a7.77 7.77 0 0 0 1.425-4.506c0-4.118-3.127-7.47-6.972-7.47-.536 0-1.055.072-1.556.195.35-1.776 1.59-4.376 3.032-5.844 1.803.99 3.947 1.57 6.19 1.57s4.337-.58 6.14-1.57c1.443 1.466 2.683 4.067 3.032 5.843a6.514 6.514 0 0 0-1.556-.194c-3.844 0-6.972 3.35-6.972 7.468a7.77 7.77 0 0 0 1.425 4.506c-.827.372-1.358.376-1.916.372zm7.463 1.59c-3.292 0-5.97-2.9-5.97-6.468 0-3.567 2.678-6.47 5.97-6.47 3.293 0 5.972 2.903 5.972 6.47 0 3.567-2.68 6.468-5.97 6.468zm2.61-13.388c-.21-1.926-1.52-4.91-3.207-6.727.227-.15.454-.3.67-.465 4.428 2.343 6.353 5.803 6.667 8.3.135 1.07-.016 2.03-.4 2.72-.74-1.732-2.076-3.11-3.73-3.828z"></path><path d="M15.405 20.572c3.412 0 6.188-2.425 6.188-5.406 0-2.978-2.776-5.4-6.188-5.4s-6.188 2.422-6.188 5.4c0 2.98 2.776 5.406 6.188 5.406zm0-9.807c2.86 0 5.188 1.974 5.188 4.4 0 2.43-2.327 4.406-5.188 4.406-2.86 0-5.188-1.976-5.188-4.405 0-2.426 2.327-4.4 5.188-4.4z"></path></svg>