<svg xmlns="http://www.w3.org/2000/svg" width="52.08" height="50.64" viewBox="0 0 52.08 50.64"><path fill="#F60" d="M20.046 12.756c-.33 0-.663.022-.998.068-2.876.385-6.906 3.15-6.214 9.197.764 6.687 7.094 12.425 12.282 15.3l.1.06c.21.12.47.272.772.272h.008c.302 0 .56-.152.77-.27l.1-.062c5.19-2.88 11.517-8.614 12.284-15.3.69-6.048-3.34-8.813-6.216-9.197a7.494 7.494 0 0 0-.987-.066c-2.14 0-4.155.94-5.763 2.722a1.114 1.114 0 0 1-.194.183 1.252 1.252 0 0 1-.2-.192c-1.596-1.77-3.608-2.714-5.744-2.714z"/></svg>