<svg xmlns="http://www.w3.org/2000/svg" width="58.922" height="72.9" viewBox="0 0 58.922 72.9"><g fill-rule="evenodd" clip-rule="evenodd"><g fill="#010202"><path d="M46.905 52.312a12.814 12.814 0 0 0-2.243-2.964c-.737-.737-1.855-2-3.205-1.923-1.12.063-1.96 1.167-2.564 2.083-.504.766-1.527 2.168-1.36 3.285.105.718 1.06 1.35 1.44 1.762.595.642.953 1.048 1.443 1.682.656.36.71 1.32 1.842 1.202 2.236-1.533-2.283-3.757-2.644-5.21.58-1.05.96-2.297 2.083-2.803 1.72 1.22 3.22 2.655 3.845 4.967.186.322.028.987.08 1.442-.053 1.042.106 2.296-.08 3.205v3.285h-.08V67.212c-.133.402-.133 1.36 0 1.763.095 1.06 1.903 1.01 1.922-.08.186-.296.028-.934.08-1.363v-3.204-1.683-1.682c.054-1.042-.106-2.296.08-3.205v-1.682-1.682-.8c-.01-.63-.59-.69-.64-1.282zM38.574 61.765c.132.086.132.714 0 .8-.157 2.13-1.273 3.147-2.804 3.847-.902.412-2.03.462-2.083 1.28-.028.428.23.805.64.962 3.268-.115 5.814-2.5 6.17-5.688v-1.603c.207-2.528-2.802-2.07-1.923.402zM14.86 66.572c-1.497-.6-2.835-1.8-3.043-3.765v-1.282c.343-1.195-.215-2.167-1.202-1.843-.665.218-.82 1.495-.8 2.644.045 2.798 1.72 4.768 3.764 5.768.674.33 1.968.92 2.643.56.275-.145.56-.84.32-1.36-.246-.537-1.18-.523-1.682-.722zM26.717 30.122c-1.623.813-3.543.377-4.726-.4-.724-.478-.895-.945-1.602-.882-.38.034-.74.37-.8.56-.333 1.063.868 1.715 1.6 2.164a6.55 6.55 0 0 0 2.965.96c.19.134.93.134 1.12 0 1.392-.09 4.788-1.404 4.407-3.043-.387-1.67-2.17.244-2.963.642zM19.187 20.268c-.84.103-2.52.838-2.163 2.083.413 1.434 1.943-.19 2.724-.16.612.026 1.113.855 1.842.722.392-.072.724-.418.72-.96-.004-1.177-1.845-1.84-3.123-1.684zM28.8 20.268c-.832.137-2.206.808-2.002 1.922.296 1.622 1.965-.034 2.724 0 .877.04 1.128.796 1.762.72.493-.058.77-.554.8-.8.172-1.348-1.917-2.066-3.283-1.842z"></path><path d="M13.58 17.705c-.05-.27.103-.744-.08-.88V15.14c5.73 2.017 15.954 6.01 22.03 1.442v.88a35.496 35.496 0 0 1-.72 6.73c.584-.163 1.21-.284 2.002-.24.37-1.82.523-3.856.64-5.928.185-.137.03-.61.082-.88v-.642c.185-.216.028-.773.08-1.122-.05-.35.105-.906-.08-1.122-.753-2.233-2.608.473-3.766 1.202-1.372.863-2.843 1.192-4.486 1.282H27.6c-4.67-.37-9.286-1.855-13.54-3.445-.804-.302-3.442-1.782-3.604-.16-.078.782.52.962 1.042 1.28.053.616-.105 1.442.08 1.923v1.122c.05.243-.103.69.08.8.405 6.726 1.728 12.533 5.047 16.343.234.3.5.568.8.8.605.545 1.327.972 2.004 1.443a2.902 2.902 0 0 0-.012.103l-.003.037a1.553 1.553 0 0 0-.004.07v.05c-.002.02-.002.04-.002.062v.187c0 .016 0 .032.002.048 0 .027 0 .054.003.082a3.19 3.19 0 0 0 .007.134v.024l.01.112v3.418c-.094-.013-.144.018-.16.08-3.6.7-7.16 1.44-9.855 3.044-2.157-.54-5.755-.333-7.53-1.522 1.29-2.618 2.598-5.226 3.444-8.332.83-3.045 1.367-6.4 1.44-10.254.187-.72.028-1.79.08-2.644.348-6.435 2.576-10.99 5.77-14.58.327-.26.62-.554.88-.88 2.355-2.132 5.186-3.788 9.373-4.086.322-.186.987-.028 1.442-.08h.4c.562.053 1.334-.105 1.763.08 10.928.794 15.087 8.358 15.3 19.867.054.802-.105 1.816.08 2.484-.024.746.223 1.22.962 1.202v.08c.227-.013.334-.147.56-.16.477-.325.418-1.185.4-2.002-.052-.828.107-1.87-.08-2.564C43.23 8.534 38.214.627 25.917 0h-2.483c-4.89.236-8.16 2.094-10.975 4.406-.515.447-.996.928-1.443 1.442-3.2 3.875-5.553 8.6-6.008 15.22-.186.19-.03.72-.08 1.043v2.564c-.184.11-.03.558-.08.8-.1 5.052-1.423 9.914-3.286 13.62-.588 1.17-1.8 2.757-1.522 4.166.463 2.338 4.863 2.246 7.21 2.644-2.483 2.7-3.2 7.086-4.166 11.776-.335 1.63-.727 3.52-1.04 5.367-.165.962-1.42 4.823.16 4.967 1.306.12 1.127-1.483 1.36-2.804A236.55 236.55 0 0 1 5.57 55.036c1.085-4.886 2.296-8.53 6.408-9.773 1.56 3.22 4.938 4.62 9.453 4.886.245.05.69-.104.802.08h2.644c.11-.184.558-.03.8-.08h.08v-1.763c-.105 0-.072-.14-.16-.16H22.314c-3.977-.083-7.11-1.007-8.492-3.686 2.285-1.026 5.894-.728 7.61-2.322v-.16c.188-1.31.028-2.964.082-4.406.62.074 1.17.217 1.762.32.323.133 1.2.133 1.522 0 .762-.146 1.575-.24 2.243-.48.342-.965.747-1.87 1.28-2.644-1.296.627-2.596 1.238-4.405 1.202-7.902-.158-9.986-10.468-10.335-18.345z"></path></g><g fill="#E83D3C"><path d="M54.596 45.583c-.31-3.774-2.27-5.9-4.086-8.17a18.222 18.222 0 0 0-1.602-1.604c-3.28-2.34-7.428-5.915-12.817-5.528-3.442.247-6.062 2.353-7.77 4.566-.534.774-.938 1.678-1.282 2.644-.812 2.446-1.234 5.28-1.282 8.49-.183.138-.03.613-.08.883h.08v3.284c.183.11.03.557.08.8-.072 1.62.322 3.202.24 4.566-2.587-.5-3.904-3.26-6.49-3.685-2.657-.435-3.828 2.03-4.645 3.526-.346.635-.89 1.34-.56 2.083 2.66 1.312 2.37-3.332 4.406-3.606 1.553-.21 3.074 1.877 3.845 2.243-1.254.098-2.69.405-3.764.96-.896.465-2.217 1.498-1.282 2.805 1.183.455 1.358-.448 2.003-.88 1.142-.768 2.644-.922 4.566-.962-2.063 1.568-4.354 2.91-6.25 4.646a7.65 7.65 0 0 1-1.04 1.042c-1.44 1.472.242 2.86.96 3.926.574.85 1.007 1.713 1.523 2.323 1.626 1.923 4.37 2.54 6.81 2.964h.48c5.088-.49 3.967-7.194 5.608-11.134 3.79-.99 6.962-2.597 10.013-4.326-1.132.117-1.187-.843-1.842-1.202-2.694 1.312-5.25 2.76-8.492 3.525-.677-.41-1.133-1.04-1.843-1.682-.526-.478-1.6-1.072-1.842-1.762-.283-.808-.237-1.918-.32-2.884-.084-.956-.086-1.965-.16-3.044-.186-.216-.03-.773-.082-1.122v-1.12-1.043c.185-.19.03-.72.08-1.042v-.96c.23-6.956 2.24-12.127 8.733-12.818.085-.133.713-.133.8 0 4.532.542 7.338 2.81 10.254 4.966.5.57 1.034 1.103 1.602 1.604 1.663 1.85 5.176 6.617 2.563 9.613-.234.3-.5.567-.802.8a41.98 41.98 0 0 1-4.006 3.045c.05.592.628.653.64 1.282.218.033-.075.787.24.48 1.64-.977 3.065-2.17 4.487-3.364.233-.3.5-.568.8-.8.766-.917 1.53-1.835 1.522-3.526.137-.086.137-.715.004-.8zm-24.273 15.54c-.58 1.527-.78 3.222-1.122 5.208-.327 1.9-.717 4.497-2.723 4.567-1.558.055-3.994-.842-4.967-1.602-1.37-1.07-1.842-2.976-2.964-4.086-.236-.5.5-.66.64-1.042 2.456-2.166 5.355-3.886 8.012-5.848 1.142.835 2.142 1.81 3.125 2.804zM55.477 39.494c-.51.115-.83.643-.64 1.362.19.736 2.39 1.167 2.082 2.644v.8c.243 1.648-1.773 2.122-1.683 3.286.034.433.255.795.72.88 1.695.315 2.74-2.652 2.965-3.844V43.18c-.232-1.506-1.797-4.055-3.445-3.686zM52.673 32.044c2.136.026 3.967 1.915 3.925 4.085-.013.655-.613 1.173-.4 2.002.112.436.694.73 1.202.64.816-.14 1.046-1.328 1.122-2.002.417-3.76-2.507-6.796-6.008-6.73-1.38.027-3.345.537-2.484 2.084 1.082.57 1.735-.09 2.643-.08zM43.54 27.478c1.415-.393 3.014.286 3.446 1.282.396.913.09 1.847.88 2.002 2.27.445.776-3.232.32-3.765-.855-1.006-2.698-1.88-4.725-1.522-.226.013-.333.147-.56.16-.726.43-2.816 1.038-2.403 2.564.458 1.693 2.423-.55 3.044-.722zM32.165 30.202c1.14.046.772-.912 1.122-2.083.25-.837 1.176-1.504 1.522-1.763.452-.215.905-.43 1.602-.4.98-.157 3.264 1.93 3.444 0 .108-1.156-1.728-1.77-3.044-2.003-.792-.044-1.418.078-2.003.24-1.844.774-3.28 1.954-3.526 4.326v.8c.07.608.378.86.88.882z"></path></g></g></svg>