<svg xmlns="http://www.w3.org/2000/svg" width="28.09" height="16.873" viewBox="0 0 28.09 16.873"><path fill="#E30520" d="M19.648 0a8.392 8.392 0 0 0-5.605 2.144c.21.19.414.39.605.598h-1.21c-.14.153-.278.31-.407.472h2.024c.136.172.27.347.393.53H12.64c-.103.15-.194.31-.286.468h3.377c.104.177.198.358.29.543h-3.954c-.076.156-.152.31-.218.47h4.39c.07.174.133.352.193.53h-4.776l-.025.068-.07.227c-.018.057-.03.116-.045.174h5.055c.048.175.098.35.135.53H11.38c-.032.155-.05.314-.072.47h5.468c.056.388.094.78.095 1.184h-5.658v.03l.003.072.033.37h5.603a8.65 8.65 0 0 1-.045.585h-5.498l.086.47h5.34c-.04.228-.093.45-.15.67h-5.05l.146.47h4.767a8.106 8.106 0 0 1-.21.572h-4.36l.23.47h3.913c-.097.2-.2.396-.313.586H12.39l.316.472h2.71a8.332 8.332 0 0 1-.406.543h-1.935c.13.163.27.318.415.47h1.106a8.807 8.807 0 0 1-.555.54 8.39 8.39 0 0 0 5.608 2.145 8.437 8.437 0 0 0 0-16.873z"></path><path fill="#0081C4" d="M11.215 8.51l-.01-.103h5.668c-.002-.402-.04-.795-.096-1.183h-5.485l.086-.47h5.325c-.037-.18-.087-.355-.135-.53H11.505l.054-.175a5.95 5.95 0 0 1 .07-.228l.02-.068h4.781a8.54 8.54 0 0 0-.193-.53h-4.404l.23-.47h3.956a8.023 8.023 0 0 0-.29-.543h-3.396l.3-.468h2.812a8.137 8.137 0 0 0-.393-.53h-2.047l.413-.47H14.646A8.393 8.393 0 0 0 8.438 0C3.777-.002 0 3.775 0 8.435s3.777 8.437 8.437 8.437a8.38 8.38 0 0 0 5.604-2.146c.193-.17.38-.35.556-.538H13.46l-.413-.47h1.963a8.24 8.24 0 0 0 .406-.544h-2.71l-.316-.472h3.315a8.18 8.18 0 0 0 .313-.585h-3.914l-.228-.472h4.36c.077-.187.146-.378.21-.57h-4.77l-.144-.472h5.048c.058-.22.11-.442.15-.67h-5.34l-.085-.47h5.498a8.65 8.65 0 0 0 .046-.585h-5.604l-.03-.37z"></path><path fill-rule="evenodd" clip-rule="evenodd" fill="#FFF" d="M17.813 7.71c-.354-.035-1.52-.29-1.586.297-.043.393.567.497.826.59.52.184.754.56.723 1.112-.063 1.1-1.024 1.38-1.967 1.364-.322-.005-.644-.008-.96-.07-.57-.11-.307-.472-.205-.985.38.1 2.052.508 1.888-.334-.108-.558-1.3-.51-1.517-1.198-.585-1.854 1.894-1.853 2.997-1.677l-.2.9zM19.127 9.906l.37-2.21.7.014.155-.884h-.685l.172-.97h-1.115l-.518 3.033c-.088.515-.317 1.166-.24 1.7.103.704 1.44.554 1.886.314l.114-.757c-.24.097-.533.11-.768-.005l-.026-.022a.472.472 0 0 1-.036-.055.287.287 0 0 1-.01-.16zM10.84 7.796l-.025-.14-.044-.13-.06-.12-.078-.11a1.706 1.706 0 0 0-.194-.185 1.822 1.822 0 0 0-.727-.315c-.61-.09-1.42-.11-1.987.172l-.285.943.042-.025c.515-.188 1.294-.306 1.827-.164a.622.622 0 0 1 .155.093c.033.03.063.065.09.102a.62.62 0 0 1 .04.08l.014.045a.78.78 0 0 1 .014.097v.07l-.014.077c-.01.03-.018.063-.027.094h-.03l-.024-.003a8.088 8.088 0 0 0-1.31.062h-.007c-.366.052-.71.214-.977.468a2.948 2.948 0 0 0-.178.21c-.077.117-.14.243-.188.375-.123.408-.096.88.16 1.23.045.053.092.102.142.148.127.098.272.17.426.22.56.16 1.262-.027 1.686-.422l.053-.06-.01.02-.012.032c-.025.14-.047.278-.063.418h1c.187-1.042.456-2.082.594-3.13l-.004-.15zm-1.4 1.406c-.025.15-.055.298-.088.446a.683.683 0 0 1-.197.316 1.08 1.08 0 0 1-.178.122c-.202.093-.427.13-.65.117l-.068-.014-.065-.03-.06-.04-.05-.062-.034-.083-.018-.105.005-.136.014-.066.023-.064.028-.058c.026-.036.053-.07.082-.103.133-.13.296-.222.474-.274.232-.068.472-.104.713-.082l.035.01.027.012.017.017.002.022-.012.052zM2.04 11.076H.958l.912-5.22h1.884l.185 3.107 1.283-3.108H7.18l-.914 5.22H5.182l.685-3.908h-.042l-1.614 3.91H2.998l-.01-.164-.026-.436-.035-.615-.042-.707-.04-.713-.037-.63-.025-.454-.01-.19h-.055.01l-.683 3.908zM23.302 6.795l-.013-.005a.658.658 0 0 1-.076-.014l-.034-.003-.03-.005c-.087.002-.174.01-.26.022-.067.014-.133.03-.198.047-.058.02-.114.043-.17.07-.266.144-.46.383-.628.63l.13-.71-1.128-.015-.743 4.264h1.128c.15-.866.18-1.85.502-2.675l.04-.074c.03-.05.063-.097.1-.142l.063-.06.072-.056a1.4 1.4 0 0 1 .18-.094l.11-.036.126-.028c.102-.014.205-.023.308-.028l.04.006h.022c.012 0 .024.003.036.005l.01.003h.007a3.1 3.1 0 0 1 .407-1.09l.005-.01h-.005zM27.12 8.672c-.05-2.016-2.778-2.582-3.826-1.012-1.188 1.777.258 3.928 2.255 3.413 1.07-.276 1.612-1.303 1.57-2.4zm-1.29-.083c-.024.4-.103.827-.35 1.15-.04.046-.085.09-.132.127l-.073.05-.075.04-.08.03a.975.975 0 0 1-.424.016l-.075-.022-.066-.03-.062-.04-.056-.05-.05-.058-.046-.068-.038-.08c-.187-.522-.067-1.23.28-1.656l.068-.07c.05-.04.1-.08.155-.115.06-.03.12-.055.183-.075l.102-.02c.066-.007.132-.01.198-.008l.08.014.075.022.07.036.062.044.056.055.05.062.042.072c.025.054.046.11.064.167.035.134.05.272.045.41z"></path><path fill-rule="evenodd" clip-rule="evenodd" fill="#FFF" d="M14.633 8.084l-.014-.122a4.5 4.5 0 0 0-.048-.225l-.033-.103-.04-.093a1.72 1.72 0 0 0-.092-.168l-.053-.077a1.88 1.88 0 0 0-.12-.133 2.836 2.836 0 0 0-.132-.113 3.524 3.524 0 0 0-.144-.093l-.076-.04c-.503-.222-1.1-.226-1.625-.08a2.64 2.64 0 0 0-.356.14c-.103.054-.2.116-.294.186l-.164.144c-.072.076-.14.155-.202.24-.352.506-.485 1.126-.472 1.737.007.095.016.19.028.283.016.084.034.167.056.25.034.113.08.222.133.327.052.094.112.185.18.27.068.077.144.15.224.215.054.04.11.078.166.115.174.105.366.183.563.235.445.11.898.106 1.353.086l.235-.025a2.59 2.59 0 0 0 .195-.043c.106-.035.21-.08.308-.133l.172-.984a6.405 6.405 0 0 1-.23.127c-.144.066-.295.12-.45.155a8.32 8.32 0 0 1-.218.036 3.132 3.132 0 0 1-.826-.034l-.082-.02-.083-.027-.078-.036-.075-.043a1.696 1.696 0 0 1-.133-.108l-.062-.065-.053-.066-.047-.07-.038-.073-.033-.075a1.34 1.34 0 0 1-.035-.128h.007v-.22h2.563c.073-.38.145-.758.12-1.15zm-1.092.275l-.007.104H12.06h.03c.016-.08.034-.162.056-.24l.028-.08.033-.07a1.28 1.28 0 0 1 .125-.192l.05-.055.053-.047.058-.042.06-.036.064-.03.067-.022a2.41 2.41 0 0 1 .144-.025c.05 0 .1 0 .15.003l.07.008.066.017.063.022.06.027.054.034.054.042.047.05.043.055.036.06.027.07.022.075.016.083c.004.063.006.126.005.19z"></path></svg>