<svg xmlns="http://www.w3.org/2000/svg" width="27.217" height="16.825" viewBox="0 0 27.217 16.825"><path fill="#FE0000" d="M10.392 8.412A8.394 8.394 0 0 1 13.61 1.8a8.413 8.413 0 1 0 0 13.227A8.396 8.396 0 0 1 10.39 8.41z"></path><path fill="#FE9A00" d="M18.804 0a8.378 8.378 0 0 0-5.196 1.8 8.396 8.396 0 0 1 3.217 6.612 8.393 8.393 0 0 1-3.217 6.613 8.413 8.413 0 0 0 13.61-6.614A8.412 8.412 0 0 0 18.803 0z"></path><path fill="#FE4F00" d="M16.825 8.412A8.394 8.394 0 0 0 13.608 1.8 8.396 8.396 0 0 0 10.39 8.41a8.393 8.393 0 0 0 3.218 6.613 8.393 8.393 0 0 0 3.217-6.613z"></path></svg>