<svg xmlns="http://www.w3.org/2000/svg" width="36.17" height="49.299" viewBox="0 0 36.17 49.299"><g fill="#E83D3C"><path d="M19.292 20.292c-1.512-.368-3.002.153-3.898 1.36l.803.596c.66-.89 1.73-1.26 2.858-.984.954.232 1.674.873 1.79 1.594l.987-.16c-.182-1.13-1.18-2.074-2.54-2.406zM19.835 12.44l.803.597c.66-.89 1.726-1.26 2.857-.984.955.232 1.674.873 1.79 1.594l.988-.16c-.183-1.13-1.18-2.074-2.542-2.406-1.51-.37-3 .155-3.895 1.36zM30.286 10.657c-1.41-.65-2.976-.428-4.087.584l.672.74c.82-.747 1.94-.902 2.995-.416.89.412 1.474 1.18 1.45 1.908l1 .033c.036-1.143-.76-2.26-2.03-2.848zM21.7 15.734c-1.512-.37-3.002.153-3.897 1.36l.803.595c.662-.89 1.73-1.26 2.857-.984.954.232 1.674.874 1.79 1.595l.988-.16c-.182-1.13-1.18-2.074-2.54-2.406zM8.2 18.966l.218-.976c-1.32-.296-2.542.13-3.264 1.137-.634.885-.71 2.007-.19 2.858l.853-.52c-.31-.51-.25-1.198.15-1.756.48-.67 1.315-.947 2.233-.744zM.633 18.673c-.635.885-.71 2.007-.192 2.86l.855-.52c-.31-.51-.25-1.2.15-1.757.48-.67 1.315-.95 2.233-.744l.218-.976c-1.32-.297-2.54.13-3.263 1.137zM29.43 18.484c-.91-.6-2.034-.628-2.863-.075l.554.83c.498-.33 1.187-.297 1.76.08.69.454 1.002 1.277.834 2.203l.983.18c.243-1.334-.23-2.537-1.267-3.22zM29.43 14.54c-.91-.598-2.034-.627-2.863-.076l.554.833c.497-.33 1.187-.3 1.76.08.69.453 1.002 1.276.834 2.202l.983.18c.243-1.334-.23-2.537-1.267-3.22zM34.84 15.005c-.908-.597-2.032-.628-2.862-.076l.554.832c.496-.33 1.185-.298 1.76.08.69.453 1 1.277.832 2.203l.983.18c.244-1.335-.23-2.538-1.267-3.22zM13.552 22.74c-1.086.07-2 .724-2.33 1.665l.943.33c.196-.562.766-.953 1.452-.998.82-.056 1.568.415 1.993 1.254l.893-.45c-.61-1.208-1.713-1.888-2.95-1.8zM24.866 21.235c-1.086.07-2 .726-2.33 1.667l.944.33c.196-.562.766-.954 1.45-1 .823-.06 1.57.415 1.994 1.254l.893-.45c-.61-1.21-1.713-1.88-2.95-1.8zM7.82 21.573c-.844.688-1.21 1.752-.933 2.71l.96-.278c-.165-.572.072-1.222.605-1.657.64-.52 1.518-.573 2.35-.135l.465-.885c-1.196-.63-2.486-.538-3.447.245zM8.693 13.362c-.166-.572.07-1.222.604-1.657.64-.522 1.518-.573 2.35-.135l.465-.885c-1.197-.63-2.486-.538-3.447.245-.844.688-1.21 1.752-.933 2.71l.96-.278zM6.438 14.28l.466-.884c-1.197-.63-2.486-.538-3.447.245-.844.69-1.21 1.753-.933 2.71l.96-.277c-.165-.572.072-1.222.605-1.657.638-.52 1.516-.572 2.348-.135zM7.602 17.184c-.024-.595.36-1.17.98-1.463.748-.352 1.612-.192 2.315.43l.663-.747c-1.013-.898-2.287-1.118-3.406-.586-.983.467-1.593 1.412-1.552 2.408l1-.04zM9.543 19.175l.934.357c.464-1.215 1.72-1.626 2.667-1.604.926.02 2.052.45 2.438 1.603l.948-.317c-.454-1.354-1.775-2.25-3.366-2.284-1.668-.06-3.086.845-3.62 2.245zM17.324 9.326c.925.02 2.052.45 2.438 1.603l.948-.32c-.454-1.353-1.775-2.25-3.365-2.283-1.668-.042-3.087.847-3.622 2.246l.934.357c.465-1.216 1.696-1.623 2.667-1.604zM12.3 14.616c.465-1.215 1.713-1.625 2.668-1.604.925.02 2.052.45 2.438 1.603l.948-.318c-.454-1.354-1.775-2.25-3.365-2.284-1.655-.062-3.088.847-3.623 2.246l.934.356z"></path></g><g fill="#1E180F"><path d="M22.7 7.11c-.398-.353-.81-.717-1.172-1.113l-.39-.424-.364.445a5.617 5.617 0 0 1-1.633 1.344l.49.872a6.818 6.818 0 0 0 1.544-1.167c.284.278.576.537.86.79.728.647 1.414 1.256 1.817 2.042l.89-.457c-.488-.954-1.277-1.655-2.04-2.333zM33.924 29.823c1.38-3.396 1.96-6.74 1.062-9.385l-.37-1.086-.543 1.01c-2.224 4.118-11.513 5.576-16.65 5.788-2.946.12-12.735.242-15.123-3.298l-.693-1.027-.214 1.22c-.366 2.093.394 4.595 1.718 7.154l-.02-.008C1.63 35.064 0 43.404 0 47.272c0 .48.196.898.568 1.207.605.5 1.653.703 3.02.703 2.175 0 5.157-.51 8.438-1.127.683-.128 1.312-.247 1.854-.34l-.17-.985c-.547.095-1.18.214-1.87.343-3.478.653-9.3 1.745-10.634.637A.534.534 0 0 1 1 47.27c0-3.546 1.415-10.98 2.776-15.855a40.823 40.823 0 0 0 2.168 3.324c-.718 2.572.037 4.185.803 5.084.042.05.092.094.137.142H6.88c.266.922.482 1.987.65 3.158l-.06-.005c-1.11-.097-2.365-.208-3.293.308l.485.874c.66-.367 1.755-.272 2.72-.187.426.038.833.072 1.194.072h4.035c.676 0 1.577-.327 2.62-.705 1.286-.467 2.888-1.045 3.713-.755l.332-.943c-1.17-.412-2.804.184-4.387.758-.242.087-.482.17-.718.25C11.2 39.787 2.46 30.436 2.3 24.337c3.38 2.94 11.564 2.957 15.16 2.812 1.384-.057 12.947-.672 16.835-5.35 1.08 6.468-5.955 17.397-11.688 21.822-1.312-.953-3.528-.785-5.328-.638l-.66.05.068 1 .67-.053c1.374-.11 3.175-.252 4.275.226l-.315.692c.342.156.592.303.795.458-.18-.1-.37-.182-.56-.236l-.274.962c.376.107.748.366.938.693a1.618 1.618 0 0 0-.714-.338l-.184.983c.492.092.78.82.752 1.262l.998.06a2.505 2.505 0 0 0-.412-1.48l.69.043a1.78 1.78 0 0 0-.205-.926l.426.036c.07-.814-.263-1.355-.69-1.736 1.036-.77 2.165-1.803 3.308-3.02h.042a6.11 6.11 0 0 0 2.816-.67c-.85 3.873-.748 8.07-.742 8.265l1-.027c0-.052-.125-5.137.994-9.137a4.41 4.41 0 0 0 .398-.454c.67-.878 1.304-2.424.67-4.805a37.364 37.364 0 0 0 1.805-3.31c.748 6.526.07 16.9-.02 17.66l.992.12c.177-1.475.847-13.386-.2-19.48l-.018.003zM6.734 35.81a72.546 72.546 0 0 0 4.024 4.828c-1.3-.073-2.514-.6-3.25-1.464-.73-.857-.987-2.01-.773-3.365zm5.876 7.377H8.55a27.96 27.96 0 0 0-.395-2.242c.848.46 1.85.712 2.89.712.205 0 .41-.018.617-.037.507.544.985 1.042 1.418 1.485-.177.04-.336.07-.47.082zm17.294-4.16c-.605.793-1.603 1.334-2.725 1.538a43.558 43.558 0 0 0 3.417-4.523c.14 1.18-.092 2.197-.693 2.986z"></path><path d="M7.594 12.346c-.078-.26-.07-.596.03-1.056.05-.24.12-.483.186-.725.098-.352.193-.7.244-1.028C8.276 8.112 9.82 1 18.304 1V.5 1h.02c5.623 0 7.867 4.382 8.093 8.487l.998-.055C27.165 4.87 24.645 0 18.325 0h-.022C8.808 0 7.216 8.422 7.065 9.383a8.003 8.003 0 0 1-.22.915c-.072.26-.145.524-.2.783-.085.398-.178.99-.01 1.553l.96-.287z"></path></g></svg>