<svg xmlns="http://www.w3.org/2000/svg" width="55.853" height="44.452" viewBox="0 0 55.853 44.452"><g fill="#010202"><path d="M55.853 15.602C55.853 6.707 49.465 0 40.995 0c-8.472 0-14.86 6.707-14.86 15.602 0 10.947 9.37 22.967 12.86 27.063a.975.975 0 0 0-.407.785.992.992 0 0 0 .992.986h.006l1.416-.01.013-.002a.975.975 0 0 0 .38-.082c.03-.014.054-.04.084-.06.084-.048.167-.1.234-.17.005-.005.012-.007.017-.013.578-.637 14.123-15.765 14.123-28.498zM40.995 1.984c7.46 0 12.874 5.727 12.874 13.617 0 10.343-10.062 22.986-12.884 26.328-2.834-3.277-12.866-15.64-12.866-26.326 0-7.89 5.415-13.618 12.875-13.618z"></path><path d="M49.338 14.102c0-4.6-3.743-8.342-8.344-8.342s-8.344 3.742-8.344 8.342c0 4.602 3.743 8.346 8.344 8.346s8.344-3.745 8.344-8.346zm-14.703 0c0-3.506 2.853-6.357 6.36-6.357s6.358 2.852 6.358 6.357c0 3.508-2.853 6.36-6.36 6.36s-6.358-2.853-6.358-6.36zM31.586 42.462c-.874-.004-1.764-.01-2.663-.018h-.01a.992.992 0 0 0-.008 1.984c.902.008 1.795.014 2.672.018h.004a.99.99 0 0 0 .006-1.984zM36.916 42.464h-.004l-2.663.004a.992.992 0 0 0 0 1.984h.213l2.457-.004a.992.992 0 0 0-.004-1.984zM9.595 23.565c.83.28 1.703.55 2.6.805a.99.99 0 0 0 1.225-.686.993.993 0 0 0-.686-1.225 53.61 53.61 0 0 1-2.504-.774.99.99 0 0 0-1.257.622.99.99 0 0 0 .622 1.257zM4.524 21.476c.75.386 1.593.77 2.51 1.144a.99.99 0 1 0 .748-1.838c-.863-.35-1.654-.71-2.35-1.07a.99.99 0 1 0-.908 1.764zM14.826 25.048c.898.21 1.794.396 2.665.553a.994.994 0 0 0 1.153-.8.992.992 0 0 0-.8-1.15c-.837-.15-1.7-.33-2.565-.532-.532-.12-1.067.207-1.192.74s.206 1.066.74 1.19zM22.26 29.72a25.934 25.934 0 0 1-2.07 1.525.993.993 0 0 0 1.107 1.648c.83-.557 1.578-1.11 2.225-1.644a.993.993 0 0 0-1.263-1.53zM24.174 29.396a.99.99 0 0 0 1.393-.172c.67-.86.998-1.633.998-2.363 0-.448-.125-.86-.372-1.222a.992.992 0 1 0-1.64 1.115c.013.02.027.047.027.107 0 .095-.042.455-.578 1.143a.994.994 0 0 0 .172 1.393zM20.195 26.003c.717.083 1.402.138 2.036.163.227.01.44.024.64.045a.992.992 0 1 0 .204-1.975 12.855 12.855 0 0 0-.763-.052 25.325 25.325 0 0 1-1.886-.15c-.545-.08-1.037.326-1.1.87a.99.99 0 0 0 .87 1.1zM3.495 19.8a.99.99 0 0 0-.196-1.39c-.933-.702-1.262-1.223-1.374-1.535a.993.993 0 0 0-1.868.668c.3.838.97 1.64 2.047 2.45a.99.99 0 0 0 1.39-.195zM26.26 42.413a337.86 337.86 0 0 1-2.663-.048c-.57-.033-1.002.422-1.014.97a.993.993 0 0 0 .97 1.015c.892.02 1.787.035 2.678.048h.016a.993.993 0 0 0 .014-1.985zM14.645 35.523a.99.99 0 0 0-1.32-.48c-.775.362-1.578.72-2.404 1.066a.992.992 0 1 0 .77 1.827c.85-.357 1.676-.724 2.475-1.096.496-.23.71-.82.48-1.317zM15.625 42.084c-.914-.048-1.798-.103-2.646-.163-.556-.055-1.022.372-1.062.92a.993.993 0 0 0 .918 1.06c.86.063 1.757.117 2.683.167h.053a.993.993 0 0 0 .052-1.983zM19.337 32.982a.992.992 0 0 0-1.357-.358c-.722.42-1.49.843-2.296 1.26a.992.992 0 0 0 .914 1.763 55.18 55.18 0 0 0 2.382-1.308.994.994 0 0 0 .357-1.358zM5.29 40.847a5.214 5.214 0 0 1-.513-.19.994.994 0 0 0-.074-1.183.99.99 0 0 0-1.398-.116c-.497.42-.75.892-.75 1.398 0 1.305 1.607 1.814 2.136 1.98a.99.99 0 1 0 .6-1.89zM20.936 42.298a216.45 216.45 0 0 1-2.657-.09c-.015-.002-.028-.002-.042-.002a.992.992 0 0 0-.04 1.983c.88.034 1.774.064 2.68.09.01.002.02.002.028.002a.992.992 0 0 0 .03-1.984zM7.216 39.652a75.24 75.24 0 0 0 1.962-.712.992.992 0 1 0-.7-1.855 80.66 80.66 0 0 1-1.912.692c-.208.072-.406.143-.594.213a.99.99 0 1 0 .692 1.858c.174-.063.357-.128.552-.196zM10.347 41.695a49.973 49.973 0 0 1-2.597-.323.993.993 0 0 0-.303 1.96c.784.122 1.693.235 2.702.338a.992.992 0 0 0 .198-1.975zM1.868 15.852c.22 0 .442-.073.626-.223a5.8 5.8 0 0 1 1.018-.643.992.992 0 0 0-.9-1.768 7.762 7.762 0 0 0-1.37.87.992.992 0 0 0 .626 1.762z"></path></g></svg>