<svg xmlns="http://www.w3.org/2000/svg" width="64.374" height="82.443" viewBox="0 0 64.374 82.443"><g fill-rule="evenodd" clip-rule="evenodd"><g fill="#010102"><path d="M59.596 9.556C48.942 8.136 39.3 4.768 32.404 0h-.87C24.71 4.745 15.503 7.998 5.388 9.47 3.63 9.724 1.014 9.55 0 10.6v27.017C.838 49.265 4.613 58.6 9.817 66.025c5.217 7.442 12.422 13.268 21.892 16.42h.955c9.562-3.21 16.8-9.137 22.066-16.68 5.27-7.548 8.938-17.14 9.644-29.104V10.773c-.19-1.163-3.21-1.007-4.778-1.216zm2.693 27.018c-.185 7.67-2.19 14.36-4.692 19.894C53.026 66.573 45.443 75.44 34.49 79.576c-.764.29-1.805.77-2.26.782-.993.025-3.53-1.21-4.517-1.65-9.73-4.348-16.64-12.654-20.937-22.24-2.557-5.706-4.332-12.066-4.69-19.98-.357-7.837.084-16.23-.087-24.587 11.844-1.3 21.77-4.52 29.883-9.555 8.38 4.94 18.375 8.267 30.406 9.556-.144 8.402.19 16.654 0 24.674z"></path><path d="M57.076 16.854c-.41-.47-2.176-.48-3.388-.695-7.227-1.277-13.478-3.382-18.938-6.082-.86-.426-2.218-1.644-3.214-1.216-1.777.762-3.473 1.856-5.386 2.693-4.586 2.005-10.054 3.634-15.55 4.604-1.12.197-2.335.092-3.388.694-.222 7.007-.305 13.86-.174 20.502.126 6.415 1.94 12.04 3.996 16.68C14.618 62.122 20.28 69.06 28.408 72.8c1.15.53 2.726 1.477 3.735 1.477.898 0 2.63-.87 3.736-1.39 8.195-3.854 13.85-10.77 17.46-18.852 2.068-4.63 3.714-10.264 3.997-16.68.225-5.114 0-10.27 0-15.55 0-1.07.323-4.28-.26-4.95zm-1.824 20.763c-.203 5.844-1.79 11.188-3.736 15.463-3.375 7.414-8.377 14.026-15.898 17.723-.992.487-2.636 1.374-3.388 1.39-.77.017-2.437-.868-3.475-1.39-7.338-3.69-12.63-10.164-15.985-17.636-1.98-4.41-3.33-9.65-3.648-15.637-.32-6.05.06-12.564-.087-19.112 8.795-1.34 16.445-3.825 22.935-7.47 6.65 3.6 14.388 6.113 23.282 7.47-.16 6.585.215 12.978 0 19.2z"></path></g><path fill="#71BF96" d="M42.42 23.652h-.608c-1.118.938-2.285 3.656-3.04 5.04-2.767 5.062-5.804 10.143-8.34 15.115-2.12-1.785-4.745-4.22-7.122-6.43-.638-.59-1.78-1.96-2.52-1.997-.956-.05-1.357 1.123-2.085 1.477a8.25 8.25 0 0 0-1.13 1.13c-.225.353-.616.54-.78.955v.52c4.805 5.36 9.546 10.782 14.592 15.9h.52c.815-.375 1.54-2.413 2.086-3.476 3.068-5.968 6.176-11.68 9.122-17.635 1.21-2.45 2.55-4.846 3.65-7.123v-.608c-1.204-1.2-2.948-1.86-4.345-2.868zM31.474 52.495c-4.162-4.265-8.353-8.963-12.16-13.292.354-.282.672-.6.955-.956.024-.177.234-.17.26-.348 1.04.315 1.68 1.322 2.52 2.084 1.7 1.544 3.19 2.82 5.036 4.518.657.604 1.73 2.09 2.78 1.91.702-.118 1.2-1.532 1.65-2.345 3.313-5.984 6.743-11.995 9.905-17.983.743.3 1.263.823 2 1.13-4.277 8.467-8.68 16.806-12.946 25.28z"></path></g></svg>