<svg xmlns="http://www.w3.org/2000/svg" width="34.519" height="49.3" viewBox="0 0 34.519 49.3"><g fill="#E83D3C"><path d="M11.896 27.064c-1.047-.236-2.012.105-2.584.905-.506.706-.564 1.603-.15 2.287l.855-.52c-.207-.34-.165-.806.107-1.186.16-.222.63-.72 1.554-.51l.218-.976zM20.083 28.798c-1.186-.29-2.358.12-3.063 1.07l.803.596c.468-.63 1.225-.89 2.023-.694.67.163 1.174.605 1.254 1.1l.987-.16c-.145-.9-.932-1.65-2.004-1.912zM18.833 26.437l.803.596c.467-.63 1.224-.888 2.02-.694.672.163 1.176.604 1.256 1.1l.987-.16c-.147-.9-.934-1.65-2.007-1.913-1.184-.29-2.356.12-3.06 1.07zM25.665 24.693c-.727-.478-1.625-.5-2.292-.057l.554.833c.332-.22.798-.2 1.188.06.23.15.743.6.574 1.532l.982.18c.192-1.055-.184-2.008-1.007-2.55zM16.792 30.636c-.867.057-1.598.58-1.862 1.335l.943.332c.132-.375.518-.638.984-.668.272-.014.955.03 1.38.876l.894-.45c-.482-.956-1.352-1.49-2.338-1.424zM23.743 27.673c-.867.057-1.598.582-1.862 1.337l.945.33c.13-.376.518-.64.983-.67.282-.017.956.033 1.382.877l.893-.45c-.483-.957-1.355-1.49-2.34-1.424zM12.29 29.232c-.674.55-.965 1.4-.743 2.168l.96-.278c-.11-.382.052-.82.414-1.115.212-.173.795-.53 1.634-.088l.465-.886c-.948-.5-1.968-.423-2.73.198zM12.422 24.98c.248-.12.9-.323 1.607.303l.662-.748c-.8-.71-1.81-.882-2.7-.46-.785.374-1.27 1.13-1.238 1.93l1-.04c-.016-.4.246-.785.668-.986zM16.535 25.71c-1.31-.032-2.422.67-2.843 1.77l.934.358c.326-.854 1.203-1.16 1.89-1.127.654.015 1.45.316 1.72 1.123l.948-.318c-.36-1.07-1.4-1.778-2.65-1.804zM18.276 23.857c.655.014 1.45.315 1.72 1.12l.95-.317c-.36-1.07-1.4-1.777-2.65-1.803-1.33-.01-2.42.667-2.842 1.77l.934.357c.325-.855 1.216-1.163 1.888-1.127z"></path></g><g fill="#1E180F"><path d="M33.946 29.82c-.354-2.064-1.61-3.644-3.532-4.45-6.886-2.882-7.526-3.892-7.56-4.128v-1c3.608-2.283 5.507-8.34 4.152-13.456C25.864 2.473 22.702 0 18.326 0h-.022C8.808 0 7.216 8.422 7.066 9.383c-.046.293-.133.604-.22.918-.214.775-.436 1.576-.208 2.333.146.484.38.897.606 1.298.24.425.467.825.555 1.26.112.558-.098 1.06-.34 1.64l-.07.166c-.828 1.99.23 3.01 1.353 4.092.15.146.31.297.47.458.605.606 1.227 1.228 1.565 1.78-.92.45-2.875 1.425-4.184 2.233-1.79 1.104-2.722 2.185-3.222 3.727C1.854 33.96.002 43.177 0 47.27c0 .482.197.9.57 1.21.604.5 1.652.703 3.017.703 2.176 0 5.16-.51 8.44-1.127.683-.128 1.312-.246 1.854-.34l-.17-.985c-.546.095-1.18.214-1.87.344-3.478.653-9.297 1.744-10.634.637A.536.536 0 0 1 1 47.27c0-4.007 1.827-13.067 3.32-17.674.42-1.292 1.19-2.18 2.73-3.143.69.448 1.51.843 2.46 1.17l.326-.945c-.68-.234-1.28-.503-1.81-.8a73.76 73.76 0 0 1 3.69-1.896l-.132-.28.392-.093c-.21-.87-.952-1.663-2.06-2.77-.166-.166-.327-.32-.483-.472-1.125-1.084-1.69-1.628-1.124-2.988l.067-.164c.27-.64.573-1.365.398-2.226-.12-.59-.396-1.08-.664-1.552-.207-.37-.405-.717-.518-1.093-.145-.48.038-1.14.215-1.777a9.55 9.55 0 0 0 .245-1.03C8.276 8.11 9.82 1 18.305 1V.5 1h.022c5.318 0 7.115 3.784 7.713 6.042 1.16 4.383-.318 9.68-3.185 11.977V17.19c1.322-1.644 2.38-3.7 2.38-5.63 0-2.202-1.29-3.346-2.535-4.45-.397-.354-.808-.718-1.172-1.115l-.39-.424-.364.445C19.67 7.36 18.184 7.86 16.607 8.39c-1.702.573-3.462 1.164-4.67 2.885l-.09.13v.157c0 2.217 1.24 4.578 2.746 6.3.387 1.33-.04 3.655-.975 5.24l.86.507c.81-1.37 1.262-3.13 1.256-4.606.986.85 1.983 1.378 2.754 1.378.815 0 2.12-.822 3.366-2.072v2.93c0 .93 1.257 2.088 7.164 4.624a17.18 17.18 0 0 1-2.05.748l.285.96c1.14-.34 2.133-.737 2.97-1.18 1.985.93 2.572 2.637 2.737 3.597 1.077 6.274.29 18.366.19 19.19l.994.12c.178-1.476.848-13.39-.198-19.48zM18.488 19.38c-1.658 0-5.53-3.975-5.64-7.66 1.02-1.355 2.505-1.855 4.077-2.383 1.486-.5 3.018-1.015 4.25-2.272.283.278.575.538.86.79 1.18 1.048 2.2 1.952 2.2 3.705 0 3.747-4.566 7.82-5.747 7.82z"></path><path d="M30.08 34.09c.997 2.518.654 4.54-.965 5.698-1.54 1.1-3.98 1.13-5.435.137.32-.544.645-1.125.967-1.74a31.3 31.3 0 0 1 .838-1.73c1.092-2.15 2.33-4.587 1.814-6.51l-.236-.878-.616.67c-2.4 2.612-5.633 3.098-7.856 3.237-2.75.172-6.555-.608-7.833-1.604l-.645-.5-.154.8c-.465 2.413 1.706 5.737 3.722 8.21-1.448 1.04-3.938 1.025-5.502-.093-1.62-1.157-1.962-3.18-.964-5.698l-.93-.37c-1.01 2.55-.782 4.77.595 6.247.266.922.482 1.987.65 3.156l-.06-.005c-1.108-.096-2.365-.208-3.294.31l.485.873c.662-.366 1.756-.27 2.722-.186.425.038.833.072 1.195.072h4.037c1.057 0 1.994-.442 2.9-.87.313-.147.613-.28.912-.402l.118.118-.113.292.217.083.042.623.67-.052c1.373-.11 3.174-.253 4.274.224l-.316.692c.343.156.593.303.796.46a2.8 2.8 0 0 0-.562-.238l-.273.962c.376.107.748.366.938.692a1.624 1.624 0 0 0-.713-.337l-.184.983c.493.092.78.82.752 1.262l.998.06a2.497 2.497 0 0 0-.41-1.48l.69.043a1.78 1.78 0 0 0-.206-.925l.425.037c.1-1.16-.61-1.774-1.262-2.142l.46-.545c-.36-.304-.81-.5-1.3-.634.51-.57 1.085-1.356 1.69-2.316.858.57 1.944.874 3.063.874.98 0 1.968-.23 2.827-.67-.85 3.876-.75 8.078-.745 8.274l1-.027c0-.052-.127-5.144.998-9.15 1.472-1.477 1.74-3.742.704-6.354l-.925.37zm-14.992 8.323c-.844.398-1.64.774-2.474.774H8.548c-.11-.805-.243-1.56-.398-2.262.88.475 1.902.725 2.92.725 1.203 0 2.372-.347 3.254-1.004.5.58.96 1.083 1.353 1.498a29.08 29.08 0 0 0-.59.27zm2.56.542l.068-.18-.242-.23c-1.86-1.777-6.344-6.74-6.57-9.916 1.94.977 5.394 1.49 7.75 1.343 2.167-.135 5.23-.583 7.753-2.798-.107 1.465-1.038 3.298-1.814 4.828-.328.645-.635 1.252-.85 1.754-1.26 2.4-2.59 4.37-3.472 5.14-.86-.067-1.774-.01-2.623.058zM18.772 16.114c-.687.048-1.313-.107-1.497-.28l-.687.727c.444.42 1.255.564 1.93.564.113 0 .223-.004.326-.01.47-.035 1.326-.177 1.773-.742l-.784-.62c-.146.183-.562.326-1.06.362z"></path></g></svg>