<svg xmlns="http://www.w3.org/2000/svg" width="13.869" height="13.213" viewBox="0 0 13.869 13.213"><path fill="#F0F2F2" d="M6.905 10.456l-3.73 1.938.732-4.14-2.995-2.95 4.164-.584L6.956.96l1.84 3.78 4.158.627-3.027 2.92.69 4.146z"/><path fill="#CCC" d="M6.952 1.92l1.365 2.805.196.402.442.066 3.084.465-2.247 2.166-.322.31.074.442.51 3.077-2.752-1.466-.395-.21-.397.206-2.768 1.438.543-3.07.078-.44-.317-.317-2.222-2.188 3.09-.433.442-.062.2-.4 1.396-2.79M6.962 0L4.795 4.33 0 5 3.45 8.4l-.845 4.77 4.297-2.232 4.274 2.277-.793-4.777 3.486-3.362-4.79-.72L6.963 0z"/></svg>