<svg xmlns="http://www.w3.org/2000/svg" width="24.762" height="24.766" viewBox="0 0 24.762 24.766"><path class="svg-help" fill="#ccc" d="M12.38 0C5.555 0 0 5.555 0 12.383s5.554 12.383 12.38 12.383 12.382-5.555 12.382-12.383S19.208 0 12.382 0zm8.227 19.607l-2.888-2.89a6.848 6.848 0 0 0 1.543-4.335 6.854 6.854 0 0 0-1.548-4.342l2.888-2.888a10.91 10.91 0 0 1 2.742 7.23c0 2.77-1.04 5.294-2.738 7.225zm-13.69-7.224c0-3.014 2.45-5.465 5.464-5.465s5.466 2.45 5.466 5.465-2.452 5.465-5.465 5.465-5.464-2.452-5.464-5.465zM19.6 4.15l-2.888 2.89a6.847 6.847 0 0 0-4.33-1.54c-1.644 0-3.152.58-4.337 1.544L5.157 4.156a10.904 10.904 0 0 1 7.224-2.738c2.766 0 5.29 1.037 7.22 2.733zM4.155 5.16l2.888 2.89A6.844 6.844 0 0 0 5.5 12.382c0 1.64.578 3.146 1.54 4.33l-2.89 2.89a10.904 10.904 0 0 1-2.733-7.22c0-2.77 1.04-5.293 2.738-7.225zm.996 15.446l2.89-2.888a6.847 6.847 0 0 0 4.34 1.55c1.644 0 3.152-.58 4.337-1.546l2.888 2.89a10.902 10.902 0 0 1-7.224 2.737c-2.77 0-5.297-1.04-7.23-2.743z"></path></svg>