<svg xmlns="http://www.w3.org/2000/svg" width="44.059" height="48.375" viewBox="0 0 44.059 48.375"><g fill="#010202"><path d="M23.022 4.342V1.984h5.606a.992.992 0 0 0 0-1.984H15.43a.992.992 0 0 0 0 1.984h5.607V4.34C9.35 4.863 0 14.533 0 26.347c0 12.146 9.882 22.03 22.03 22.03 12.147 0 22.03-9.884 22.03-22.03 0-11.814-9.35-21.484-21.038-22.004zm-.992 42.05c-11.053 0-20.045-8.993-20.045-20.046S10.977 6.3 22.03 6.3s20.045 8.993 20.045 20.046S33.083 46.39 22.03 46.39z"></path><path d="M30.987 30.105l-7.965-4.35V12.004a.992.992 0 0 0-1.984 0v14.343c0 .046.02.085.026.13.01.068.018.136.04.2.022.062.054.112.086.167.033.055.063.108.106.157.045.052.1.09.155.13.037.027.063.064.104.087l8.482 4.63a.993.993 0 0 0 .95-1.742z"></path></g></svg>