<svg xmlns="http://www.w3.org/2000/svg" width="37.319" height="16.825" viewBox="0 0 37.319 16.825"><path fill="#005CA9" d="M16.342 14h-3.015L15.21 2.42h3.016L16.342 14zM10.79 2.42l-2.873 7.965-.34-1.715-1.014-5.206S6.44 2.42 5.133 2.42H.38l-.054.197S1.78 2.92 3.48 3.94L6.097 14h3.14l4.797-11.58H10.79zM31.186 9.905l1.584-4.333.89 4.333h-2.474zM34.502 14h2.77L34.856 2.42h-2.424c-1.12 0-1.392.864-1.392.864L26.547 14h3.142l.63-1.72h3.832l.352 1.72zM26.782 5.206l.43-2.487s-1.328-.506-2.71-.506c-1.497 0-5.05.654-5.05 3.833 0 2.992 4.17 3.03 4.17 4.6 0 1.57-3.74 1.29-4.974.3l-.448 2.6s1.346.653 3.403.653 5.16-1.066 5.16-3.964c0-3.01-4.206-3.29-4.206-4.6 0-1.31 2.935-1.14 4.225-.43z"></path><path fill="#F7A823" d="M7.577 8.67L6.563 3.465S6.44 2.42 5.133 2.42H.38l-.054.197S2.61 3.09 4.8 4.864C6.895 6.56 7.578 8.67 7.578 8.67z"></path></svg>