<?xml version="1.0" standalone="no"?>
<!DOCTYPE svg PUBLIC "-//W3C//DTD SVG 1.1//EN" "http://www.w3.org/Graphics/SVG/1.1/DTD/svg11.dtd" >
<svg xmlns="http://www.w3.org/2000/svg" xmlns:xlink="http://www.w3.org/1999/xlink" version="1.1">
<metadata>
Created by FontForge 20170731 at Sat Apr 25 14:55:20 2015
 By ,,,
(c) 1990-2006 Apple Computer Inc. (c) 1981 Linotype AG (c) 1990-91 Type Solutions Inc.
</metadata>
<defs>
<font id="Helvetica-Light" horiz-adv-x="556" >
  <font-face 
    font-family="Helvetica Light"
    font-weight="400"
    font-stretch="normal"
    units-per-em="1000"
    panose-1="0 0 5 0 0 0 0 0 0 0"
    ascent="800"
    descent="-200"
    x-height="518"
    cap-height="714"
    bbox="-164 -250 1345 979"
    underline-thickness="49"
    underline-position="-147"
    unicode-range="U+0020-2215"
  />
<missing-glyph horiz-adv-x="500" 
d="M500 0h-500v700h500v-700zM250 395l170 255h-340zM50 605v-510l170 255zM280 350l170 -255v510zM80 50h340l-170 255z" />
    <glyph glyph-name="fi" unicode="fi" horiz-adv-x="500" 
d="M92 518v82q0 63 25 98q26 36 85 36q18 0 26 -1l24 -3v-55q-22 5 -36 5q-22 0 -36 -8q-12 -8 -19 -23q-5 -12 -7 -31q-2 -24 -2 -36v-64h98v-50h-98v-468h-60v468h-79v50h79zM369 720h66v-89h-66v89zM432 518v-518h-60v518h60z" />
    <glyph glyph-name="fl" unicode="fl" horiz-adv-x="500" 
d="M92 518v82q0 63 25 98q26 36 85 36q18 0 26 -1l24 -3v-55q-22 5 -36 5q-22 0 -36 -8q-12 -8 -19 -23q-5 -12 -7 -31q-2 -24 -2 -36v-64h98v-50h-98v-468h-60v468h-79v50h79zM432 720v-720h-60v720h60z" />
    <glyph glyph-name=".notdef" horiz-adv-x="500" 
d="M500 0h-500v700h500v-700zM250 395l170 255h-340zM50 605v-510l170 255zM280 350l170 -255v510zM80 50h340l-170 255z" />
    <glyph glyph-name=".null" horiz-adv-x="0" 
 />
    <glyph glyph-name="nonmarkingreturn" horiz-adv-x="278" 
 />
    <glyph glyph-name="space" unicode=" " horiz-adv-x="278" 
 />
    <glyph glyph-name="exclam" unicode="!" horiz-adv-x="333" 
d="M203 720v-224l-14 -315h-45l-14 315v224h73zM203 88v-88h-73v88h73z" />
    <glyph glyph-name="quotedbl" unicode="&#x22;" horiz-adv-x="278" 
d="M109 494h-52v226h52v-226zM220 494h-52v226h52v-226z" />
    <glyph glyph-name="numbersign" unicode="#" 
d="M361 0h-59l31 228h-137l-34 -228h-59l34 228h-110v59h119l21 140h-112v59h120l32 212h60l-32 -212h136l31 212h59l-31 -212h100v-59h-108l-20 -140h102v-59h-111zM343 287l20 140h-136l-22 -140h138z" />
    <glyph glyph-name="dollar" unicode="$" 
d="M256 -19q-84 4 -140 47q-56 42 -74 126l-3 25l-2 24h65q0 -33 11 -63q10 -28 32 -52q21 -24 48 -37q31 -15 62 -16v297q-42 11 -77 24q-39 14 -64 35q-27 21 -42 53q-16 31 -16 79q0 43 16 76q17 35 44 58q26 23 63 37q37 12 77 11v61h46v-61q40 0 76 -11q37 -13 61 -34
q26 -23 41 -56q16 -34 17 -75h-65q0 29 -10 50q-9 19 -28 38q-17 15 -41 25q-24 9 -51 9v-266q40 -10 89 -26q37 -12 68 -37q27 -21 44 -59q15 -37 15 -94q0 -44 -19 -78q-20 -36 -49 -59q-31 -23 -70 -37q-36 -12 -78 -14v-76h-46v76zM255 651q-28 0 -52 -9q-26 -9 -43 -25
q-17 -14 -29 -40q-11 -24 -11 -51q0 -31 11 -55t29 -36q18 -15 43 -24q30 -11 52 -17v257zM302 35q29 0 59 11q27 10 48 30t33 46t12 58q0 36 -12 62q-11 22 -32 40q-21 15 -48 24q-22 7 -60 16v-287z" />
    <glyph glyph-name="percent" unicode="%" horiz-adv-x="889" 
d="M616 705h52l-397 -719h-52zM398 532q0 -35 -13 -64q-14 -31 -35 -52q-22 -22 -53 -36q-30 -13 -65 -13t-64 13t-52 36t-36 52t-13 64t13 64q14 31 36 53q23 23 52 36t64 13t65 -13q33 -15 53 -35t35 -53q13 -30 13 -65zM232 424q22 0 42 9q18 7 34 23q15 15 24 35t9 41
t-8 42q-9 19 -24 34t-35 24t-42 9q-20 0 -41 -8q-20 -9 -35 -24q-16 -15 -23 -35q-9 -20 -9 -42q0 -21 9 -41q7 -20 23 -35q15 -16 35 -23q20 -9 41 -9zM658 331q35 0 64 -13q31 -14 52 -35q20 -20 35 -53q12 -30 12 -64t-12 -64q-13 -31 -35 -53q-23 -23 -52 -36t-64 -13
t-64 13q-30 13 -53 36t-36 53q-13 29 -13 64q0 33 14 64t36 53q21 21 52 35q29 13 64 13zM657 274q-23 0 -42 -9q-21 -10 -34 -24q-16 -15 -23 -35q-9 -20 -9 -42q0 -21 9 -40q9 -20 24 -35q16 -16 35 -23q19 -9 40 -9q23 0 42 9t34 24q14 16 23 35q8 21 8 41q0 21 -8 42
q-8 17 -23 34q-15 15 -34 24q-21 8 -42 8z" />
    <glyph glyph-name="ampersand" unicode="&#x26;" horiz-adv-x="667" 
d="M488 186q19 30 25 68q5 38 5 72h59q-1 -49 -12 -97q-10 -48 -38 -91l117 -138h-81l-70 85q-47 -56 -101 -80t-126 -24q-48 0 -88 15q-43 18 -71 44q-32 29 -48 68q-18 39 -18 87q0 38 14 74q12 32 38 62q21 26 54 50q29 19 66 37q-32 39 -53 74q-24 39 -24 87q0 35 13 61
q15 28 35 44q23 18 52 27q28 9 62 9q31 0 61 -11q29 -11 48 -30q22 -22 31 -44q11 -27 11 -54q0 -35 -11 -62q-13 -29 -31 -47q-19 -21 -46 -38q-40 -26 -54 -34zM378 540q9 21 8 43q-1 19 -13 41q-12 17 -32 30q-19 12 -48 12q-19 0 -36 -6q-15 -6 -30 -17q-15 -12 -22 -27
q-8 -18 -8 -36q0 -14 8 -35q6 -17 20 -37q9 -16 24 -34q4 -5 11.5 -15t11.5 -14q31 19 61 40t45 55zM249 375q-29 -13 -55 -33t-44 -44q-20 -24 -30 -51q-11 -30 -11 -57q0 -37 13 -64q13 -31 34 -49q23 -21 51 -31q30 -11 64 -11q58 0 103 27q44 26 80 69z" />
    <glyph glyph-name="quotesingle" unicode="'" horiz-adv-x="222" 
d="M137 494h-52v226h52v-226z" />
    <glyph glyph-name="parenleft" unicode="(" horiz-adv-x="333" 
d="M277 739q-71 -102 -112 -222t-41 -246q0 -125 42 -242q42 -116 111 -220h-51q-45 63 -73 110q-33 56 -54 110q-23 56 -33 116q-11 63 -11 131t12 130q11 61 33 116q23 57 54 110q33 55 72 107h51z" />
    <glyph glyph-name="parenright" unicode=")" horiz-adv-x="333" 
d="M56 -191q73 105 113 223q40 117 40 245q0 125 -42 242q-42 116 -111 220h51q45 -63 73 -110q32 -55 54 -109q21 -55 33 -116q11 -64 11 -132q0 -66 -11 -129q-12 -64 -34 -117q-23 -57 -54 -110q-33 -55 -72 -107h-51z" />
    <glyph glyph-name="asterisk" unicode="*" horiz-adv-x="389" 
d="M215 720v-117l114 42l15 -44l-114 -37l75 -106l-39 -24l-74 108l-78 -106l-35 27l77 101l-112 40l18 42l111 -43v117h42z" />
    <glyph glyph-name="plus" unicode="+" horiz-adv-x="660" 
d="M360 280h220v-60h-220v-220h-60v220h-220v60h220v220h60v-220z" />
    <glyph glyph-name="comma" unicode="," horiz-adv-x="278" 
d="M175 -30q0 -43 -20 -71q-21 -25 -53 -36v37q11 7 23 22q11 14 11 44v34h-34v88h73v-118z" />
    <glyph glyph-name="hyphen" unicode="-" horiz-adv-x="333" 
d="M40 229v62h253v-62h-253z" />
    <glyph glyph-name="period" unicode="." horiz-adv-x="278" 
d="M175 88v-88h-73v88h73z" />
    <glyph glyph-name="slash" unicode="/" horiz-adv-x="278" 
d="M232 739h56l-235 -829h-56z" />
    <glyph glyph-name="zero" unicode="0" 
d="M278 705q52 0 90 -15q39 -17 65 -43q27 -29 43 -63t25 -76q9 -40 12 -84t3 -84q0 -73 -10 -134q-10 -63 -36 -113q-27 -50 -73 -78q-47 -29 -119 -29t-119 29t-73 79q-26 48 -37 115q-10 61 -10 138q0 67 9 131q9 62 35 115q25 49 72 81q46 31 123 31zM452 347
q0 57 -6 112q-8 57 -26 97q-20 45 -53 69q-35 26 -91 26q-52 0 -86 -26q-33 -26 -53 -71q-18 -40 -26 -100q-8 -59 -8 -114q0 -68 9 -123q7 -53 28 -95q20 -39 54 -60q32 -22 84 -22q58 0 92 28t52 72t24 99t6 108z" />
    <glyph glyph-name="one" unicode="1" 
d="M120 566q31 2 73 8q29 4 57 19q24 14 41 41q16 25 24 71h51v-705h-64v524h-182v42z" />
    <glyph glyph-name="two" unicode="2" 
d="M69 474q0 53 16 95q17 42 46 73q31 31 73 47q41 16 94 16q54 0 94 -15q39 -16 68 -42q27 -26 41 -62q14 -37 14 -76q0 -47 -15 -83q-17 -37 -41 -64q-21 -24 -58 -50q-27 -18 -67 -41q-5 -3 -29.5 -17t-37.5 -21q-32 -18 -59 -38l-33 -27q-11 -10 -29 -32
q-13 -16 -21 -37t-9 -46h393v-54h-461q2 56 11 92q11 43 44 80q39 44 77 72q37 28 77 54q66 40 72 43q35 19 60 42q25 22 41 52q15 29 15 71q0 34 -12 61q-12 26 -33 46q-20 18 -49 29q-28 9 -61 9t-63 -14q-30 -16 -49 -39q-22 -25 -32 -56q-11 -32 -9 -68h-68z" />
    <glyph glyph-name="three" unicode="3" 
d="M221 392q45 0 82 6q37 4 64 21q26 15 41 41t15 67q0 33 -12 57q-12 23 -32 38q-20 14 -48 22q-27 7 -58 7q-33 0 -61 -11q-27 -10 -48 -31q-21 -23 -31 -48q-11 -30 -11 -61h-64q0 47 17 87q17 38 51 71q33 30 75 39q43 8 85 8q43 0 79 -10q35 -10 63 -32q27 -22 43 -55
q16 -32 16 -77q0 -54 -24 -95q-25 -39 -76 -62q39 -12 63 -31t38 -43q15 -26 19 -50q5 -28 5 -50q0 -44 -15 -82t-44 -67q-30 -30 -71 -46q-42 -17 -97 -19q-59 0 -106 11q-43 10 -75 37q-31 26 -47 67q-17 42 -23 103h64q0 -82 49 -122q48 -42 126 -42q39 0 71 13
q35 14 57 35q23 22 36 51q12 30 11 60q-1 43 -20 72q-18 29 -48 45t-72 22q-43 5 -87 2v52z" />
    <glyph glyph-name="four" unicode="4" 
d="M36 229l328 469h58v-470h98v-54h-98v-174h-64v174h-322v55zM358 602l-259 -374h259v374z" />
    <glyph glyph-name="five" unicode="5" 
d="M99 183q11 -73 58 -107q47 -36 116 -36q38 0 71 14q30 13 53 39q22 23 34 57q11 33 11 70q0 39 -12 72q-14 35 -35 57t-55 37q-32 13 -73 13q-47 0 -86 -17q-38 -18 -67 -56l-53 7l57 365h350v-54h-296l-44 -237q17 11 39 22q16 9 35 15q24 6 38 7q26 2 43 2q50 0 89 -16
q42 -17 71 -46q31 -31 47 -73t16 -98t-18 -99q-21 -46 -50 -74q-32 -31 -71 -45q-39 -16 -84 -16q-52 0 -93 10q-45 11 -77 34q-33 22 -53 61q-21 37 -25 92h64z" />
    <glyph glyph-name="six" unicode="6" 
d="M437 532q-10 53 -44 87q-34 32 -90 32q-65 0 -102 -31q-39 -33 -58 -78q-19 -48 -27 -104q-4 -31 -11 -106q18 24 32 40q17 21 37 36q20 14 49 25q29 9 67 9q107 0 166 -60q58 -61 58 -167t-59 -168q-58 -61 -167 -61q-53 0 -98 18q-45 16 -78 57q-32 40 -52 105
q-19 63 -19 157q0 60 11 131q10 65 40 123q29 56 78 92t127 36q84 0 140 -44q55 -43 66 -129h-66zM288 388q-36 0 -66 -14t-50 -38q-22 -25 -32 -55q-11 -33 -11 -68q0 -30 9 -60q7 -28 28 -56q19 -24 49 -41q29 -16 74 -16t76 16q29 14 49 41q19 24 28 57q8 34 8 63
q0 82 -39 127q-41 44 -123 44z" />
    <glyph glyph-name="seven" unicode="7" 
d="M508 638q-76 -85 -129 -176q-54 -94 -87 -176q-32 -79 -50 -160q-17 -76 -20 -126h-70q4 72 31 162q25 84 63 169q35 79 86 163q49 80 99 140h-372v64h449v-60z" />
    <glyph glyph-name="eight" unicode="8" 
d="M167 379q-30 20 -44 31q-17 12 -31 31q-13 17 -17 39q-6 21 -6 53q0 37 16 68q17 33 43 56q27 23 64 36q36 13 78 12q42 0 79 -10q40 -11 68 -31q30 -21 48 -53q18 -33 18 -78q0 -56 -22 -94t-74 -64q58 -21 92 -67q33 -46 33 -108q0 -50 -17 -92q-17 -39 -50 -67
q-34 -28 -79 -41q-48 -14 -102 -14q-39 0 -77 13q-39 13 -71 39q-33 27 -52 65q-20 40 -20 91q0 63 32 113t91 72zM276 651q-29 0 -56 -8q-26 -7 -45 -24q-21 -18 -31 -40q-11 -25 -11 -55q0 -34 13 -56q12 -24 33 -39q20 -14 48 -22q29 -8 56 -8t54 8q25 7 43 24t29 43
q10 24 10 64q0 54 -35 84q-35 29 -108 29zM279 345q-37 0 -68 -9t-54 -27q-23 -20 -36 -47t-13 -68q0 -34 13 -61q12 -28 35 -48q23 -21 55 -33q31 -12 72 -12q35 0 65 12q30 10 53 32q20 19 35 50q12 29 12 64q0 38 -13 65q-13 26 -36 46q-23 18 -54 27t-66 9z" />
    <glyph glyph-name="nine" unicode="9" 
d="M118 155q11 -58 45 -86q34 -29 92 -29q64 0 101 31t58 78q21 50 28 102q8 54 9 102l-2 2q-30 -52 -79 -82q-47 -28 -111 -28q-51 0 -90 16q-40 16 -68 46q-29 31 -44 72q-16 41 -16 93q0 48 14 93q14 43 42 74t71 49q43 17 100 17q72 0 119 -28q49 -30 76 -76
q28 -47 40 -113q12 -64 12 -139q0 -91 -19 -157q-20 -70 -53 -114q-34 -46 -82 -69t-103 -23q-43 0 -77 10q-37 11 -63 31q-27 21 -44 53q-16 32 -21 75h65zM268 651q-81 -2 -122 -50q-41 -49 -41 -131t43 -126q42 -45 120 -45q36 0 67 14q29 14 50 38q21 26 31 56t10 67
q0 78 -42 127q-42 48 -116 50z" />
    <glyph glyph-name="colon" unicode=":" horiz-adv-x="278" 
d="M175 492v-88h-73v88h73zM175 88v-88h-73v88h73z" />
    <glyph glyph-name="semicolon" unicode=";" horiz-adv-x="278" 
d="M175 492v-88h-73v88h73zM175 -30q0 -43 -20 -71q-21 -25 -53 -36v37q11 7 23 22q11 14 11 44v34h-34v88h73v-118z" />
    <glyph glyph-name="less" unicode="&#x3c;" horiz-adv-x="660" 
d="M80 229v53l500 223v-64l-421 -186l421 -197v-64z" />
    <glyph glyph-name="equal" unicode="=" horiz-adv-x="660" 
d="M80 378h500v-60h-500v60zM80 184h500v-60h-500v60z" />
    <glyph glyph-name="greater" unicode="&#x3e;" horiz-adv-x="660" 
d="M80 58l421 197l-421 186v64l500 -223v-53l-500 -235v64z" />
    <glyph glyph-name="question" unicode="?" horiz-adv-x="500" 
d="M216 182q-1 53 8 100q7 45 47 86q30 30 46 45q27 25 44 45q23 27 34 46q13 23 13 52q0 28 -10 51q-10 22 -31 41q-19 16 -49 27q-27 10 -66 10t-66 -13q-28 -14 -48 -36q-19 -22 -30 -53q-10 -31 -9 -67h-61q-4 49 11 91q15 41 45 71q28 28 70 45q39 16 90 16
q53 0 92 -13q38 -13 68 -38q28 -25 43 -60t15 -77q0 -46 -19 -75q-20 -33 -48 -59q-38 -36 -58 -54q-30 -29 -52 -62q-18 -27 -19 -57q-2 -42 -2 -62h-58zM283 88v-88h-73v88h73z" />
    <glyph glyph-name="at" unicode="@" horiz-adv-x="800" 
d="M743 167q-23 -42 -59 -78q-35 -35 -77 -59q-42 -23 -91 -37q-48 -12 -97 -12q-80 0 -149 30q-70 30 -121 82q-53 54 -80 122q-29 70 -29 148t30 147q31 69 82 119q51 51 119 81q69 29 144 29q71 0 135 -23q64 -24 110 -66t73 -100q27 -59 27 -127q0 -59 -21 -112
q-23 -54 -55 -93q-34 -40 -75 -63q-42 -24 -82 -24q-26 0 -51 13q-26 12 -35 39q-22 -22 -55 -36t-64 -14q-32 0 -58 12t-44 33q-18 19 -27 47q-10 26 -10 58q0 50 18 104q18 53 51 98t78 73q44 28 101 28q34 0 66 -17q30 -16 46 -49l15 46h67l-101 -302q-5 -15 -9 -31
q-5 -15 -3 -26q2 -12 8 -17q6 -7 21 -7q31 0 60 23q28 22 51 59q21 32 35 78q13 42 13 83q0 59 -23 110q-21 47 -62 83q-38 34 -90 52q-51 18 -108 18q-67 0 -127 -26q-59 -27 -101 -72q-43 -48 -65 -106q-24 -61 -24 -129q0 -70 25 -127q25 -61 67 -103q44 -44 101 -69
q60 -26 126 -26q39 0 77 9t72 27q31 15 64 43q31 28 52 57h59zM337 196q35 0 64 28q32 31 53 68q20 35 35 84q13 42 13 78q0 29 -19 51t-50 22q-41 0 -72 -24q-32 -26 -54 -61q-23 -39 -35 -78q-13 -40 -13 -76q0 -35 20 -64q19 -28 58 -28z" />
    <glyph glyph-name="A" unicode="A" horiz-adv-x="667" 
d="M375 720l276 -720h-70l-83 226h-328l-85 -226h-70l283 720h77zM334 662l-141 -378h282z" />
    <glyph glyph-name="B" unicode="B" horiz-adv-x="667" 
d="M341 720q65 0 108 -13q47 -14 74 -37t41 -57q13 -33 13 -74q0 -39 -10 -65q-11 -29 -26 -46q-15 -18 -36 -29t-43 -15v-2q74 -10 112 -59q36 -48 36 -120q0 -55 -17 -95q-18 -40 -49 -63q-31 -24 -74 -34q-46 -11 -95 -11h-294v720h260zM321 402q53 0 89 9q35 9 58 27
q20 15 32 43q9 25 9 58t-11 58q-11 23 -35 38q-24 13 -62 21q-39 6 -95 6h-157v-260h172zM322 58q51 0 98 5q41 5 68 21q27 15 41 44q13 27 13 75q0 44 -15 73q-15 27 -43 42q-29 15 -67 21q-43 5 -87 5h-181v-286h173z" />
    <glyph glyph-name="C" unicode="C" horiz-adv-x="722" 
d="M592 511q-21 92 -78 131t-149 39q-65 0 -112 -26q-46 -25 -77 -70q-31 -43 -45 -101q-15 -58 -15 -122q0 -62 13 -118q12 -57 41 -103q28 -45 78 -74q49 -28 123 -28q47 0 84 15q39 16 67 42q28 25 48 62q18 33 29 79h71q-11 -49 -35 -98q-23 -48 -60 -82
q-39 -36 -91 -55q-54 -21 -126 -21q-84 0 -142 31q-59 30 -96 82q-39 55 -55 121q-17 70 -17 145q0 102 26 175q26 72 70 118q45 45 106 66q63 20 133 20q53 0 103 -14q45 -15 84 -44q35 -28 60 -71q23 -45 32 -99h-70z" />
    <glyph glyph-name="D" unicode="D" horiz-adv-x="722" 
d="M327 720q40 0 59 -1t57 -7q25 -5 55 -17q24 -10 51 -29q37 -26 59 -63q24 -40 37 -79t19 -84q5 -48 5 -79q0 -40 -4 -73q-5 -38 -15 -72q-12 -41 -26 -68q-16 -33 -42 -60q-26 -28 -54 -45q-31 -17 -62 -26q-31 -10 -68 -13q-31 -4 -71 -4h-246v720h246zM312 58
q46 0 87 6q40 4 82 27q37 19 59 49q25 35 37 68q13 34 19 76q5 45 5 77q0 35 -5 80q-4 35 -19 77q-13 34 -38 67q-24 30 -62 50q-34 18 -76 22q-48 5 -89 5h-163v-604h163z" />
    <glyph glyph-name="E" unicode="E" horiz-adv-x="611" 
d="M560 720v-58h-411v-260h371v-58h-371v-286h421v-58h-489v720h479z" />
    <glyph glyph-name="F" unicode="F" 
d="M538 720v-58h-396v-260h360v-58h-360v-344h-68v720h464z" />
    <glyph glyph-name="G" unicode="G" horiz-adv-x="778" 
d="M695 372v-372h-58v123q-22 -36 -43 -58q-26 -27 -57 -45q-28 -18 -74 -29q-40 -10 -95 -10q-68 0 -126 24t-100 72q-43 47 -65 119q-24 72 -24 168q0 77 20 148q19 67 62 119q42 51 104 79q63 29 147 29q56 0 107 -14q48 -13 89 -42q38 -28 66 -71q27 -44 39 -101h-70
q-9 41 -30 72q-23 32 -52 54q-30 21 -67 33q-39 11 -77 11q-72 0 -122 -25q-52 -26 -84 -70q-33 -47 -48 -109q-16 -63 -16 -140q0 -60 18 -114q17 -55 51 -95q34 -42 82 -65q48 -24 110 -24q31 0 60 7q32 6 60 21t54 39q24 23 43 59q17 35 24 71q5 33 7 78h-243v58h308z
" />
    <glyph glyph-name="H" unicode="H" horiz-adv-x="722" 
d="M148 720v-309h426v309h68v-720h-68v353h-426v-353h-68v720h68z" />
    <glyph glyph-name="I" unicode="I" horiz-adv-x="278" 
d="M173 720v-720h-68v720h68z" />
    <glyph glyph-name="J" unicode="J" horiz-adv-x="500" 
d="M90 228q0 -34 3 -67q2 -34 15 -59q12 -26 39 -43q25 -16 73 -16q71 0 99 40t28 116v521h68v-523q0 -105 -49 -160q-49 -56 -154 -56q-60 0 -98 21q-37 19 -57 55q-20 34 -28 79q-7 41 -7 92h68z" />
    <glyph glyph-name="K" unicode="K" horiz-adv-x="667" 
d="M153 720v-373l369 373h77l-284 -287l334 -433h-83l-300 391l-113 -113v-278h-68v720h68z" />
    <glyph glyph-name="L" unicode="L" 
d="M149 720v-662h386v-58h-454v720h68z" />
    <glyph glyph-name="M" unicode="M" horiz-adv-x="833" 
d="M182 720l236 -635h2l232 635h103v-720h-68v642h-2l-236 -642h-64l-237 642h-2v-642h-68v720h104z" />
    <glyph glyph-name="N" unicode="N" horiz-adv-x="722" 
d="M147 0h-68v720h77l416 -629h2v629h68v-720h-79l-414 628h-2v-628z" />
    <glyph glyph-name="O" unicode="O" horiz-adv-x="778" 
d="M53 359q0 81 22 148q21 68 63 121q42 51 104 81q61 30 143 30t148 -29q62 -30 106 -81q41 -52 64 -121q21 -70 21 -149t-21 -146q-23 -70 -64 -120q-41 -52 -105 -82q-63 -30 -146 -30t-146 30q-64 30 -105 82q-42 51 -63 120q-21 67 -21 146zM389 39q70 0 121 27
q49 25 83 70q31 44 48 102q15 58 15 121q0 75 -18 135q-20 59 -54 101q-33 40 -85 64q-48 22 -112 22q-69 0 -119 -27q-51 -27 -83 -71q-33 -45 -48 -103q-16 -57 -16 -121q0 -65 16 -122q15 -59 48 -102q32 -45 83 -70q50 -26 121 -26z" />
    <glyph glyph-name="P" unicode="P" horiz-adv-x="611" 
d="M341 720q71 0 116 -16q46 -17 72 -44q27 -30 37 -64q10 -36 10 -77q0 -60 -24 -99q-25 -39 -64 -61q-40 -23 -88 -32q-49 -9 -100 -9h-154v-318h-68v720h263zM302 376q48 0 86 6q37 6 65 23q26 17 41 45q14 30 14 74q0 68 -44 103q-46 35 -142 35h-176v-286h156z" />
    <glyph glyph-name="Q" unicode="Q" horiz-adv-x="778" 
d="M563 30q-37 -22 -81 -36q-43 -13 -99 -13q-83 0 -146 30q-64 30 -105 82q-42 51 -63 120q-21 67 -21 146q0 75 21 144q19 67 61 121q40 52 104 84q61 31 146 31q77 0 139 -25q63 -26 107 -73q43 -48 69 -119q24 -71 24 -163q0 -88 -27 -163q-27 -76 -81 -128l96 -74
l-38 -46zM561 107q45 42 68 111q22 65 22 141q0 79 -20 141q-21 61 -57 101q-36 41 -85 60q-51 20 -107 20q-70 0 -119 -27q-52 -27 -83 -72q-33 -45 -48 -103q-16 -57 -16 -120q0 -65 16 -122q15 -59 48 -102q32 -45 83 -70q50 -26 121 -26q38 0 69 9q30 7 57 23l-82 63
l36 47z" />
    <glyph glyph-name="R" unicode="R" horiz-adv-x="667" 
d="M80 0v720h282q118 0 182 -44q63 -45 63 -145q0 -67 -27 -108q-27 -39 -90 -68q32 -11 50 -32t27 -48t12 -57l3 -58q2 -48 4 -68q2 -28 6 -44q3 -16 8 -26q4 -10 12 -15v-7h-75q-10 18 -15 50q-6 41 -7 67q-2 22 -4 68q-1 33 -6 54q-6 30 -19 47q-14 17 -33 26t-42 12
q-24 3 -49 3h-214v-327h-68zM360 385q36 0 71 8q31 7 56 26q24 17 38 44q14 28 14 65q0 40 -14 66q-15 26 -39 41q-26 15 -56 21q-32 6 -66 6h-216v-277h212z" />
    <glyph glyph-name="S" unicode="S" horiz-adv-x="611" 
d="M109 215q5 -49 22 -81q16 -34 45 -55q27 -21 63 -30q34 -10 77 -10q48 0 83 12t57 33q22 19 33 47q10 26 10 57q0 43 -19 68q-21 28 -49 43t-70 26q-13 3 -40 9.5t-41 10.5q-46 10 -81 22q-42 14 -70 35q-30 21 -50 57q-19 34 -19 87q0 39 16 72q16 36 46 62q29 26 76 43
q45 16 106 16q59 0 107 -17q43 -16 75 -46q30 -30 45 -69t15 -83h-65q0 40 -14 71q-15 30 -40 49q-24 19 -57 28q-32 9 -66 9q-51 0 -87 -14q-35 -15 -57 -38t-29 -51t-3 -56q6 -36 28 -56t54 -34q35 -15 71 -22l78 -18q50 -13 78 -23q40 -14 66 -35q30 -24 47 -56
q17 -36 17 -87q0 -99 -69 -155q-68 -55 -194 -55q-54 0 -104 14q-49 15 -83 45q-34 28 -54 73t-20 102h66z" />
    <glyph glyph-name="T" unicode="T" 
d="M540 662h-228v-662h-68v662h-228v58h524v-58z" />
    <glyph glyph-name="U" unicode="U" horiz-adv-x="722" 
d="M150 291q0 -134 50 -193t161 -59q60 0 99 16q38 14 65 47q25 32 36 78q11 49 11 111v429h68v-449q0 -141 -69 -215q-71 -75 -210 -75q-141 0 -210 76q-69 77 -69 214v449h68v-429z" />
    <glyph glyph-name="V" unicode="V" horiz-adv-x="611" 
d="M306 80l216 640h71l-250 -720h-75l-250 720h71z" />
    <glyph glyph-name="W" unicode="W" horiz-adv-x="889" 
d="M805 720h70l-189 -720h-75l-167 636h-2l-167 -636h-75l-186 720h68l155 -624h2l167 624h76l164 -624h2z" />
    <glyph glyph-name="X" unicode="X" horiz-adv-x="611" 
d="M18 0l248 370l-238 350h79l197 -303l198 303h79l-236 -350l247 -370h-78l-210 318l-209 -318h-77z" />
    <glyph glyph-name="Y" unicode="Y" horiz-adv-x="611" 
d="M598 720l-261 -406v-314h-68v309l-257 411h78l212 -347l217 347h79z" />
    <glyph glyph-name="Z" unicode="Z" horiz-adv-x="611" 
d="M492 662h-422v58h506v-57l-461 -605h464v-58h-548v57z" />
    <glyph glyph-name="bracketleft" unicode="[" horiz-adv-x="333" 
d="M282 739v-50h-127v-830h125v-50h-189v930h191z" />
    <glyph glyph-name="backslash" unicode="\" horiz-adv-x="278" 
d="M281 -90h-56l-235 829h56z" />
    <glyph glyph-name="bracketright" unicode="]" horiz-adv-x="333" 
d="M51 -141h127v830h-125v50h189v-930h-191v50z" />
    <glyph glyph-name="asciicircum" unicode="^" horiz-adv-x="660" 
d="M355 698l231 -453h-57l-201 392l-197 -392h-58l230 453h52z" />
    <glyph glyph-name="underscore" unicode="_" horiz-adv-x="500" 
d="M0 -125v50h500v-50h-500z" />
    <glyph glyph-name="grave" unicode="`" horiz-adv-x="333" 
d="M234 574h-51l-138 139h78z" />
    <glyph glyph-name="a" unicode="a" 
d="M310 302q17 2 41 6q27 5 38 11q14 7 19 24q3 17 3 30q0 45 -29 76q-31 29 -100 29q-29 0 -57 -5q-27 -6 -45 -19q-20 -14 -32 -36q-12 -20 -17 -57h-61q3 46 21 79q18 32 47 53q28 19 66 30q37 9 79 9q37 0 74 -8q35 -9 60 -27q25 -19 40 -50q14 -33 14 -76v-282
q0 -35 13 -44q11 -10 50 4v-47q-5 -1 -20 -6q-12 -4 -27 -4q-13 0 -27 3q-16 2 -24 10q-10 8 -14 18q-7 12 -8 23q-2 16 -2 26q-37 -41 -87 -64q-48 -22 -106 -22q-33 0 -65 9q-33 9 -56 28q-26 21 -38 47q-14 28 -14 65q0 132 181 156zM411 272q-37 -16 -77 -21
q-52 -6 -78 -8q-68 -4 -107 -31q-39 -26 -39 -79q0 -25 10 -41q10 -19 25 -29q16 -13 36 -17q19 -6 41 -6q36 0 70 9q35 9 61 28q25 18 42 47q16 28 16 67v81z" />
    <glyph glyph-name="b" unicode="b" horiz-adv-x="611" 
d="M79 720h60v-285q28 47 80 73q49 24 105 24q60 0 103 -22t72 -60q28 -37 42 -88t14 -104q0 -59 -13 -107q-14 -52 -41 -86q-27 -36 -73 -58q-44 -21 -107 -21q-27 0 -51 7q-30 9 -50 20q-26 13 -45 33q-20 19 -34 45h-2v-91h-60v720zM139 261q0 -47 12 -87q11 -42 33 -70
q23 -31 55 -47q34 -17 75 -17q37 0 70 14q32 14 56 39q24 26 38 64q13 36 13 86q2 52 -8 92q-11 45 -32 74q-23 32 -56 51q-35 18 -81 18q-41 0 -73 -17q-31 -17 -55 -47q-23 -31 -35 -69q-12 -41 -12 -84z" />
    <glyph glyph-name="c" unicode="c" 
d="M439 355q-16 58 -55 91q-40 32 -99 32q-47 0 -79 -19q-34 -20 -54 -50t-31 -71q-10 -39 -10 -80q0 -43 10 -80q9 -38 30 -70q20 -31 54 -49q32 -19 80 -19q68 0 108 37q41 37 51 102h64q-7 -40 -25 -78q-18 -35 -45 -61q-30 -27 -66 -40q-39 -14 -87 -14q-62 0 -107 21
q-46 22 -74 58q-30 38 -43 86q-14 51 -14 107t16 104q15 50 45 87q31 39 75 61q43 22 102 22q91 0 146 -43q56 -44 69 -134h-61z" />
    <glyph glyph-name="d" unicode="d" horiz-adv-x="611" 
d="M532 0h-60v91h-2q-14 -25 -33 -45q-21 -20 -45 -33q-21 -11 -51 -20q-24 -7 -51 -7q-64 0 -107 21q-44 21 -72 58q-28 36 -42 86q-13 48 -13 107q0 53 14 104q13 49 43 88q29 38 72 60t102 22q55 0 106 -24q51 -26 79 -73v285h60v-720zM472 261q0 43 -12 84
q-12 40 -34 69q-22 28 -55 47q-34 17 -74 17q-47 0 -81 -18q-33 -19 -56 -51q-21 -29 -32 -74q-10 -40 -8 -92q0 -47 14 -86q14 -40 37 -64q24 -25 56 -39q33 -14 70 -14q41 0 75 17q32 16 55 47q21 27 34 70q11 42 11 87z" />
    <glyph glyph-name="e" unicode="e" 
d="M109 245q0 -40 11 -79q11 -38 33 -65q20 -27 54 -44t76 -17q60 0 101 31q43 32 56 88h67q-9 -34 -29 -68q-19 -33 -45 -55q-26 -23 -64 -37q-36 -13 -86 -13q-62 0 -107 21q-46 22 -74 58q-30 38 -43 86q-14 51 -14 106q0 56 17 107q18 53 47 88q28 35 74 59
q44 21 100 21q107 0 168 -73q62 -74 60 -214h-402zM447 295q0 39 -10 72q-10 30 -31 58q-21 24 -52 39q-33 14 -71 14q-40 0 -70 -15q-31 -15 -52 -40q-21 -24 -35 -58q-12 -30 -17 -70h338z" />
    <glyph glyph-name="f" unicode="f" horiz-adv-x="278" 
d="M97 518v82q0 63 25 98q26 36 85 36q18 0 26 -1l24 -3v-55q-22 5 -36 5q-22 0 -36 -8q-12 -8 -19 -23q-5 -12 -7 -31q-2 -24 -2 -36v-64h100v-50h-100v-468h-60v468h-77v50h77z" />
    <glyph glyph-name="g" unicode="g" horiz-adv-x="611" 
d="M532 50q0 -54 -10 -100t-38 -83q-26 -35 -74 -58q-47 -21 -121 -21q-56 0 -98 14q-43 16 -67 37q-26 23 -39 48q-13 27 -15 50h64q8 -29 22 -48q16 -19 36 -29q17 -9 45 -14q23 -4 52 -4q61 0 98 21q36 20 56 55q19 34 25 77q5 51 4 88q-28 -47 -79 -72q-50 -25 -106 -25
q-60 0 -102 23q-43 23 -72 60q-30 40 -43 87q-14 51 -14 104q0 59 13 107q13 49 42 87q29 36 72 57q44 21 107 21q27 0 51 -7q30 -9 51 -20q24 -13 45 -33q19 -20 33 -45h2v91h60v-468zM472 257q0 46 -11 88q-12 41 -34 70q-24 31 -55 46q-34 17 -75 17q-40 0 -70 -13
q-31 -13 -56 -40q-23 -25 -37 -63q-14 -39 -14 -87q-2 -53 8 -91q11 -46 32 -75q24 -33 56 -50q34 -19 81 -19q41 0 74 18q33 17 55 47q22 27 34 69q12 39 12 83z" />
    <glyph glyph-name="h" unicode="h" 
d="M132 720v-274q37 39 75 62q38 24 92 24q50 0 89 -16q40 -16 69 -58q18 -27 23 -57q3 -30 3 -62v-339h-60v338q0 71 -31 105q-32 35 -103 35q-27 0 -51 -8q-22 -9 -41 -23q-17 -12 -32 -32q-11 -15 -20 -38q-10 -27 -11 -48q-2 -30 -2 -50v-279h-60v720h60z" />
    <glyph glyph-name="i" unicode="i" horiz-adv-x="222" 
d="M144 720v-89h-66v89h66zM141 518v-518h-60v518h60z" />
    <glyph glyph-name="j" unicode="j" horiz-adv-x="222" 
d="M85 720h66v-89h-66v89zM148 -69q0 -33 -3 -58q-3 -26 -13 -43q-11 -17 -31 -26q-22 -8 -57 -8q-24 0 -39 4v53q23 -3 42 -1q16 3 25 12q8 8 13 24q3 15 3 35v595h60v-587z" />
    <glyph glyph-name="k" unicode="k" horiz-adv-x="500" 
d="M128 720v-448l254 246h82l-194 -187l217 -331h-67l-194 289l-98 -93v-196h-60v720h60z" />
    <glyph glyph-name="l" unicode="l" horiz-adv-x="222" 
d="M141 720v-720h-60v720h60z" />
    <glyph glyph-name="m" unicode="m" horiz-adv-x="833" 
d="M64 518h60v-78h2q22 45 66 69q44 23 94 23q34 0 61 -8q25 -7 43 -21q17 -14 29 -32q13 -22 19 -39q25 49 70 76q44 24 99 24q53 0 85 -17q32 -18 48 -46q17 -30 23 -66q5 -42 5 -76v-327h-60v358q0 56 -23 88q-24 32 -88 32q-32 0 -63 -14q-32 -15 -54 -45
q-10 -12 -16 -30q-6 -13 -11 -37q-3 -14 -5 -38q-2 -26 -2 -35v-279h-60v358q0 56 -23 88q-24 32 -88 32q-32 0 -63 -14q-32 -15 -54 -45q-10 -12 -16 -30q-6 -13 -11 -37q-3 -14 -5 -38q-2 -26 -2 -35v-279h-60v518z" />
    <glyph glyph-name="n" unicode="n" 
d="M72 518h60v-72q37 39 75 62q38 24 92 24q50 0 89 -16q40 -16 69 -58q18 -27 23 -57q3 -30 3 -62v-339h-60v338q0 71 -31 105q-32 35 -103 35q-27 0 -51 -8q-22 -9 -41 -23q-17 -12 -32 -32q-11 -15 -20 -38q-10 -27 -11 -48q-2 -30 -2 -50v-279h-60v518z" />
    <glyph glyph-name="o" unicode="o" 
d="M278 -14q-50 2 -93 18q-45 17 -76 51q-32 34 -52 85q-19 50 -19 119q0 57 15 107q15 48 45 86q29 36 75 59q45 21 105 21q61 0 106 -21q46 -23 75 -58q30 -37 45 -87q14 -51 14 -107q0 -61 -17 -112q-17 -50 -48 -86q-30 -34 -76 -55q-43 -20 -99 -20zM454 259
q0 47 -10 86q-11 41 -31 70q-22 30 -54 46q-34 17 -81 17t-80 -18q-34 -19 -55 -49q-20 -31 -31 -70q-10 -39 -10 -82q0 -47 12 -88q11 -42 33 -70q23 -29 55 -45t76 -16q47 0 81 19q34 18 54 49t31 70q10 37 10 81z" />
    <glyph glyph-name="p" unicode="p" horiz-adv-x="611" 
d="M79 518h60v-91h2q14 26 34 45q19 20 45 33q20 11 50 20q24 7 51 7q63 0 107 -21q45 -22 73 -57q27 -35 41 -87q13 -48 13 -107q0 -53 -14 -104q-13 -50 -42 -87t-72 -60q-42 -23 -103 -23q-56 0 -105 25q-52 24 -80 72v-287h-60v722zM139 257q0 -44 12 -83t35 -69
q23 -31 55 -47q31 -18 73 -18q47 0 81 19q32 17 56 50q21 29 32 75q10 38 8 91q0 51 -13 87q-13 37 -38 63q-25 27 -56 40q-30 13 -70 13q-41 0 -75 -17q-31 -15 -55 -46q-23 -30 -33 -70q-12 -41 -12 -88z" />
    <glyph glyph-name="q" unicode="q" horiz-adv-x="611" 
d="M532 -204h-60v287q-28 -47 -79 -72q-50 -25 -106 -25q-60 0 -102 23q-43 23 -72 60q-30 40 -43 87q-14 51 -14 104q0 59 13 107q13 49 42 87q29 36 72 57q44 21 107 21q27 0 51 -7q30 -9 51 -20q24 -13 45 -33q19 -20 33 -45h2v91h60v-722zM472 261q0 43 -12 84
q-12 40 -34 69q-22 28 -55 47q-34 17 -74 17q-47 0 -81 -18q-33 -19 -56 -51q-21 -29 -32 -74q-10 -40 -8 -92q0 -47 14 -86q14 -40 37 -64q24 -25 56 -39q33 -14 70 -14q41 0 75 17q32 16 55 47q21 27 34 70q11 42 11 87z" />
    <glyph glyph-name="r" unicode="r" horiz-adv-x="333" 
d="M75 518h60v-97h2q26 62 65 87q39 24 104 24v-65q-49 1 -84 -16q-31 -16 -52 -46q-19 -28 -27 -68q-8 -43 -8 -83v-254h-60v518z" />
    <glyph glyph-name="s" unicode="s" horiz-adv-x="500" 
d="M107 162q13 -67 51 -94q35 -28 104 -28q31 0 57 8q21 7 40 22q16 14 23 30q8 18 8 36q0 38 -24 57q-27 19 -62 29q-39 11 -80 18q-44 8 -80 22q-37 15 -61 43q-25 28 -25 79q0 65 48 107q47 41 134 41q85 0 137 -37q53 -37 63 -126h-61q-7 59 -45 85q-38 24 -95 24
t-87 -24q-30 -26 -30 -65q0 -35 25 -53q24 -20 61 -30q39 -13 80 -21q44 -9 80 -25t62 -45q24 -29 24 -78q0 -37 -16 -65q-17 -30 -44 -48q-26 -18 -66 -29q-39 -9 -85 -9q-48 0 -81 13q-37 15 -61 38q-25 24 -39 56q-15 34 -16 69h61z" />
    <glyph glyph-name="t" unicode="t" horiz-adv-x="278" 
d="M254 -2q-2 0 -29 -7q-20 -5 -40 -5q-46 0 -68 23q-24 22 -24 80v379h-73v50h73v144h60v-144h97v-50h-97v-355q0 -24 1 -33q2 -14 6 -23q4 -8 16 -13q9 -4 29 -4q7 0 25 2q8 1 24 5v-49z" />
    <glyph glyph-name="u" unicode="u" 
d="M483 0h-60v72q-16 -18 -27 -29q-16 -16 -34 -27q-17 -12 -46 -22q-27 -8 -60 -8q-52 0 -87 15q-34 13 -56 40q-21 24 -31 61q-10 33 -10 75v341h60v-340q0 -68 31 -102q31 -36 102 -36q37 0 67 15q29 14 49 40q21 27 31 62q11 38 11 79v282h60v-518z" />
    <glyph glyph-name="v" unicode="v" horiz-adv-x="500" 
d="M250 74l168 444h65l-201 -518h-67l-198 518h65z" />
    <glyph glyph-name="w" unicode="w" horiz-adv-x="722" 
d="M707 518l-168 -518h-64l-113 435h-2l-115 -435h-72l-158 518h60l134 -442l120 442h67l114 -438l136 438h61z" />
    <glyph glyph-name="x" unicode="x" horiz-adv-x="500" 
d="M18 0l199 268l-183 250h74l143 -206l147 206h76l-187 -250l194 -268h-72l-157 224l-161 -224h-73z" />
    <glyph glyph-name="y" unicode="y" horiz-adv-x="500" 
d="M68 -141q4 0 12 -1.5t13 -2.5q16 -2 25 -2q25 0 41 16q17 17 27 38q7 15 17 47q8 27 16 42l-201 522h67l166 -445l166 445h65l-193 -511q-20 -54 -34 -88q-15 -35 -35 -67q-20 -28 -41 -42q-23 -14 -54 -14q-12 0 -30 2q-12 1 -27 5v56z" />
    <glyph glyph-name="z" unicode="z" horiz-adv-x="500" 
d="M377 468h-321v50h398v-53l-344 -415h357v-50h-434v53z" />
    <glyph glyph-name="braceleft" unicode="{" horiz-adv-x="333" 
d="M127 577q0 46 7 75q6 31 23 51t44 27q32 8 71 7q-81 -29 -81 -121v-192q0 -29 -3 -53q-3 -23 -12 -43q-9 -19 -25 -32q-17 -14 -42 -21v-2q49 -11 66 -45q16 -33 16 -90v-206q0 -50 20 -79q19 -28 68 -42v-2q-41 -1 -73 7q-30 8 -47 26q-17 17 -25 45q-7 27 -7 66v204
q0 46 -15 76q-16 30 -67 40v2q24 6 44 19q16 10 25 24q8 15 11 33q2 26 2 44v182z" />
    <glyph glyph-name="bar" unicode="|" horiz-adv-x="222" 
d="M81 -250v1000h60v-1000h-60z" />
    <glyph glyph-name="braceright" unicode="}" horiz-adv-x="333" 
d="M203 395q0 -47 16 -76q15 -29 66 -40v-2q-27 -7 -44 -18q-16 -10 -24 -25q-10 -14 -11 -33q-3 -19 -3 -44v-182q0 -43 -6 -75q-8 -33 -23 -51q-16 -19 -45 -28q-28 -7 -71 -6q81 29 81 121v192q0 29 3 53q3 23 12 43t25 33q15 12 42 20v2q-23 5 -41 17q-15 9 -25 28
q-9 16 -12 40q-4 20 -4 50v206q0 50 -20 79q-19 28 -68 42v2q40 1 74 -7q29 -8 47 -26q16 -18 24 -45q7 -27 7 -66v-204z" />
    <glyph glyph-name="asciitilde" unicode="~" horiz-adv-x="660" 
d="M221 324q25 0 58 -11q24 -8 59 -25q46 -21 57 -25q27 -11 46 -11q17 0 32 9q14 7 28 21q11 13 22 28q4 6 17 29l40 -34q-10 -19 -24 -39q-13 -18 -31 -35q-17 -16 -39 -25q-20 -10 -46 -10q-12 0 -32 5q-24 6 -36 11q-16 5 -36 14q-20 8 -31 12q-13 5 -41 19
q-22 11 -43 11q-19 0 -36 -9q-13 -7 -29 -23q-11 -11 -23 -30l-20 -32l-33 47q3 4 25 34q12 16 30 34q15 13 38 25q20 10 48 10z" />
    <glyph glyph-name="uni00A0" unicode="&#xa0;" horiz-adv-x="278" 
 />
    <glyph glyph-name="exclamdown" unicode="&#xa1;" horiz-adv-x="333" 
d="M203 532v-87h-73v87h73zM203 -187h-73v224l14 315h45l14 -315v-224z" />
    <glyph glyph-name="cent" unicode="&#xa2;" 
d="M232 47q16 -4 25 -5q16 -2 26 -2q68 0 108 37q41 37 51 102h64q-6 -38 -23 -74t-45 -61q-29 -27 -67 -42q-38 -16 -88 -16q-13 0 -35 2q-16 2 -33 6l-45 -135h-47l49 150q-66 31 -96 98q-31 65 -31 151q0 66 18 117t50 86t76 53q43 18 94 18q21 0 31 -1l28 -4l40 120h48
l-44 -134q94 -40 112 -158h-61q-18 70 -70 101zM324 473q-8 2 -20 4q-7 1 -21 1q-47 0 -79 -19q-34 -20 -54 -50t-31 -71q-10 -39 -10 -80q0 -55 20 -109q20 -53 62 -81z" />
    <glyph glyph-name="sterling" unicode="&#xa3;" 
d="M199 323q6 -22 8 -33q3 -18 3 -35q0 -27 -8 -54t-21 -49q-11 -20 -31 -45q-12 -14 -36 -40l2 -2q16 9 42 19q24 8 47 8q35 0 57 -6q30 -10 43 -15q26 -10 39 -14q18 -7 44 -7q34 0 60 17q23 15 48 40l34 -51q-26 -23 -41 -33q-24 -17 -38 -22q-19 -7 -42 -12
q-23 -3 -53 -3q-19 0 -37 7q-19 7 -42 15l-46 15q-22 7 -52 7q-27 0 -54 -11q-8 -4 -25 -11t-26 -11l-35 58q43 31 75 78q31 46 31 102q0 46 -21 88h-99v42h81q-7 15 -15 29q-11 16 -18 34q-9 20 -14 41q-6 23 -6 53q0 37 14 73q13 32 42 58q30 25 70 38q42 14 97 14
q49 0 91 -15t73 -43q31 -30 47 -68q17 -43 16 -91h-66q-3 79 -45 121q-44 42 -115 42q-29 0 -59 -8q-28 -7 -51 -24t-36 -42q-14 -26 -14 -58q0 -24 7 -42q7 -22 16 -38q11 -21 22 -37t22 -37h166v-42h-151z" />
    <glyph glyph-name="currency" unicode="&#xa4;" 
d="M75 152q-23 34 -36 70q-12 34 -12 78t11 80q10 33 37 71l-43 43l52 53l44 -43q36 27 73 38q41 11 81 11q44 0 77 -13q35 -14 69 -36l44 43l52 -53l-43 -43q28 -40 37 -73q11 -39 11 -83q0 -42 -12 -75q-14 -34 -36 -68l43 -42l-52 -53l-44 43q-68 -50 -155 -50
q-41 0 -77 14t-68 36l-44 -43l-52 53zM282 481q-39 1 -73 -12q-33 -13 -58 -38q-26 -26 -39 -58q-14 -37 -13 -73q-1 -34 13 -68q14 -33 39 -57q24 -25 57 -39q32 -15 68 -15q35 0 71 14q32 13 58 39q24 24 39 58q14 34 14 71q0 35 -14 69q-13 31 -38 57q-24 24 -56 39
q-34 14 -68 13z" />
    <glyph glyph-name="yen" unicode="&#xa5;" 
d="M552 720l-171 -286h111v-54h-144l-38 -66v-42h182v-54h-182v-218h-64v218h-182v54h182v42l-38 66h-144v54h111l-171 286h76l197 -347l202 347h73z" />
    <glyph glyph-name="brokenbar" unicode="&#xa6;" horiz-adv-x="222" 
d="M81 325v350h60v-350h-60zM81 -175v350h60v-350h-60z" />
    <glyph glyph-name="section" unicode="&#xa7;" 
d="M150 184q-47 30 -75 65q-27 35 -27 86t31 88q30 36 76 56q-22 25 -38 52q-15 25 -15 63q0 29 12 56q11 26 34 46t57 32q36 11 78 11q84 0 129 -48q45 -49 44 -131h-54q-1 61 -31 94q-28 31 -93 31q-48 0 -80 -23q-32 -24 -32 -74q0 -33 26 -61q26 -27 63 -51
q34 -23 82 -48q48 -26 82 -51q40 -29 64 -60q25 -34 25 -77q0 -28 -9 -51t-24 -41q-13 -17 -35 -34q-20 -15 -42 -30q8 -8 15 -14q10 -10 20 -23q7 -11 16 -32q7 -18 7 -41q0 -37 -14 -67q-14 -29 -38 -49q-22 -18 -56 -29q-30 -10 -68 -10q-85 0 -133 49q-48 48 -53 133h61
q0 -61 32 -95q31 -33 94 -33q21 0 41 6t36 18q13 11 25 29q9 18 9 41q0 24 -10 44q-10 19 -27 36t-36 30q-7 5 -20.5 14t-17.5 11zM190 447q-40 -16 -64 -42q-24 -25 -24 -62q0 -17 8 -35q6 -13 20 -29t27 -25q10 -8 30 -22l178 -115q4 2 32 20q11 7 29 25q13 13 21 31
q7 15 7 37q0 19 -8 37q-10 18 -22 30q-14 13 -30 24q-4 2 -14.5 9.5t-16.5 10.5z" />
    <glyph glyph-name="dieresis" unicode="&#xa8;" horiz-adv-x="333" 
d="M125 584h-65v102h65v-102zM284 584h-65v102h65v-102z" />
    <glyph glyph-name="copyright" unicode="&#xa9;" horiz-adv-x="800" 
d="M401 -19q-79 0 -148 30q-70 30 -120 82q-52 50 -82 120q-30 69 -30 148q0 78 30 147q30 70 82 120q51 51 120 81t148 30q78 0 147 -30q68 -30 121 -81q51 -51 81 -120q29 -70 29 -147q0 -78 -29 -148q-30 -69 -81 -120q-52 -52 -121 -82t-147 -30zM401 31q68 0 128 26
q58 25 100 70q42 43 66 104q24 60 24 130q0 69 -24 129q-24 61 -66 104q-44 46 -100 70q-57 25 -128 25t-128 -25q-58 -25 -101 -70q-42 -42 -67 -104q-24 -60 -24 -129q0 -70 24 -130q25 -62 67 -104q41 -44 101 -70t128 -26zM593 292q-3 -34 -18 -61q-16 -27 -40 -47
q-22 -18 -54 -29q-29 -10 -63 -10q-47 0 -86 17q-37 16 -66 46q-28 28 -43 69t-15 87q0 45 14 87q13 39 41 68q29 30 66 46q36 16 86 16q69 0 118 -37q50 -38 60 -106h-54q-7 44 -43 72q-35 27 -80 27q-39 0 -66 -13q-26 -13 -46 -37q-19 -23 -28 -55q-10 -30 -10 -67
q0 -36 10 -66q11 -32 30 -56q20 -26 47 -39q29 -15 65 -15q23 0 43 7q21 8 37 21q17 14 27 32q11 21 14 43h54z" />
    <glyph glyph-name="ordfeminine" unicode="&#xaa;" horiz-adv-x="334" 
d="M206 604q11 1 25 7q11 5 12 14q2 14 2 18q0 28 -19 47t-65 19q-42 0 -67 -16q-27 -17 -31 -57h-40q4 55 44 79q39 24 95 24q23 0 48 -5q20 -4 39 -16q15 -11 26 -30q9 -20 9 -46v-169q0 -21 8 -26q7 -6 33 2v-28q-12 -4 -18 -5q-11 -2 -30 0q-20 3 -25 17q-5 12 -7 30
q-49 -52 -125 -52q-22 0 -42 6q-19 4 -36 16q-15 9 -25 28q-9 17 -9 39q0 79 117 94l54 7zM245 583q-24 -10 -50 -13q-34 -4 -51 -5q-46 -3 -71 -18q-26 -17 -26 -48q0 -29 24 -43q23 -15 51 -15q22 0 45 6q21 4 40 17q18 11 28 29q10 16 10 41v49z" />
    <glyph glyph-name="guillemotleft" unicode="&#xab;" 
d="M259 341l-104 -82l104 -80v-62l-146 111v63l146 113v-63zM443 341l-104 -82l104 -80v-62l-146 111v63l146 113v-63z" />
    <glyph glyph-name="logicalnot" unicode="&#xac;" horiz-adv-x="660" 
d="M80 378h500v-266h-64v206h-436v60z" />
    <glyph glyph-name="uni00AD" unicode="&#xad;" horiz-adv-x="333" 
d="M40 229v62h253v-62h-253z" />
    <glyph glyph-name="registered" unicode="&#xae;" horiz-adv-x="800" 
d="M401 -19q-79 0 -148 30q-70 30 -120 82q-52 50 -82 120q-30 69 -30 148q0 78 30 147q30 70 82 120q51 51 120 81t148 30q78 0 147 -30q68 -30 121 -81q51 -51 81 -120q29 -70 29 -147q0 -78 -29 -148q-30 -69 -81 -120q-52 -52 -121 -82t-147 -30zM401 31q68 0 128 26
q58 25 100 70q42 43 66 104q24 60 24 130q0 69 -24 129q-24 61 -66 104q-44 46 -100 70q-57 25 -128 25t-128 -25q-58 -25 -101 -70q-42 -42 -67 -104q-24 -60 -24 -129q0 -70 24 -130q25 -62 67 -104q41 -44 101 -70t128 -26zM407 344h-95v-195h-52v423h185q84 0 117 -30
t33 -82q0 -32 -10 -53q-10 -22 -28 -35q-19 -14 -42 -20q-22 -6 -53 -8l128 -195h-62zM439 385q27 0 49 6t37 22q14 17 14 48q0 25 -9 40q-12 16 -25 22q-14 7 -34 10q-26 2 -38 2h-121v-150h127z" />
    <glyph glyph-name="macron" unicode="&#xaf;" horiz-adv-x="333" 
d="M319 612h-296v45h296v-45z" />
    <glyph glyph-name="degree" unicode="&#xb0;" horiz-adv-x="400" 
d="M350 555q0 -31 -12 -58q-12 -28 -32 -48q-22 -20 -48 -32q-27 -12 -58 -12t-58 12q-28 12 -48 32t-32 48q-12 27 -12 58t12 58q10 26 32 48q20 20 48 32q27 12 58 12t58 -12q26 -12 48 -32q20 -22 32 -48q12 -27 12 -58zM310 555q0 23 -9 42q-9 20 -24 35t-35 24
q-19 9 -43 9q-23 0 -42 -9q-20 -9 -35 -24q-15 -16 -23 -35q-9 -19 -9 -42t9 -43q8 -20 23 -35q16 -15 35 -23q19 -9 43 -9q22 0 42 9q19 8 35 23q15 15 24 35t9 43z" />
    <glyph glyph-name="plusminus" unicode="&#xb1;" horiz-adv-x="660" 
d="M360 330h220v-60h-220v-170h-60v170h-220v60h220v170h60v-170zM580 0h-500v60h500v-60z" />
    <glyph glyph-name="uni00B2" unicode="&#xb2;" horiz-adv-x="333" 
d="M28 600q0 63 41 101t108 38q70 0 105 -34q36 -35 36 -83q0 -42 -21 -70q-23 -30 -53 -48q-35 -22 -65 -36q-37 -18 -60 -34q-27 -20 -40 -35q-19 -20 -20 -51h255v-32h-299q0 31 7 55q6 26 28 48q22 23 50 43t51 32l47 26q21 11 39 26q14 11 26 32q10 16 10 42
q0 42 -29 65q-29 22 -72 22q-22 0 -41 -8q-18 -8 -32 -24q-14 -15 -21 -34q-8 -20 -6 -41h-44z" />
    <glyph glyph-name="uni00B3" unicode="&#xb3;" horiz-adv-x="333" 
d="M133 551q32 0 53 4q24 3 42 12q17 9 27 25q9 16 9 40q0 39 -29 57q-28 18 -68 18q-46 0 -72 -25q-27 -26 -27 -66h-41q0 28 11 52t33 43q23 19 49 23q28 5 55 5t51 -6q26 -8 42 -20q19 -16 28 -32q10 -19 10 -46q0 -68 -65 -95q24 -7 41 -18q14 -11 24 -26q8 -13 13 -30
q3 -15 3 -30q0 -53 -38 -89q-37 -37 -110 -39q-42 0 -69 7q-29 6 -48 21q-21 16 -31 40q-11 26 -15 62h42q0 -47 32 -73q31 -25 82 -25q24 0 46 8q20 7 37 21q16 15 23 31q8 18 7 35q-2 27 -12 43q-12 16 -32 27q-16 9 -46 14q-24 3 -57 1v31z" />
    <glyph glyph-name="acute" unicode="&#xb4;" horiz-adv-x="333" 
d="M297 713l-137 -139h-51l111 139h77z" />
    <glyph glyph-name="mu" unicode="&#xb5;" 
d="M483 0h-60v72q-16 -18 -27 -29q-16 -16 -34 -27q-17 -12 -46 -22q-27 -8 -60 -8q-43 0 -73 10q-33 11 -51 22v-222h-60v722h60v-340q0 -68 31 -102q31 -36 102 -36q37 0 67 15q29 14 49 40q21 27 31 62q11 38 11 79v282h60v-518z" />
    <glyph glyph-name="paragraph" unicode="&#xb6;" horiz-adv-x="650" 
d="M258 336q-38 0 -73 15t-61 41q-26 25 -42 61q-16 33 -16 73q0 94 59 144t164 50h217v-866h-60v799h-128v-799h-60v482z" />
    <glyph glyph-name="periodcentered" unicode="&#xb7;" horiz-adv-x="278" 
d="M139 398q20 0 34 -14t14 -34t-14 -34q-13 -15 -34 -15q-20 0 -34 15q-15 14 -15 34t15 34q16 14 34 14z" />
    <glyph glyph-name="cedilla" unicode="&#xb8;" horiz-adv-x="333" 
d="M69 -158q6 -1 16.5 -5t15.5 -5q17 -5 32 -5q7 0 23 2q7 2 21 8q10 6 16 15t6 22q0 20 -15 29q-16 10 -35 10q-11 0 -22 -3q-9 -1 -22 -5l-15 13l60 82h39l-47 -59l18 4q12 2 18 2q32 0 54 -17q20 -17 23 -35q5 -29 -2 -47q-7 -19 -24 -31t-38 -18q-22 -6 -46 -6
q-21 0 -46 5q-15 4 -45 14z" />
    <glyph glyph-name="uni00B9" unicode="&#xb9;" horiz-adv-x="333" 
d="M87 656q32 2 48 4q20 3 37 12q16 8 26 24q12 19 16 43h33v-423h-42v314h-118v26z" />
    <glyph glyph-name="ordmasculine" unicode="&#xba;" horiz-adv-x="334" 
d="M167 411q-31 1 -60 12q-30 11 -50 31q-21 19 -33 50q-13 29 -13 71q0 35 10 64q9 28 29 52q18 21 49 35q27 13 68 13q40 0 69 -13q32 -15 49 -35q18 -21 29 -52q9 -30 9 -64q0 -74 -42 -119q-43 -45 -114 -45zM50 575q0 -59 30 -96q30 -38 87 -38q31 0 53 12q22 11 36 30
q14 20 21 43q7 22 7 49t-6 52q-7 23 -21 43q-16 19 -37 29t-53 10q-29 0 -53 -11q-23 -12 -36 -31q-15 -20 -21 -43q-7 -22 -7 -49z" />
    <glyph glyph-name="guillemotright" unicode="&#xbb;" 
d="M113 180l104 82l-104 80v62l146 -111v-63l-146 -113v63zM297 180l104 82l-104 80v62l146 -111v-63l-146 -113v63z" />
    <glyph glyph-name="onequarter" unicode="&#xbc;" horiz-adv-x="834" 
d="M40 656q32 2 48 4q20 3 37 12q16 8 26 24q12 19 16 43h33v-423h-42v314h-118v26zM663 705l-444 -719h-51l444 719h51zM480 137l213 282h38v-282h63v-33h-63v-104h-42v104h-209v33zM689 361l-168 -224h168v224z" />
    <glyph glyph-name="onehalf" unicode="&#xbd;" horiz-adv-x="834" 
d="M40 656q32 2 48 4q20 3 37 12q16 8 26 24q12 19 16 43h33v-423h-42v314h-118v26zM623 705l-444 -719h-51l444 719h51zM504 284q0 63 41 101t108 38q70 0 105 -34q36 -34 36 -83q0 -42 -21 -70q-23 -30 -53 -48q-35 -22 -65 -36q-37 -18 -60 -34q-27 -20 -40 -35
q-19 -20 -20 -51h255v-32h-299q0 31 7 55q6 26 28 48q22 23 50 43t51 32l47 26q21 11 39 26q14 11 26 32q10 16 10 42q0 42 -29 65q-29 22 -72 22q-22 0 -41 -8q-18 -8 -32 -24q-14 -15 -21 -34q-8 -20 -6 -41h-44z" />
    <glyph glyph-name="threequarters" unicode="&#xbe;" horiz-adv-x="834" 
d="M162 551q32 0 53 4q24 3 42 12q17 9 27 25q9 16 9 40q0 39 -29 57t-68 18q-46 0 -72 -25q-27 -26 -27 -66h-41q0 28 11 52t33 43q23 19 49 23q28 5 55 5t51 -6q26 -8 42 -20q19 -16 28 -32q10 -19 10 -46q0 -68 -65 -95q24 -7 41 -18q14 -11 24 -26q8 -13 13 -30
q3 -15 3 -30q0 -53 -38 -89q-37 -37 -110 -39q-42 0 -69 7q-28 6 -48 21q-21 16 -31 40q-11 26 -15 62h42q0 -47 32 -73q31 -25 82 -25q24 0 46 8q20 7 37 21q16 15 23 31q8 18 7 35q-2 27 -12 43q-12 16 -32 27q-16 9 -46 14q-24 3 -57 1v31zM703 705l-444 -719h-51
l444 719h51zM480 137l213 282h38v-282h63v-33h-63v-104h-42v104h-209v33zM689 361l-168 -224h168v224z" />
    <glyph glyph-name="questiondown" unicode="&#xbf;" horiz-adv-x="500" 
d="M217 444v88h73v-88h-73zM462 16q4 -49 -11 -91q-15 -40 -44 -71q-30 -28 -71 -45q-39 -16 -90 -16q-52 0 -91 13q-40 13 -69 38q-28 25 -43 60q-15 34 -15 77t20 75q22 35 47 59q30 30 58 54q28 25 52 62q18 27 19 58q2 42 2 61h58q1 -50 -7 -100q-9 -46 -48 -86
q-30 -30 -46 -45q-31 -29 -44 -44q-19 -20 -34 -47q-13 -23 -13 -52q0 -26 11 -51q11 -23 30 -41q19 -16 49 -27q27 -10 66 -10t66 13q30 14 49 36q18 20 29 53q10 31 9 67h61z" />
    <glyph glyph-name="Agrave" unicode="&#xc0;" horiz-adv-x="667" 
d="M401 776h-51l-138 139h78zM375 720l276 -720h-70l-83 226h-328l-85 -226h-70l283 720h77zM334 662l-141 -378h282z" />
    <glyph glyph-name="Aacute" unicode="&#xc1;" horiz-adv-x="667" 
d="M464 915l-137 -139h-51l111 139h77zM375 720l276 -720h-70l-83 226h-328l-85 -226h-70l283 720h77zM334 662l-141 -378h282z" />
    <glyph glyph-name="Acircumflex" unicode="&#xc2;" horiz-adv-x="667" 
d="M305 915h67l113 -139h-65l-82 102l-82 -102h-65zM375 720l276 -720h-70l-83 226h-328l-85 -226h-70l283 720h77zM334 662l-141 -378h282z" />
    <glyph glyph-name="Atilde" unicode="&#xc3;" horiz-adv-x="667" 
d="M183 788q1 13 7 33q4 11 13 26q16 22 39 32q22 10 49 4q16 -3 30 -10q5 -3 16 -7t17 -7q23 -11 32 -13q15 -6 28 -6q22 0 31 16q8 15 13 34h38l-3 -19q-4 -15 -5 -19q-10 -22 -28 -42q-16 -18 -46 -18q-22 0 -39 7q-22 8 -37 16l-35 15q-17 7 -35 7q-22 0 -33 -15
q-10 -14 -16 -34h-36zM375 720l276 -720h-70l-83 226h-328l-85 -226h-70l283 720h77zM334 662l-141 -378h282z" />
    <glyph glyph-name="Adieresis" unicode="&#xc4;" horiz-adv-x="667" 
d="M292 786h-65v102h65v-102zM451 786h-65v102h65v-102zM375 720l276 -720h-70l-83 226h-328l-85 -226h-70l283 720h77zM334 662l-141 -378h282z" />
    <glyph glyph-name="Aring" unicode="&#xc5;" horiz-adv-x="667" 
d="M354 780q-19 0 -38 8q-16 6 -32 22t-22 31q-8 19 -8 38t8 38q7 17 22 32t32 22q19 8 38 8t38 -8q17 -7 32 -22q13 -13 21 -32t8 -38t-8 -38q-7 -17 -21 -31q-15 -15 -32 -22q-19 -8 -38 -8zM354 813q26 0 46 20t20 46q0 27 -19 47q-20 20 -47 20t-47 -20t-20 -47t21 -46
q20 -20 46 -20zM375 720l276 -720h-70l-83 226h-328l-85 -226h-70l283 720h77zM334 662l-141 -378h282z" />
    <glyph glyph-name="AE" unicode="&#xc6;" horiz-adv-x="1000" 
d="M948 720v-58h-408v-260h371v-58h-371v-286h420v-58h-488v226h-303l-96 -226h-68l313 720h630zM472 662h-114l-161 -378h275v378z" />
    <glyph glyph-name="Ccedilla" unicode="&#xc7;" horiz-adv-x="722" 
d="M592 511q-21 92 -78 131t-149 39q-65 0 -112 -26q-46 -25 -77 -70q-31 -43 -45 -101q-15 -58 -15 -122q0 -62 13 -118q12 -57 41 -103q28 -45 78 -74q49 -28 123 -28q47 0 84 15q39 16 67 42q28 25 48 62q18 33 29 79h71q-12 -53 -34 -96q-23 -47 -58 -81
q-37 -35 -87 -56q-51 -20 -121 -22l-33 -41l18 4q12 2 18 2q32 0 54 -17q20 -17 23 -35q5 -29 -2 -47q-7 -19 -24 -31t-38 -18q-22 -6 -46 -6q-21 0 -46 5q-15 4 -45 14l15 30q5 -1 16 -5t16 -5q17 -5 32 -5q7 0 23 2q7 2 21 8q10 6 16 15t6 22q0 20 -15 29q-16 10 -35 10
q-12 0 -22 -3q-9 -1 -22 -5l-15 13l47 64q-74 4 -130 37q-53 31 -88 84q-33 49 -50 117q-16 64 -16 140q0 102 26 175q26 72 70 118q45 45 106 66q63 20 133 20q53 0 103 -14q45 -15 84 -44q35 -28 60 -71q23 -45 32 -99h-70z" />
    <glyph glyph-name="Egrave" unicode="&#xc8;" horiz-adv-x="611" 
d="M373 776h-51l-138 139h78zM560 720v-58h-411v-260h371v-58h-371v-286h421v-58h-489v720h479z" />
    <glyph glyph-name="Eacute" unicode="&#xc9;" horiz-adv-x="611" 
d="M436 915l-137 -139h-51l111 139h77zM560 720v-58h-411v-260h371v-58h-371v-286h421v-58h-489v720h479z" />
    <glyph glyph-name="Ecircumflex" unicode="&#xca;" horiz-adv-x="611" 
d="M277 915h67l113 -139h-65l-82 102l-82 -102h-65zM560 720v-58h-411v-260h371v-58h-371v-286h421v-58h-489v720h479z" />
    <glyph glyph-name="Edieresis" unicode="&#xcb;" horiz-adv-x="611" 
d="M264 786h-65v102h65v-102zM423 786h-65v102h65v-102zM560 720v-58h-411v-260h371v-58h-371v-286h421v-58h-489v720h479z" />
    <glyph glyph-name="Igrave" unicode="&#xcc;" horiz-adv-x="278" 
d="M207 776h-51l-138 139h78zM173 720v-720h-68v720h68z" />
    <glyph glyph-name="Iacute" unicode="&#xcd;" horiz-adv-x="278" 
d="M249 915l-137 -139h-51l111 139h77zM173 720v-720h-68v720h68z" />
    <glyph glyph-name="Icircumflex" unicode="&#xce;" horiz-adv-x="278" 
d="M90 915h67l113 -139h-65l-82 102l-82 -102h-65zM173 720v-720h-68v720h68z" />
    <glyph glyph-name="Idieresis" unicode="&#xcf;" horiz-adv-x="278" 
d="M77 786h-65v102h65v-102zM236 786h-65v102h65v-102zM173 720v-720h-68v720h68z" />
    <glyph glyph-name="Eth" unicode="&#xd0;" horiz-adv-x="722" 
d="M327 720q40 0 59 -1t57 -7q25 -5 55 -17q24 -10 51 -29q37 -26 59 -63q24 -40 37 -79t19 -84q5 -48 5 -79q0 -40 -4 -73q-5 -38 -15 -72q-12 -41 -26 -68q-16 -33 -42 -60q-26 -28 -54 -45q-31 -17 -62 -26q-31 -10 -68 -13q-31 -4 -71 -4h-246v353h-71v58h71v309h246z
M310 353h-161v-295h163q46 0 87 6q40 4 82 27q37 19 59 49q25 35 37 68q13 34 19 76q5 45 5 77q0 35 -5 80q-4 35 -19 77q-13 34 -38 67q-24 30 -62 50q-34 18 -76 22q-48 5 -89 5h-163v-251h161v-58z" />
    <glyph glyph-name="Ntilde" unicode="&#xd1;" horiz-adv-x="722" 
d="M211 788q1 13 7 33q4 11 13 26q16 22 39 32q22 10 49 4q16 -3 30 -10q5 -3 16 -7t17 -7q23 -11 32 -13q15 -6 28 -6q22 0 31 16q8 15 13 34h38l-3 -19q-4 -15 -5 -19q-10 -22 -28 -42q-16 -18 -46 -18q-22 0 -39 7q-22 8 -37 16l-35 15q-17 7 -35 7q-22 0 -33 -15
q-10 -14 -16 -34h-36zM147 0h-68v720h77l416 -629h2v629h68v-720h-79l-414 628h-2v-628z" />
    <glyph glyph-name="Ograve" unicode="&#xd2;" horiz-adv-x="778" 
d="M457 776h-51l-138 139h78zM53 359q0 81 22 148q21 68 63 121q42 51 104 81q61 30 143 30t148 -29q62 -30 106 -81q41 -52 64 -121q21 -70 21 -149t-21 -146q-23 -70 -64 -120q-41 -52 -105 -82q-63 -30 -146 -30t-146 30q-64 30 -105 82q-42 51 -63 120q-21 67 -21 146z
M389 39q70 0 121 27q49 25 83 70q31 44 48 102q15 58 15 121q0 75 -18 135q-20 59 -54 101q-33 40 -85 64q-48 22 -112 22q-69 0 -119 -27q-51 -27 -83 -71q-33 -45 -48 -103q-16 -57 -16 -121q0 -65 16 -122q15 -59 48 -102q32 -45 83 -70q50 -26 121 -26z" />
    <glyph glyph-name="Oacute" unicode="&#xd3;" horiz-adv-x="778" 
d="M520 915l-137 -139h-51l111 139h77zM53 359q0 81 22 148q21 68 63 121q42 51 104 81q61 30 143 30t148 -29q62 -30 106 -81q41 -52 64 -121q21 -70 21 -149t-21 -146q-23 -70 -64 -120q-41 -52 -105 -82q-63 -30 -146 -30t-146 30q-64 30 -105 82q-42 51 -63 120
q-21 67 -21 146zM389 39q70 0 121 27q49 25 83 70q31 44 48 102q15 58 15 121q0 75 -18 135q-20 59 -54 101q-33 40 -85 64q-48 22 -112 22q-69 0 -119 -27q-51 -27 -83 -71q-33 -45 -48 -103q-16 -57 -16 -121q0 -65 16 -122q15 -59 48 -102q32 -45 83 -70q50 -26 121 -26z
" />
    <glyph glyph-name="Ocircumflex" unicode="&#xd4;" horiz-adv-x="778" 
d="M361 915h67l113 -139h-65l-82 102l-82 -102h-65zM53 359q0 81 22 148q21 68 63 121q42 51 104 81q61 30 143 30t148 -29q62 -30 106 -81q41 -52 64 -121q21 -70 21 -149t-21 -146q-23 -70 -64 -120q-41 -52 -105 -82q-63 -30 -146 -30t-146 30q-64 30 -105 82
q-42 51 -63 120q-21 67 -21 146zM389 39q70 0 121 27q49 25 83 70q31 44 48 102q15 58 15 121q0 75 -18 135q-20 59 -54 101q-33 40 -85 64q-48 22 -112 22q-69 0 -119 -27q-51 -27 -83 -71q-33 -45 -48 -103q-16 -57 -16 -121q0 -65 16 -122q15 -59 48 -102q32 -45 83 -70
q50 -26 121 -26z" />
    <glyph glyph-name="Otilde" unicode="&#xd5;" horiz-adv-x="778" 
d="M239 788q1 13 7 33q4 11 13 26q16 22 39 32q22 10 49 4q16 -3 30 -10q5 -3 16 -7t17 -7q23 -11 32 -13q15 -6 28 -6q22 0 31 16q8 15 13 34h38l-3 -19q-4 -15 -5 -19q-10 -22 -28 -42q-16 -18 -46 -18q-22 0 -39 7q-22 8 -37 16l-35 15q-17 7 -35 7q-22 0 -33 -15
q-10 -14 -16 -34h-36zM53 359q0 81 22 148q21 68 63 121q42 51 104 81q61 30 143 30t148 -29q62 -30 106 -81q41 -52 64 -121q21 -70 21 -149t-21 -146q-23 -70 -64 -120q-41 -52 -105 -82q-63 -30 -146 -30t-146 30q-64 30 -105 82q-42 51 -63 120q-21 67 -21 146zM389 39
q70 0 121 27q49 25 83 70q31 44 48 102q15 58 15 121q0 75 -18 135q-20 59 -54 101q-33 40 -85 64q-48 22 -112 22q-69 0 -119 -27q-51 -27 -83 -71q-33 -45 -48 -103q-16 -57 -16 -121q0 -65 16 -122q15 -59 48 -102q32 -45 83 -70q50 -26 121 -26z" />
    <glyph glyph-name="Odieresis" unicode="&#xd6;" horiz-adv-x="778" 
d="M348 786h-65v102h65v-102zM507 786h-65v102h65v-102zM53 359q0 81 22 148q21 68 63 121q42 51 104 81q61 30 143 30t148 -29q62 -30 106 -81q41 -52 64 -121q21 -70 21 -149t-21 -146q-23 -70 -64 -120q-41 -52 -105 -82q-63 -30 -146 -30t-146 30q-64 30 -105 82
q-42 51 -63 120q-21 67 -21 146zM389 39q70 0 121 27q49 25 83 70q31 44 48 102q15 58 15 121q0 75 -18 135q-20 59 -54 101q-33 40 -85 64q-48 22 -112 22q-69 0 -119 -27q-51 -27 -83 -71q-33 -45 -48 -103q-16 -57 -16 -121q0 -65 16 -122q15 -59 48 -102q32 -45 83 -70
q50 -26 121 -26z" />
    <glyph glyph-name="multiply" unicode="&#xd7;" horiz-adv-x="660" 
d="M294 253l-211 211l37 36l211 -210l210 210l37 -36l-210 -211l210 -211l-37 -36l-210 210l-211 -210l-37 36z" />
    <glyph glyph-name="Oslash" unicode="&#xd8;" horiz-adv-x="778" 
d="M649 612q28 -31 51 -97q21 -66 21 -156q0 -79 -21 -146q-23 -70 -64 -120q-41 -52 -105 -82q-63 -30 -146 -30q-69 0 -123 21q-52 19 -96 58l-85 -97l-39 34l89 101q-42 53 -61 118q-20 68 -20 143q0 78 23 150q23 71 65 120q42 51 104 81q63 29 140 29q67 0 127 -20
q59 -21 105 -67l83 95l39 -35zM572 604q-30 33 -74 55t-114 22t-119 -27q-52 -27 -83 -72q-33 -45 -48 -103q-16 -57 -16 -120q0 -58 14 -114q14 -55 42 -98zM207 107q32 -32 77 -50q44 -18 102 -18q69 0 121 26q50 26 83 71q32 44 48 102q15 58 15 121q0 50 -11 105
q-12 51 -38 96z" />
    <glyph glyph-name="Ugrave" unicode="&#xd9;" horiz-adv-x="722" 
d="M429 776h-51l-138 139h78zM150 291q0 -134 50 -193t161 -59q60 0 99 16q38 14 65 47q25 32 36 78q11 49 11 111v429h68v-449q0 -141 -69 -215q-71 -75 -210 -75q-141 0 -210 76q-69 77 -69 214v449h68v-429z" />
    <glyph glyph-name="Uacute" unicode="&#xda;" horiz-adv-x="722" 
d="M492 915l-137 -139h-51l111 139h77zM150 291q0 -134 50 -193t161 -59q60 0 99 16q38 14 65 47q25 32 36 78q11 49 11 111v429h68v-449q0 -141 -69 -215q-71 -75 -210 -75q-141 0 -210 76q-69 77 -69 214v449h68v-429z" />
    <glyph glyph-name="Ucircumflex" unicode="&#xdb;" horiz-adv-x="722" 
d="M333 915h67l113 -139h-65l-82 102l-82 -102h-65zM150 291q0 -134 50 -193t161 -59q60 0 99 16q38 14 65 47q25 32 36 78q11 49 11 111v429h68v-449q0 -141 -69 -215q-71 -75 -210 -75q-141 0 -210 76q-69 77 -69 214v449h68v-429z" />
    <glyph glyph-name="Udieresis" unicode="&#xdc;" horiz-adv-x="722" 
d="M320 786h-65v102h65v-102zM479 786h-65v102h65v-102zM150 291q0 -134 50 -193t161 -59q60 0 99 16q38 14 65 47q25 32 36 78q11 49 11 111v429h68v-449q0 -141 -69 -215q-71 -75 -210 -75q-141 0 -210 76q-69 77 -69 214v449h68v-429z" />
    <glyph glyph-name="Yacute" unicode="&#xdd;" horiz-adv-x="611" 
d="M436 915l-137 -139h-51l111 139h77zM598 720l-261 -406v-314h-68v309l-257 411h78l212 -347l217 347h79z" />
    <glyph glyph-name="Thorn" unicode="&#xde;" horiz-adv-x="611" 
d="M146 720v-150h195q71 0 116 -16q46 -17 72 -44q27 -30 37 -64q10 -36 10 -77q0 -60 -24 -99q-25 -39 -64 -61q-40 -23 -88 -32q-50 -9 -100 -9h-154v-168h-68v720h68zM302 226q48 0 86 6q37 6 65 23q26 17 41 45q14 30 14 74q0 68 -44 103q-46 35 -142 35h-176v-286h156z
" />
    <glyph glyph-name="germandbls" unicode="&#xdf;" horiz-adv-x="500" 
d="M211 425q38 2 62 8q29 6 50 21q20 13 33 37q12 23 12 58q0 56 -29 94q-30 37 -97 37q-45 0 -69 -10q-25 -10 -39 -30q-13 -19 -18 -47q-4 -24 -4 -60v-533h-60v544q0 93 46 142q46 48 141 48q44 0 79 -13q37 -15 61 -37q26 -24 39 -58q14 -36 14 -78q0 -47 -23 -82
q-22 -33 -61 -63q29 -11 49 -28q23 -21 35 -43q12 -21 20 -52q7 -27 7 -56q0 -118 -55 -177q-55 -61 -156 -61q-20 0 -37 5v53q37 -7 70 0q34 8 59 27t40 51q15 31 15 77q0 95 -44 136q-43 40 -140 40v50z" />
    <glyph glyph-name="agrave" unicode="&#xe0;" 
d="M346 574h-51l-138 139h78zM310 302q17 2 41 6q27 5 38 11q14 7 19 24q3 17 3 30q0 45 -29 76q-31 29 -100 29q-29 0 -57 -5q-27 -6 -45 -19q-20 -14 -32 -36q-12 -20 -17 -57h-61q3 46 21 79q18 32 47 53q28 19 66 30q37 9 79 9q37 0 74 -8q35 -9 60 -27q25 -19 40 -50
q14 -33 14 -76v-282q0 -35 13 -44q11 -10 50 4v-47q-5 -1 -20 -6q-12 -4 -27 -4q-13 0 -27 3q-16 2 -24 10q-10 8 -14 18q-7 12 -8 23q-2 16 -2 26q-37 -41 -87 -64q-48 -22 -106 -22q-33 0 -65 9q-33 9 -56 28q-26 21 -38 47q-14 28 -14 65q0 132 181 156zM411 272
q-37 -16 -77 -21q-52 -6 -78 -8q-68 -4 -107 -31q-39 -26 -39 -79q0 -25 10 -41q10 -19 25 -29q16 -13 36 -17q19 -6 41 -6q36 0 70 9q35 9 61 28q25 18 42 47q16 28 16 67v81z" />
    <glyph glyph-name="aacute" unicode="&#xe1;" 
d="M409 713l-137 -139h-51l111 139h77zM310 302q17 2 41 6q27 5 38 11q14 7 19 24q3 17 3 30q0 45 -29 76q-31 29 -100 29q-29 0 -57 -5q-27 -6 -45 -19q-20 -14 -32 -36q-12 -20 -17 -57h-61q3 46 21 79q18 32 47 53q28 19 66 30q37 9 79 9q37 0 74 -8q35 -9 60 -27
q25 -19 40 -50q14 -33 14 -76v-282q0 -35 13 -44q11 -10 50 4v-47q-5 -1 -20 -6q-12 -4 -27 -4q-13 0 -27 3q-16 2 -24 10q-10 8 -14 18q-7 12 -8 23q-2 16 -2 26q-37 -41 -87 -64q-48 -22 -106 -22q-33 0 -65 9q-33 9 -56 28q-26 21 -38 47q-14 28 -14 65q0 132 181 156z
M411 272q-37 -16 -77 -21q-52 -6 -78 -8q-68 -4 -107 -31q-39 -26 -39 -79q0 -25 10 -41q10 -19 25 -29q16 -13 36 -17q19 -6 41 -6q36 0 70 9q35 9 61 28q25 18 42 47q16 28 16 67v81z" />
    <glyph glyph-name="acircumflex" unicode="&#xe2;" 
d="M250 713h67l113 -139h-65l-82 102l-82 -102h-65zM310 302q17 2 41 6q27 5 38 11q14 7 19 24q3 17 3 30q0 45 -29 76q-31 29 -100 29q-29 0 -57 -5q-27 -6 -45 -19q-20 -14 -32 -36q-12 -20 -17 -57h-61q3 46 21 79q18 32 47 53q28 19 66 30q37 9 79 9q37 0 74 -8
q35 -9 60 -27q25 -19 40 -50q14 -33 14 -76v-282q0 -35 13 -44q11 -10 50 4v-47q-5 -1 -20 -6q-12 -4 -27 -4q-13 0 -27 3q-16 2 -24 10q-10 8 -14 18q-7 12 -8 23q-2 16 -2 26q-37 -41 -87 -64q-48 -22 -106 -22q-33 0 -65 9q-33 9 -56 28q-26 21 -38 47q-14 28 -14 65
q0 132 181 156zM411 272q-37 -16 -77 -21q-52 -6 -78 -8q-68 -4 -107 -31q-39 -26 -39 -79q0 -25 10 -41q10 -19 25 -29q16 -13 36 -17q19 -6 41 -6q36 0 70 9q35 9 61 28q25 18 42 47q16 28 16 67v81z" />
    <glyph glyph-name="atilde" unicode="&#xe3;" 
d="M128 586q1 13 7 33q4 11 13 26q16 22 39 32q22 10 49 4q16 -3 30 -10q5 -2 16 -6.5t17 -7.5q23 -11 32 -13q15 -6 28 -6q22 0 31 16q8 15 13 34h38l-3 -19q-4 -15 -5 -19q-10 -22 -28 -42q-17 -18 -46 -18q-22 0 -39 7q-22 8 -37 16l-35 15q-17 7 -35 7q-23 0 -33 -15
q-10 -14 -16 -34h-36zM310 302q17 2 41 6q27 5 38 11q14 7 19 24q3 17 3 30q0 45 -29 76q-31 29 -100 29q-29 0 -57 -5q-27 -6 -45 -19q-20 -14 -32 -36q-12 -20 -17 -57h-61q3 46 21 79q18 32 47 53q28 19 66 30q37 9 79 9q37 0 74 -8q35 -9 60 -27q25 -19 40 -50
q14 -33 14 -76v-282q0 -35 13 -44q11 -10 50 4v-47q-5 -1 -20 -6q-12 -4 -27 -4q-13 0 -27 3q-16 2 -24 10q-10 8 -14 18q-7 12 -8 23q-2 16 -2 26q-37 -41 -87 -64q-48 -22 -106 -22q-33 0 -65 9q-33 9 -56 28q-26 21 -38 47q-14 28 -14 65q0 132 181 156zM411 272
q-37 -16 -77 -21q-52 -6 -78 -8q-68 -4 -107 -31q-39 -26 -39 -79q0 -25 10 -41q10 -19 25 -29q16 -13 36 -17q19 -6 41 -6q36 0 70 9q35 9 61 28q25 18 42 47q16 28 16 67v81z" />
    <glyph glyph-name="adieresis" unicode="&#xe4;" 
d="M237 584h-65v102h65v-102zM396 584h-65v102h65v-102zM310 302q17 2 41 6q27 5 38 11q14 7 19 24q3 17 3 30q0 45 -29 76q-31 29 -100 29q-29 0 -57 -5q-27 -6 -45 -19q-20 -14 -32 -36q-12 -20 -17 -57h-61q3 46 21 79q18 32 47 53q28 19 66 30q37 9 79 9q37 0 74 -8
q35 -9 60 -27q25 -19 40 -50q14 -33 14 -76v-282q0 -35 13 -44q11 -10 50 4v-47q-5 -1 -20 -6q-12 -4 -27 -4q-13 0 -27 3q-16 2 -24 10q-10 8 -14 18q-7 12 -8 23q-2 16 -2 26q-37 -41 -87 -64q-48 -22 -106 -22q-33 0 -65 9q-33 9 -56 28q-26 21 -38 47q-14 28 -14 65
q0 132 181 156zM411 272q-37 -16 -77 -21q-52 -6 -78 -8q-68 -4 -107 -31q-39 -26 -39 -79q0 -25 10 -41q10 -19 25 -29q16 -13 36 -17q19 -6 41 -6q36 0 70 9q35 9 61 28q25 18 42 47q16 28 16 67v81z" />
    <glyph glyph-name="aring" unicode="&#xe5;" 
d="M279 578q-19 0 -38 8q-16 6 -32 22t-22 31q-8 19 -8 38t8 38q7 17 22 32t32 22q19 8 38 8t38 -8q17 -7 32 -22q13 -13 21 -32t8 -38t-8 -38q-7 -17 -21 -31q-15 -15 -32 -22q-19 -8 -38 -8zM279 611q26 0 46 20t20 46q0 27 -19 47q-20 20 -47 20t-47 -20t-20 -47t21 -46
q20 -20 46 -20zM310 302q17 2 41 6q27 5 38 11q14 7 19 24q3 17 3 30q0 45 -29 76q-31 29 -100 29q-29 0 -57 -5q-27 -6 -45 -19q-20 -14 -32 -36q-12 -20 -17 -57h-61q3 46 21 79q18 32 47 53q28 19 66 30q37 9 79 9q37 0 74 -8q35 -9 60 -27q25 -19 40 -50q14 -33 14 -76
v-282q0 -35 13 -44q11 -10 50 4v-47q-5 -1 -20 -6q-12 -4 -27 -4q-13 0 -27 3q-16 2 -24 10q-10 8 -14 18q-7 12 -8 23q-2 16 -2 26q-37 -41 -87 -64q-48 -22 -106 -22q-33 0 -65 9q-33 9 -56 28q-26 21 -38 47q-14 28 -14 65q0 132 181 156zM411 272q-37 -16 -77 -21
q-52 -6 -78 -8q-68 -4 -107 -31q-39 -26 -39 -79q0 -25 10 -41q10 -19 25 -29q16 -13 36 -17q19 -6 41 -6q36 0 70 9q35 9 61 28q25 18 42 47q16 28 16 67v81z" />
    <glyph glyph-name="ae" unicode="&#xe6;" horiz-adv-x="889" 
d="M276 301q40 5 62 9q23 5 35 12q11 7 16 18q4 9 4 25q0 66 -28 90q-29 23 -98 23q-61 0 -98 -25q-39 -26 -46 -89h-62q3 44 20 76t44 52t63 30q34 10 77 10q25 0 53 -3q29 -5 52 -13q28 -11 45 -26q20 -17 31 -43q35 50 78 68q45 17 103 17q65 0 108 -22q41 -22 67 -62
q24 -37 35 -91q10 -50 10 -112h-390q0 -43 10 -79q9 -38 30 -65q20 -27 54 -44q32 -17 78 -17q60 0 98 32t53 88h63q-19 -84 -75 -129t-144 -45q-69 0 -116 28q-49 27 -84 86q-15 -21 -32 -40q-19 -20 -43 -36q-24 -15 -60 -28q-33 -10 -83 -10q-33 0 -65 8q-30 9 -53 27
t-36 46q-13 26 -13 65q0 68 45 111q43 41 135 52zM783 295q0 38 -10 71q-11 34 -29 58q-19 24 -50 40q-31 14 -69 14q-47 0 -79 -18q-33 -19 -52 -46q-21 -31 -28 -60q-9 -32 -9 -59h326zM393 274q-24 -14 -54 -18q-21 -4 -63 -10q-11 -1 -32 -3.5t-31 -4.5q-31 -4 -55 -15
q-25 -10 -40 -30q-15 -19 -15 -52q0 -50 29 -76q28 -25 79 -25q91 0 137 46q45 45 45 118v70z" />
    <glyph glyph-name="ccedilla" unicode="&#xe7;" 
d="M439 355q-16 58 -55 91q-40 32 -99 32q-47 0 -79 -19q-34 -20 -54 -50t-31 -71q-10 -39 -10 -80q0 -43 10 -80q9 -38 30 -70q20 -31 54 -49q32 -19 80 -19q68 0 108 37q41 37 51 102h64q-7 -39 -25 -77q-16 -34 -44 -60q-29 -27 -64 -40q-36 -14 -85 -16l-36 -45l18 4
q12 2 18 2q32 0 54 -17q20 -17 23 -35q5 -29 -2 -47q-7 -19 -24 -31t-38 -18q-22 -6 -46 -6q-21 0 -46 5q-15 4 -45 14l15 30q5 -1 15.5 -5t16.5 -5q17 -5 32 -5q7 0 23 2q7 2 21 8q10 6 16 15t6 22q0 20 -15 29q-16 10 -35 10q-12 0 -22 -3q-9 -1 -22 -5l-15 13l52 71
q-52 4 -93 28q-39 22 -64 58q-26 37 -38 83q-12 47 -12 100q0 56 16 104q15 50 45 87q31 39 75 61q43 22 102 22q91 0 146 -43q56 -44 69 -134h-61z" />
    <glyph glyph-name="egrave" unicode="&#xe8;" 
d="M346 574h-51l-138 139h78zM109 245q0 -40 11 -79q11 -38 33 -65q20 -27 54 -44t76 -17q60 0 101 31q43 32 56 88h67q-9 -34 -29 -68q-19 -33 -45 -55q-26 -23 -64 -37q-36 -13 -86 -13q-62 0 -107 21q-46 22 -74 58q-30 38 -43 86q-14 51 -14 106q0 56 17 107
q18 53 47 88q28 35 74 59q44 21 100 21q107 0 168 -73q62 -74 60 -214h-402zM447 295q0 39 -10 72q-10 30 -31 58q-21 24 -52 39q-33 14 -71 14q-40 0 -70 -15q-31 -15 -52 -40q-21 -24 -35 -58q-12 -30 -17 -70h338z" />
    <glyph glyph-name="eacute" unicode="&#xe9;" 
d="M409 713l-137 -139h-51l111 139h77zM109 245q0 -40 11 -79q11 -38 33 -65q20 -27 54 -44t76 -17q60 0 101 31q43 32 56 88h67q-9 -34 -29 -68q-19 -33 -45 -55q-26 -23 -64 -37q-36 -13 -86 -13q-62 0 -107 21q-46 22 -74 58q-30 38 -43 86q-14 51 -14 106q0 56 17 107
q18 53 47 88q28 35 74 59q44 21 100 21q107 0 168 -73q62 -74 60 -214h-402zM447 295q0 39 -10 72q-10 30 -31 58q-21 24 -52 39q-33 14 -71 14q-40 0 -70 -15q-31 -15 -52 -40q-21 -24 -35 -58q-12 -30 -17 -70h338z" />
    <glyph glyph-name="ecircumflex" unicode="&#xea;" 
d="M250 713h67l113 -139h-65l-82 102l-82 -102h-65zM109 245q0 -40 11 -79q11 -38 33 -65q20 -27 54 -44t76 -17q60 0 101 31q43 32 56 88h67q-9 -34 -29 -68q-19 -33 -45 -55q-26 -23 -64 -37q-36 -13 -86 -13q-62 0 -107 21q-46 22 -74 58q-30 38 -43 86q-14 51 -14 106
q0 56 17 107q18 53 47 88q28 35 74 59q44 21 100 21q107 0 168 -73q62 -74 60 -214h-402zM447 295q0 39 -10 72q-10 30 -31 58q-21 24 -52 39q-33 14 -71 14q-40 0 -70 -15q-31 -15 -52 -40q-21 -24 -35 -58q-12 -30 -17 -70h338z" />
    <glyph glyph-name="edieresis" unicode="&#xeb;" 
d="M237 584h-65v102h65v-102zM396 584h-65v102h65v-102zM109 245q0 -40 11 -79q11 -38 33 -65q20 -27 54 -44t76 -17q60 0 101 31q43 32 56 88h67q-9 -34 -29 -68q-19 -33 -45 -55q-26 -23 -64 -37q-36 -13 -86 -13q-62 0 -107 21q-46 22 -74 58q-30 38 -43 86
q-14 51 -14 106q0 56 17 107q18 53 47 88q28 35 74 59q44 21 100 21q107 0 168 -73q62 -74 60 -214h-402zM447 295q0 39 -10 72q-10 30 -31 58q-21 24 -52 39q-33 14 -71 14q-40 0 -70 -15q-31 -15 -52 -40q-21 -24 -35 -58q-12 -30 -17 -70h338z" />
    <glyph glyph-name="igrave" unicode="&#xec;" horiz-adv-x="222" 
d="M179 574h-51l-138 139h78zM138 518v-518h-60v518h60z" />
    <glyph glyph-name="iacute" unicode="&#xed;" horiz-adv-x="222" 
d="M221 713l-137 -139h-51l111 139h77zM138 518v-518h-60v518h60z" />
    <glyph glyph-name="icircumflex" unicode="&#xee;" horiz-adv-x="222" 
d="M62 713h67l113 -139h-65l-82 102l-82 -102h-65zM138 518v-518h-60v518h60z" />
    <glyph glyph-name="idieresis" unicode="&#xef;" horiz-adv-x="222" 
d="M49 584h-65v102h65v-102zM208 584h-65v102h65v-102zM138 518v-518h-60v518h60z" />
    <glyph glyph-name="eth" unicode="&#xf0;" 
d="M295 662q-16 12 -37 23q-13 7 -43 21l41 33q19 -8 41 -20q9 -5 38 -25l55 45l37 -25l-59 -48q69 -65 110 -169q40 -102 40 -238q0 -61 -17 -112q-17 -50 -48 -86q-30 -34 -76 -55q-43 -20 -99 -20q-50 2 -93 18q-45 17 -76 51q-32 34 -52 85q-19 50 -19 119q0 49 14 100
q13 49 42 88t73 62q46 23 107 23q18 0 44 -2q14 -1 36 -7q13 -3 32 -14q12 -7 34 -23q-19 53 -40 87q-23 37 -51 62l-61 -49l-38 24zM454 259q0 47 -10 86q-11 41 -31 70q-22 30 -54 46q-34 17 -81 17t-80 -18q-34 -19 -55 -49q-20 -31 -31 -70q-10 -39 -10 -82
q0 -47 12 -88q11 -42 33 -70q23 -29 55 -45t76 -16q47 0 81 19q34 18 54 49t31 70q10 37 10 81z" />
    <glyph glyph-name="ntilde" unicode="&#xf1;" 
d="M128 586q1 13 7 33q4 11 13 26q16 22 39 32q22 10 49 4q16 -3 30 -10q5 -2 16 -6.5t17 -7.5q23 -11 32 -13q15 -6 28 -6q22 0 31 16q8 15 13 34h38l-3 -19q-4 -15 -5 -19q-10 -22 -28 -42q-17 -18 -46 -18q-22 0 -39 7q-22 8 -37 16l-35 15q-17 7 -35 7q-23 0 -33 -15
q-10 -14 -16 -34h-36zM72 518h60v-72q37 39 75 62q38 24 92 24q50 0 89 -16q40 -16 69 -58q18 -27 23 -57q3 -30 3 -62v-339h-60v338q0 71 -31 105q-32 35 -103 35q-27 0 -51 -8q-22 -9 -41 -23q-17 -12 -32 -32q-11 -15 -20 -38q-10 -27 -11 -48q-2 -30 -2 -50v-279h-60
v518z" />
    <glyph glyph-name="ograve" unicode="&#xf2;" 
d="M346 574h-51l-138 139h78zM278 -14q-50 2 -93 18q-45 17 -76 51q-32 34 -52 85q-19 50 -19 119q0 57 15 107q15 48 45 86q29 36 75 59q45 21 105 21q61 0 106 -21q46 -23 75 -58q30 -37 45 -87q14 -51 14 -107q0 -61 -17 -112q-17 -50 -48 -86q-30 -34 -76 -55
q-43 -20 -99 -20zM454 259q0 47 -10 86q-11 41 -31 70q-22 30 -54 46q-34 17 -81 17t-80 -18q-34 -19 -55 -49q-20 -31 -31 -70q-10 -39 -10 -82q0 -47 12 -88q11 -42 33 -70q23 -29 55 -45t76 -16q47 0 81 19q34 18 54 49t31 70q10 37 10 81z" />
    <glyph glyph-name="oacute" unicode="&#xf3;" 
d="M409 713l-137 -139h-51l111 139h77zM278 -14q-50 2 -93 18q-45 17 -76 51q-32 34 -52 85q-19 50 -19 119q0 57 15 107q15 48 45 86q29 36 75 59q45 21 105 21q61 0 106 -21q46 -23 75 -58q30 -37 45 -87q14 -51 14 -107q0 -61 -17 -112q-17 -50 -48 -86q-30 -34 -76 -55
q-43 -20 -99 -20zM454 259q0 47 -10 86q-11 41 -31 70q-22 30 -54 46q-34 17 -81 17t-80 -18q-34 -19 -55 -49q-20 -31 -31 -70q-10 -39 -10 -82q0 -47 12 -88q11 -42 33 -70q23 -29 55 -45t76 -16q47 0 81 19q34 18 54 49t31 70q10 37 10 81z" />
    <glyph glyph-name="ocircumflex" unicode="&#xf4;" 
d="M250 713h67l113 -139h-65l-82 102l-82 -102h-65zM278 -14q-50 2 -93 18q-45 17 -76 51q-32 34 -52 85q-19 50 -19 119q0 57 15 107q15 48 45 86q29 36 75 59q45 21 105 21q61 0 106 -21q46 -23 75 -58q30 -37 45 -87q14 -51 14 -107q0 -61 -17 -112q-17 -50 -48 -86
q-30 -34 -76 -55q-43 -20 -99 -20zM454 259q0 47 -10 86q-11 41 -31 70q-22 30 -54 46q-34 17 -81 17t-80 -18q-34 -19 -55 -49q-20 -31 -31 -70q-10 -39 -10 -82q0 -47 12 -88q11 -42 33 -70q23 -29 55 -45t76 -16q47 0 81 19q34 18 54 49t31 70q10 37 10 81z" />
    <glyph glyph-name="otilde" unicode="&#xf5;" 
d="M128 586q1 13 7 33q4 11 13 26q16 22 39 32q22 10 49 4q16 -3 30 -10q5 -2 16 -6.5t17 -7.5q23 -11 32 -13q15 -6 28 -6q22 0 31 16q8 15 13 34h38l-3 -19q-4 -15 -5 -19q-10 -22 -28 -42q-17 -18 -46 -18q-22 0 -39 7q-22 8 -37 16l-35 15q-17 7 -35 7q-23 0 -33 -15
q-10 -14 -16 -34h-36zM278 -14q-50 2 -93 18q-45 17 -76 51q-32 34 -52 85q-19 50 -19 119q0 57 15 107q15 48 45 86q29 36 75 59q45 21 105 21q61 0 106 -21q46 -23 75 -58q30 -37 45 -87q14 -51 14 -107q0 -61 -17 -112q-17 -50 -48 -86q-30 -34 -76 -55q-43 -20 -99 -20z
M454 259q0 47 -10 86q-11 41 -31 70q-22 30 -54 46q-34 17 -81 17t-80 -18q-34 -19 -55 -49q-20 -31 -31 -70q-10 -39 -10 -82q0 -47 12 -88q11 -42 33 -70q23 -29 55 -45t76 -16q47 0 81 19q34 18 54 49t31 70q10 37 10 81z" />
    <glyph glyph-name="odieresis" unicode="&#xf6;" 
d="M237 584h-65v102h65v-102zM396 584h-65v102h65v-102zM278 -14q-50 2 -93 18q-45 17 -76 51q-32 34 -52 85q-19 50 -19 119q0 57 15 107q15 48 45 86q29 36 75 59q45 21 105 21q61 0 106 -21q46 -23 75 -58q30 -37 45 -87q14 -51 14 -107q0 -61 -17 -112q-17 -50 -48 -86
q-30 -34 -76 -55q-43 -20 -99 -20zM454 259q0 47 -10 86q-11 41 -31 70q-22 30 -54 46q-34 17 -81 17t-80 -18q-34 -19 -55 -49q-20 -31 -31 -70q-10 -39 -10 -82q0 -47 12 -88q11 -42 33 -70q23 -29 55 -45t76 -16q47 0 81 19q34 18 54 49t31 70q10 37 10 81z" />
    <glyph glyph-name="divide" unicode="&#xf7;" horiz-adv-x="660" 
d="M367 500v-88h-73v88h73zM580 220h-500v60h500v-60zM367 88v-88h-73v88h73z" />
    <glyph glyph-name="oslash" unicode="&#xf8;" 
d="M93 74q-28 37 -40 84q-13 45 -13 100q0 58 15 107t45 87q29 36 75 59q45 21 105 21q49 0 87 -13q37 -13 67 -40l52 62l35 -31l-55 -65q28 -37 41 -84q13 -46 13 -103q0 -62 -16 -110q-17 -51 -46 -86q-33 -37 -76 -56q-46 -20 -102 -20t-94 18q-36 15 -61 37l-54 -64
l-36 29zM395 433q-13 16 -42 31q-30 14 -73 14q-47 0 -80 -18q-35 -20 -55 -50q-20 -31 -31 -70q-10 -39 -10 -82q0 -47 9 -80q9 -36 22 -54zM162 85q24 -23 55 -34q33 -11 63 -11q47 0 81 19q34 18 54 49q20 29 31 69q10 37 10 81q0 38 -6 74q-8 38 -25 65z" />
    <glyph glyph-name="ugrave" unicode="&#xf9;" 
d="M346 574h-51l-138 139h78zM483 0h-60v72q-16 -18 -27 -29q-16 -16 -34 -27q-17 -12 -46 -22q-27 -8 -60 -8q-52 0 -87 15q-34 13 -56 40q-21 24 -31 61q-10 33 -10 75v341h60v-340q0 -68 31 -102q31 -36 102 -36q37 0 67 15q29 14 49 40q21 27 31 62q11 38 11 79v282h60
v-518z" />
    <glyph glyph-name="uacute" unicode="&#xfa;" 
d="M409 713l-137 -139h-51l111 139h77zM483 0h-60v72q-16 -18 -27 -29q-16 -16 -34 -27q-17 -12 -46 -22q-27 -8 -60 -8q-52 0 -87 15q-34 13 -56 40q-21 24 -31 61q-10 33 -10 75v341h60v-340q0 -68 31 -102q31 -36 102 -36q37 0 67 15q29 14 49 40q21 27 31 62
q11 38 11 79v282h60v-518z" />
    <glyph glyph-name="ucircumflex" unicode="&#xfb;" 
d="M250 713h67l113 -139h-65l-82 102l-82 -102h-65zM483 0h-60v72q-16 -18 -27 -29q-16 -16 -34 -27q-17 -12 -46 -22q-27 -8 -60 -8q-52 0 -87 15q-34 13 -56 40q-21 24 -31 61q-10 33 -10 75v341h60v-340q0 -68 31 -102q31 -36 102 -36q37 0 67 15q29 14 49 40
q21 27 31 62q11 38 11 79v282h60v-518z" />
    <glyph glyph-name="udieresis" unicode="&#xfc;" 
d="M237 584h-65v102h65v-102zM396 584h-65v102h65v-102zM483 0h-60v72q-16 -18 -27 -29q-16 -16 -34 -27q-17 -12 -46 -22q-27 -8 -60 -8q-52 0 -87 15q-34 13 -56 40q-21 24 -31 61q-10 33 -10 75v341h60v-340q0 -68 31 -102q31 -36 102 -36q37 0 67 15q29 14 49 40
q21 27 31 62q11 38 11 79v282h60v-518z" />
    <glyph glyph-name="yacute" unicode="&#xfd;" horiz-adv-x="500" 
d="M381 713l-137 -139h-51l111 139h77zM68 -141q4 0 12 -1.5t13 -2.5q16 -2 25 -2q25 0 41 16q17 17 27 38q7 15 17 47q8 27 16 42l-201 522h67l166 -445l166 445h65l-193 -511q-20 -54 -34 -88q-15 -35 -35 -67q-20 -28 -41 -42q-23 -14 -54 -14q-12 0 -30 2q-12 1 -27 5
v56z" />
    <glyph glyph-name="thorn" unicode="&#xfe;" horiz-adv-x="611" 
d="M79 720h60v-293h2q14 26 34 45q19 20 45 33q20 11 50 20q24 7 51 7q63 0 107 -21q45 -22 73 -57q27 -35 41 -87q13 -48 13 -107q0 -53 -14 -104q-13 -50 -42 -87t-72 -60q-42 -23 -103 -23q-56 0 -105 25q-52 24 -80 72v-287h-60v924zM139 257q0 -44 12 -83t35 -69
q23 -31 55 -47q31 -18 73 -18q47 0 81 19q32 17 56 50q21 29 32 75q10 38 8 91q0 51 -13 87q-13 37 -38 63q-25 27 -56 40q-30 13 -70 13q-41 0 -75 -17q-31 -15 -55 -46q-23 -30 -33 -70q-12 -41 -12 -88z" />
    <glyph glyph-name="ydieresis" unicode="&#xff;" horiz-adv-x="500" 
d="M209 584h-65v102h65v-102zM368 584h-65v102h65v-102zM68 -141q4 0 12 -1.5t13 -2.5q16 -2 25 -2q25 0 41 16q17 17 27 38q7 15 17 47q8 27 16 42l-201 522h67l166 -445l166 445h65l-193 -511q-20 -54 -34 -88q-15 -35 -35 -67q-20 -28 -41 -42q-23 -14 -54 -14
q-12 0 -30 2q-12 1 -27 5v56z" />
    <glyph glyph-name="dotlessi" unicode="&#x131;" horiz-adv-x="222" 
d="M138 518v-518h-60v518h60z" />
    <glyph glyph-name="Ldot" 
d="M149 720v-662h386v-58h-454v720h68zM375 442v-88h-73v88h73z" />
    <glyph glyph-name="ldot" horiz-adv-x="275" 
d="M121 720v-720h-60v720h60zM275 442v-88h-73v88h73z" />
    <glyph glyph-name="OE" unicode="&#x152;" horiz-adv-x="1000" 
d="M550 72q-12 -12 -38 -34q-20 -17 -44 -29q-24 -13 -53 -21q-28 -7 -66 -7q-84 0 -141 32q-57 31 -95 84q-39 55 -55 120q-17 70 -17 142q0 77 18 148q16 68 54 121q38 52 95 81q58 30 138 30q66 0 117 -19q53 -20 87 -76v76h407v-58h-342v-260h320v-58h-320v-286h352v-58
h-417v72zM547 498q0 90 -53 137q-53 46 -148 46q-113 0 -175 -80q-62 -82 -62 -240q0 -69 14 -130q13 -58 44 -101q30 -43 76 -67q47 -24 111 -24q38 0 77 15q39 16 67 39q30 25 40 58q9 31 9 70v277z" />
    <glyph glyph-name="oe" unicode="&#x153;" horiz-adv-x="944" 
d="M511 245q-3 -27 5 -63t28 -67q21 -32 56 -53q34 -22 86 -22q58 0 98 33t52 87h61q-18 -85 -74 -129q-57 -45 -139 -45q-74 0 -126 36q-52 35 -79 90q-31 -62 -87 -94q-54 -32 -125 -32q-53 0 -94 19q-43 19 -73 55q-30 33 -47 86q-17 51 -17 112q0 56 14 107q14 49 42 87
q27 35 73 59q44 21 106 21q72 0 125 -29q52 -30 83 -96q32 62 83 94q49 31 122 31q68 0 111 -24t67 -63q24 -41 33 -92q9 -53 9 -108h-393zM100 249q0 -41 11 -80t32 -66q22 -30 53 -46q32 -17 76 -17q42 0 76 17q31 16 54 47q22 29 34 72q11 44 11 93q0 43 -11 84
q-12 39 -34 66q-21 27 -57 44q-35 15 -79 15q-82 0 -125 -61q-44 -62 -41 -168zM840 295q0 39 -9 73q-9 33 -28 58q-20 24 -50 38q-31 14 -72 14q-36 0 -69 -14q-31 -15 -52 -40q-22 -25 -34 -58q-14 -35 -15 -71h329z" />
    <glyph glyph-name="circumflex" unicode="&#x2c6;" horiz-adv-x="333" 
d="M138 713h67l113 -139h-65l-82 102l-82 -102h-65z" />
    <glyph glyph-name="ring" unicode="&#x2da;" horiz-adv-x="333" 
d="M167 578q-19 0 -38 8q-16 6 -32 22t-22 31q-8 19 -8 38t8 38q7 17 22 32t32 22q19 8 38 8t38 -8q17 -7 32 -22q13 -13 21 -32t8 -38t-8 -38q-7 -17 -21 -31q-15 -15 -32 -22q-19 -8 -38 -8zM167 611q26 0 46 20t20 46q0 27 -19 47q-20 20 -47 20t-47 -20t-20 -47t21 -46
q20 -20 46 -20z" />
    <glyph glyph-name="tilde" unicode="&#x2dc;" horiz-adv-x="333" 
d="M16 586q1 13 7 33q4 11 13 26q16 22 39 32q22 10 49 4q16 -3 30 -10q6 -2 17 -6.5t16 -7.5q24 -11 32 -13q15 -6 28 -6q22 0 31 16q8 15 13 34h38l-3 -19q-4 -15 -5 -19q-10 -22 -28 -42q-17 -18 -46 -18q-22 0 -39 7q-22 8 -37 16l-35 15q-17 7 -35 7q-23 0 -33 -15
q-10 -14 -16 -34h-36z" />
    <glyph glyph-name="uni0400" unicode="&#x400;" horiz-adv-x="593" 
d="M336 771l-131 141h77l105 -141h-51zM565 656h-425v-258h398v-58h-398v-282h430v-58h-498v714h493v-58z" />
    <glyph glyph-name="uni0401" unicode="&#x401;" horiz-adv-x="593" 
d="M271 788h-67v101h67v-101zM448 788h-68v101h68v-101zM565 656h-425v-258h398v-58h-398v-282h430v-58h-498v714h493v-58z" />
    <glyph glyph-name="uni0402" unicode="&#x402;" horiz-adv-x="766" 
d="M471 -10q-19 0 -28 1l-30 3v59q7 -1 22 -1q7 -1 21 -1q100 0 148 48q48 47 48 135q0 82 -51 124q-52 41 -132 41q-87 0 -132 -53q-45 -54 -45 -157v-189h-68v656h-229v58h566v-58h-269v-303h3q13 27 33 46q18 17 47 32q22 10 55 19q29 6 58 6q50 0 95 -14q43 -15 74 -43
t48 -70q16 -41 16 -96q0 -59 -18 -104q-17 -45 -50 -76q-32 -30 -79 -47q-45 -16 -103 -16z" />
    <glyph glyph-name="uni0403" unicode="&#x403;" horiz-adv-x="514" 
d="M421 912l-132 -141h-51l105 141h78zM519 656h-373v-656h-68v714h441v-58z" />
    <glyph glyph-name="uni0404" unicode="&#x404;" horiz-adv-x="695" 
d="M366 -14q-72 0 -135 26q-61 26 -105 75t-68 116t-24 152q0 77 22 143q21 68 63 119q41 50 104 82q61 30 143 30q52 0 101 -15q51 -17 90 -46q40 -30 67 -73q27 -44 33 -97h-68q-16 80 -77 127q-59 46 -148 46q-56 0 -100 -19q-44 -18 -80 -56q-33 -35 -55 -86
q-22 -52 -26 -113h376v-57h-378q1 -64 22 -123q19 -54 55 -93q35 -39 82 -60q48 -21 106 -21q50 0 90 15q41 16 68 43q27 26 46 65t26 82h67q-9 -61 -33 -109q-25 -48 -63 -83q-36 -33 -89 -52q-51 -18 -112 -18z" />
    <glyph glyph-name="uni0405" unicode="&#x405;" horiz-adv-x="630" 
d="M321 -14q-63 0 -117 15q-54 13 -92 44q-39 31 -58 77q-21 47 -18 113h68q-1 -54 17 -92q17 -35 50 -59q31 -22 74 -31q41 -10 92 -10q26 0 61 8q33 7 62 26q27 16 47 45q19 26 19 66q0 30 -13 52q-13 21 -35 37q-21 14 -48 25q-26 9 -51 15l-159 39q-34 8 -61 21
q-27 12 -51 32q-21 18 -35 48t-14 71q0 28 10 61q11 36 38 66q26 30 75 53q48 21 123 21q51 0 101 -14q48 -13 84 -42q35 -28 58 -69q21 -42 21 -97h-68q-1 39 -18 71q-15 29 -43 52q-30 21 -61 31q-33 10 -73 10q-38 0 -67 -7q-33 -8 -57 -24t-40 -44q-15 -27 -15 -67
q0 -26 9 -44q7 -16 23 -31q15 -13 35 -21q26 -10 41 -13l174 -43q37 -11 72 -24q34 -16 59 -36q25 -22 40 -53q14 -33 14 -75q0 -6 -2 -32q-3 -19 -12 -42q-12 -25 -27 -46q-19 -23 -48 -41q-30 -19 -76 -31q-47 -11 -108 -11z" />
    <glyph glyph-name="uni0406" unicode="&#x406;" horiz-adv-x="222" 
d="M145 0h-68v714h68v-714z" />
    <glyph glyph-name="uni0407" unicode="&#x407;" horiz-adv-x="222" 
d="M56 788h-67v101h67v-101zM233 788h-68v101h68v-101zM145 0h-68v714h68v-714z" />
    <glyph glyph-name="uni0408" unicode="&#x408;" horiz-adv-x="500" 
d="M220 -14q-62 0 -100 21q-38 19 -61 54q-22 33 -30 77q-8 46 -8 91h68l3 -55q1 -31 14 -61t40 -49q27 -21 80 -21q39 0 66 11q26 11 41 33q15 23 21 57t6 84v486h68v-515q0 -53 -11 -95q-10 -40 -35 -66q-25 -27 -64 -40q-40 -12 -98 -12z" />
    <glyph glyph-name="uni0409" unicode="&#x409;" horiz-adv-x="1122" 
d="M54 -6q-9 0 -14 1q-3 1 -9 1t-9 1q-3 0 -8 0.5t-8 1.5l-6 2t-4 1v58q5 -3 25 -5q22 -2 24 -2q11 0 26 3q16 2 32 18q17 15 33 49q15 30 29 96q13 65 20 158q8 102 8 236v101h439v-302h249q101 0 156 -55q56 -56 56 -151t-56 -151q-55 -55 -156 -55h-317v656h-305v-39
q0 -161 -10 -262q-11 -107 -27 -176q-16 -67 -38 -107q-24 -41 -44 -55q-23 -17 -45 -20q-23 -3 -41 -3zM866 58q76 0 117 40q42 39 42 108q0 68 -42 109q-42 39 -117 39h-234v-296h234z" />
    <glyph glyph-name="uni040A" unicode="&#x40a;" horiz-adv-x="1122" 
d="M140 412h424v302h68v-302h249q101 0 156 -55q56 -56 56 -151t-56 -151q-55 -55 -156 -55h-317v354h-424v-354h-68v714h68v-302zM866 58q76 0 117 40q42 39 42 108q0 68 -42 109q-42 39 -117 39h-234v-296h234z" />
    <glyph glyph-name="uni040B" unicode="&#x40b;" horiz-adv-x="766" 
d="M-5 714h566v-58h-269v-243q13 7 38 15q9 3 28 8t23 6q20 5 55 10q24 4 48 4q76 0 119 -18q45 -20 67 -48q22 -30 30 -66q6 -37 6 -73v-251h-68v247q0 25 -4 48q-5 29 -20 49q-16 21 -46 38q-32 15 -85 15q-23 0 -47 -4q-36 -6 -54 -10l-51 -15q-22 -7 -39 -17v-351h-68
v656h-229v58z" />
    <glyph glyph-name="uni040C" unicode="&#x40c;" horiz-adv-x="648" 
d="M465 912l-132 -141h-51l105 141h78zM140 330l415 384h92l-319 -295l334 -419h-88l-297 372l-137 -127v-245h-68v714h68v-384z" />
    <glyph glyph-name="uni040D" unicode="&#x40d;" horiz-adv-x="710" 
d="M346 771l-131 141h77l105 -141h-51zM140 73l410 641h88v-714h-68v641l-410 -641h-88v714h68v-641z" />
    <glyph glyph-name="uni040E" unicode="&#x40e;" horiz-adv-x="588" 
d="M307 773q-64 0 -98 34q-36 34 -43 96h39q4 -37 32 -60q25 -22 71 -22q43 0 71 22q28 21 35 60h39q-10 -62 -47 -96q-35 -34 -99 -34zM138 -8q-24 0 -43 3q-23 4 -31 7v60q17 -6 31 -8q16 -4 42 -4q39 0 64 24q25 23 49 75l9 19l-265 546h73l232 -474l226 474h72
l-281 -582q-23 -47 -43 -73q-20 -27 -42 -43q-24 -16 -44 -20t-49 -4z" />
    <glyph glyph-name="uni040F" unicode="&#x40f;" horiz-adv-x="694" 
d="M72 714h68v-656h414v656h68v-714h-241v-190h-68v190h-241v714z" />
    <glyph glyph-name="uni0410" unicode="&#x410;" horiz-adv-x="630" 
d="M637 0h-73l-87 222h-325l-86 -222h-72l287 714h76zM173 280h281l-138 366z" />
    <glyph glyph-name="uni0411" unicode="&#x411;" horiz-adv-x="667" 
d="M565 656h-425v-244h269q101 0 156 -55q56 -56 56 -151t-56 -151q-55 -55 -156 -55h-337v714h493v-58zM394 58q76 0 117 40q42 39 42 108q0 68 -42 109q-42 39 -117 39h-254v-296h254z" />
    <glyph glyph-name="uni0412" unicode="&#x412;" horiz-adv-x="667" 
d="M374 714q42 0 87 -8q41 -9 73 -29q30 -20 50 -54q19 -34 19 -84q0 -29 -9 -54q-9 -28 -25 -48q-16 -22 -39 -37q-22 -15 -51 -21v-2q69 -9 110 -56q41 -49 41 -118q0 -28 -7 -60q-7 -34 -34 -67q-25 -31 -77 -54q-50 -22 -138 -22h-302v714h302zM374 401q41 0 71 10
q30 9 50 26t30 38t10 47q0 134 -161 134h-234v-255h234zM374 58q40 0 72 7q33 6 60 23q26 17 41 45q15 29 15 72q0 69 -48 104q-49 34 -140 34h-234v-285h234z" />
    <glyph glyph-name="uni0413" unicode="&#x413;" horiz-adv-x="514" 
d="M519 656h-373v-656h-68v714h441v-58z" />
    <glyph glyph-name="uni0414" unicode="&#x414;" horiz-adv-x="716" 
d="M75 58q39 73 59 144q22 78 32 146q10 69 13 142q2 92 2 130v94h442v-656h85v-248h-68v190h-572v-190h-68v248h75zM249 656v-24q0 -83 -1 -130q-2 -71 -12 -146q-10 -74 -30 -151q-20 -75 -59 -147h408v598h-306z" />
    <glyph glyph-name="uni0415" unicode="&#x415;" horiz-adv-x="593" 
d="M565 656h-425v-258h398v-58h-398v-282h430v-58h-498v714h493v-58z" />
    <glyph glyph-name="uni0416" unicode="&#x416;" horiz-adv-x="990" 
d="M109 714l352 -376v376h68v-376l352 376h92l-296 -308l321 -406h-88l-281 356l-100 -104v-252h-68v252l-100 104l-281 -356h-88l321 406l-296 308h92z" />
    <glyph glyph-name="uni0417" unicode="&#x417;" horiz-adv-x="627" 
d="M324 -15q-69 0 -119 17q-53 17 -89 48q-37 31 -56 77q-20 46 -20 102v6h65q0 -99 61 -147q62 -48 163 -48q44 0 81 14q35 13 61 36q25 23 38 54q13 29 13 64q0 32 -12 57q-14 26 -35 43t-51 28q-29 10 -64 10h-114v58h114q27 0 54 8t46 24q20 16 32 39q11 24 11 54
q0 38 -13 64t-37 45q-23 17 -55 26q-34 8 -68 8q-44 0 -78 -10q-37 -11 -62 -30q-27 -21 -42 -51q-16 -31 -19 -71h-66q3 56 24 96q19 39 55 69q35 28 83 41q45 13 103 13q48 0 95 -11q44 -12 77 -36q32 -23 52 -60q19 -37 19 -87q0 -28 -9 -52q-8 -24 -24 -44
q-17 -22 -34 -34q-21 -14 -38 -21v-3q56 -15 91 -57q33 -44 33 -115q0 -34 -13 -72t-45 -73q-30 -33 -82 -56q-49 -23 -126 -23z" />
    <glyph glyph-name="uni0418" unicode="&#x418;" horiz-adv-x="710" 
d="M140 73l410 641h88v-714h-68v641l-410 -641h-88v714h68v-641z" />
    <glyph glyph-name="uni0419" unicode="&#x419;" horiz-adv-x="710" 
d="M349 773q-64 0 -98 34q-36 34 -43 96h39q4 -37 32 -60q25 -22 71 -22q43 0 71 22q28 21 35 60h39q-10 -62 -47 -96q-35 -34 -99 -34zM140 73l410 641h88v-714h-68v641l-410 -641h-88v714h68v-641z" />
    <glyph glyph-name="uni041A" unicode="&#x41a;" horiz-adv-x="648" 
d="M140 330l415 384h92l-319 -295l334 -419h-88l-297 372l-137 -127v-245h-68v714h68v-384z" />
    <glyph glyph-name="uni041B" unicode="&#x41b;" horiz-adv-x="704" 
d="M54 -6q-9 0 -14 1q-3 1 -9 1t-9 1q-3 0 -8 0.5t-8 1.5l-6 2t-4 1v58q5 -3 25 -5q22 -2 24 -2q11 0 26 3q16 2 32 18q17 15 33 49q15 30 29 96q13 65 20 158q8 102 8 236v101h439v-714h-68v656h-305v-39q0 -161 -10 -262q-11 -107 -27 -176q-16 -67 -38 -107
q-24 -41 -44 -55q-23 -17 -45 -20q-23 -3 -41 -3z" />
    <glyph glyph-name="uni041C" unicode="&#x41c;" horiz-adv-x="833" 
d="M417 88l246 626h100v-714h-68v617h-2l-244 -617h-64l-245 617h-2v-617h-68v714h100z" />
    <glyph glyph-name="uni041D" unicode="&#x41d;" horiz-adv-x="704" 
d="M140 404h424v310h68v-714h-68v346h-424v-346h-68v714h68v-310z" />
    <glyph glyph-name="uni041E" unicode="&#x41e;" horiz-adv-x="741" 
d="M371 -14q-85 0 -147 31q-64 30 -106 81t-63 118q-21 68 -21 141t21 141q20 66 63 119q42 51 106 82q63 30 147 30t147 -30q64 -32 105 -82q43 -53 63 -119q21 -68 21 -141t-21 -141q-21 -67 -63 -118t-105 -81q-62 -31 -147 -31zM371 43q70 0 121 27t84 72q31 43 48 100
q15 56 15 115q0 58 -15 115q-17 56 -48 101q-34 44 -84 71q-51 27 -121 27q-71 0 -122 -27t-83 -71q-33 -45 -48 -101q-16 -55 -16 -115q0 -61 16 -115q15 -57 48 -100q31 -45 83 -72q51 -27 122 -27z" />
    <glyph glyph-name="uni041F" unicode="&#x41f;" horiz-adv-x="694" 
d="M622 0h-68v656h-414v-656h-68v714h550v-714z" />
    <glyph glyph-name="uni0420" unicode="&#x420;" horiz-adv-x="630" 
d="M389 714q49 0 87 -13q36 -13 67 -40q27 -26 43 -65q15 -38 15 -86t-15 -86q-16 -40 -43 -64q-28 -26 -67 -40q-40 -14 -87 -14h-249v-306h-68v714h317zM374 364q72 0 115 36q44 36 44 110t-44 110t-115 36h-234v-292h234z" />
    <glyph glyph-name="uni0421" unicode="&#x421;" horiz-adv-x="704" 
d="M375 -14q-85 0 -147 31q-64 30 -106 81t-63 118q-21 68 -21 141t21 141q20 66 63 119q42 51 106 82q63 30 147 30q51 0 100 -15q46 -14 88 -44q40 -30 66 -73q25 -43 33 -99h-68q-9 40 -29 74q-20 31 -50 54q-28 21 -65 34q-38 11 -75 11q-71 0 -122 -27t-83 -71
q-33 -45 -48 -101q-16 -55 -16 -115q0 -61 16 -115q15 -57 48 -100q31 -45 83 -72q51 -27 122 -27q49 0 90 18t69 49q30 33 47 73q19 42 23 89h68q-8 -68 -31 -119q-24 -52 -62 -90q-37 -37 -89 -57q-54 -20 -115 -20z" />
    <glyph glyph-name="uni0422" unicode="&#x422;" 
d="M-4 714h565v-58h-249v-656h-68v656h-248v58z" />
    <glyph glyph-name="uni0423" unicode="&#x423;" horiz-adv-x="588" 
d="M138 -8q-24 0 -43 3q-23 4 -31 7v60q17 -6 31 -8q16 -4 42 -4q39 0 64 24q25 23 49 75l9 19l-265 546h73l232 -474l226 474h72l-281 -582q-23 -47 -43 -73q-20 -27 -42 -43q-24 -16 -44 -20t-49 -4z" />
    <glyph glyph-name="uni0424" unicode="&#x424;" horiz-adv-x="800" 
d="M366 66q-80 2 -140 22q-62 21 -105 60q-45 39 -67 93q-24 54 -24 122q0 65 23 120q22 53 67 93q44 38 105 60q63 22 141 23v76h68v-76q78 -1 141 -23q63 -23 106 -60q43 -39 66 -93q23 -55 23 -120q0 -67 -23 -122q-24 -56 -67 -93q-43 -38 -106 -60q-60 -20 -140 -22
v-90h-68v90zM366 603q-135 -6 -202 -67t-67 -173q0 -110 68 -172q69 -63 201 -70v482zM434 121q132 7 201 70q68 62 68 172q0 112 -67 173t-202 67v-482z" />
    <glyph glyph-name="uni0425" unicode="&#x425;" horiz-adv-x="574" 
d="M83 714l202 -299l209 299h76l-244 -348l258 -366h-82l-217 315l-220 -315h-76l256 368l-242 346h80z" />
    <glyph glyph-name="uni0426" unicode="&#x426;" horiz-adv-x="715" 
d="M72 714h68v-656h414v656h68v-656h85v-248h-68v190h-567v714z" />
    <glyph glyph-name="uni0427" unicode="&#x427;" horiz-adv-x="630" 
d="M490 325q-15 -5 -42 -9l-58 -9q-42 -6 -63 -8q-28 -4 -56 -4q-78 0 -122 19q-46 18 -70 48q-23 28 -31 66q-7 34 -7 72v214h68v-210q0 -25 4 -48q5 -27 20 -48q18 -24 47 -38q29 -16 84 -16q36 0 67 4q23 2 65 8q26 4 56 9q13 2 38 8v331h68v-714h-68v325z" />
    <glyph glyph-name="uni0428" unicode="&#x428;" horiz-adv-x="1024" 
d="M140 58h338v656h68v-656h338v656h68v-714h-880v714h68v-656z" />
    <glyph glyph-name="uni0429" unicode="&#x429;" horiz-adv-x="1045" 
d="M72 714h68v-656h338v656h68v-656h338v656h68v-656h85v-248h-68v190h-897v714z" />
    <glyph glyph-name="uni042A" unicode="&#x42a;" horiz-adv-x="769" 
d="M-5 714h284v-302h249q101 0 156 -55q56 -56 56 -151t-56 -151q-55 -55 -156 -55h-317v656h-216v58zM513 58q76 0 117 40q42 39 42 108q0 68 -42 109q-42 39 -117 39h-234v-296h234z" />
    <glyph glyph-name="uni042B" unicode="&#x42b;" horiz-adv-x="846" 
d="M140 412h249q101 0 156 -55q56 -56 56 -151t-56 -151q-55 -55 -156 -55h-317v714h68v-302zM774 0h-68v714h68v-714zM374 58q76 0 117 40q42 39 42 108q0 68 -42 109q-42 39 -117 39h-234v-296h234z" />
    <glyph glyph-name="uni042C" unicode="&#x42c;" horiz-adv-x="630" 
d="M140 412h249q101 0 156 -55q56 -56 56 -151t-56 -151q-55 -55 -156 -55h-317v714h68v-302zM374 58q76 0 117 40q42 39 42 108q0 68 -42 109q-42 39 -117 39h-234v-296h234z" />
    <glyph glyph-name="uni042D" unicode="&#x42d;" horiz-adv-x="695" 
d="M331 -14q-62 0 -113 18q-53 19 -89 52q-38 35 -63 83q-25 47 -34 109h67q7 -43 26 -82q18 -38 47 -65q28 -28 69 -43q39 -15 89 -15q58 0 106 21q48 22 82 60t54 93q21 59 22 123h-363v57h361q-4 61 -26 113q-22 51 -55 86q-36 37 -79 56q-45 19 -101 19q-89 0 -148 -46
q-61 -47 -77 -127h-68q6 53 33 97q27 43 67 73q39 29 90 46q50 15 101 15q81 0 143 -30q63 -32 104 -82t64 -119q21 -67 21 -143q0 -85 -24 -152q-25 -69 -67 -116q-43 -49 -104 -75q-63 -26 -135 -26z" />
    <glyph glyph-name="uni042E" unicode="&#x42e;" horiz-adv-x="980" 
d="M620 -14q-78 0 -139 29q-59 28 -101 79q-42 50 -63 114q-23 65 -24 136h-153v-344h-68v714h68v-312h155q6 66 30 126q22 57 64 104q41 46 99 71q58 26 132 26q80 0 141 -30q62 -32 102 -82q42 -54 62 -119q21 -68 21 -141t-21 -141q-20 -66 -62 -118q-41 -51 -102 -81
q-61 -31 -141 -31zM620 43q66 0 116 27q49 27 80 72q29 40 47 100q15 56 15 115q0 58 -15 115q-17 59 -47 101q-32 44 -80 71q-49 27 -116 27q-66 0 -116 -27q-47 -26 -80 -71q-32 -46 -47 -101q-16 -55 -16 -115q0 -61 16 -115q15 -56 47 -100q32 -46 80 -72
q50 -27 116 -27z" />
    <glyph glyph-name="uni042F" unicode="&#x42f;" horiz-adv-x="630" 
d="M248 310q-40 1 -81 16q-38 14 -65 39q-28 25 -43 61q-16 33 -16 82q0 48 15 86t44 65q30 27 68 41q40 14 89 14h299v-714h-68v306h-160l-238 -306h-88zM274 656q-76 0 -119 -39q-44 -41 -44 -109t44 -106t119 -38h216v292h-216z" />
    <glyph glyph-name="uni0430" unicode="&#x430;" horiz-adv-x="519" 
d="M205 -14q-33 0 -67 8q-34 10 -55 28q-23 17 -37 47t-14 67q0 54 24 85q24 30 64 46q35 15 89 23l100 12q13 1 35 5q13 3 25 11q10 7 16 20q5 15 5 34q0 33 -10 53q-11 20 -29 32q-21 13 -43 17q-23 4 -53 4q-61 0 -98 -28q-39 -29 -40 -92h-63q6 92 63 132q56 41 146 41
q33 0 68 -6q35 -8 61 -25q27 -18 44 -50q17 -34 17 -85v-274q0 -38 37 -38q13 0 20 4v-53l-19 -3q-6 -1 -22 -1q-25 0 -38 7q-16 6 -23 18q-9 14 -10 29q-3 16 -3 36h-2q-10 -16 -34 -44q-18 -20 -39 -33q-20 -12 -50 -20q-27 -7 -65 -7zM210 38q34 0 69 11q31 10 58 32
q24 21 39 51q14 31 14 68v82h-2q-7 -12 -23 -16q-23 -6 -30 -7q-41 -8 -82 -12q-40 -6 -78 -17q-34 -10 -57 -32q-23 -21 -23 -58q0 -25 10 -42q9 -19 25 -32q17 -14 37 -21q18 -7 43 -7z" />
    <glyph glyph-name="uni0431" unicode="&#x431;" 
d="M283 -14q-70 0 -117 26q-46 25 -73 69q-28 45 -38 99q-11 58 -11 116q0 38 3 78q3 34 11 80q8 43 19 75q13 38 31 65q35 55 84 77q52 24 123 28l48 3q39 1 54 8q14 6 20 19h70q-7 -45 -40 -62t-99 -21l-76 -5q-87 -6 -134 -63q-46 -57 -63 -177h3q25 52 77 84
q50 31 114 31q51 0 95 -18q42 -18 73 -52q32 -35 48 -83q17 -51 17 -110q0 -58 -17 -109t-48 -85t-76 -54q-42 -19 -98 -19zM283 38q39 0 71 16q32 15 56 44q23 29 36 68q13 38 13 87q0 48 -13 86t-36 67q-24 27 -55 43q-31 15 -69 15q-40 0 -73 -15q-34 -15 -56 -42
q-23 -28 -37 -67q-13 -38 -13 -87t13 -87q13 -40 37 -68q23 -29 56 -44q31 -16 70 -16z" />
    <glyph glyph-name="uni0432" unicode="&#x432;" horiz-adv-x="517" 
d="M295 516q79 0 122 -31t43 -91q0 -45 -23 -77q-24 -31 -66 -43v-2q52 -9 80 -40q29 -32 29 -88q0 -69 -47 -107q-46 -37 -138 -37h-236v516h236zM288 293q53 0 82 23q27 22 27 62q0 85 -109 85h-166v-170h166zM288 53q67 0 98 25q31 24 31 73q0 45 -31 69q-32 24 -98 24
h-166v-191h166z" />
    <glyph glyph-name="uni0433" unicode="&#x433;" horiz-adv-x="400" 
d="M406 463h-278v-463h-63v516h341v-53z" />
    <glyph glyph-name="uni0434" unicode="&#x434;" horiz-adv-x="570" 
d="M67 53q37 69 54 164q17 97 17 231v68h347v-463h77v-217h-63v164h-430v-164h-63v217h61zM199 463v-36q0 -132 -19 -223q-19 -94 -48 -151h290v410h-223z" />
    <glyph glyph-name="uni0435" unicode="&#x435;" horiz-adv-x="519" 
d="M267 -14q-63 0 -106 22q-43 21 -72 59q-27 36 -41 86q-14 51 -14 105q0 49 14 100t41 88q29 38 72 62q44 23 106 23q63 0 106 -25q45 -26 72 -65q27 -41 39 -93q12 -51 10 -107h-397q0 -37 10 -71q9 -37 30 -65t53 -48q31 -19 77 -19q69 0 108 36t54 96h63
q-19 -87 -73 -136q-54 -48 -152 -48zM431 294q-1 36 -12 69q-12 34 -33 59q-19 24 -51 41q-30 15 -68 15q-39 0 -69 -15q-32 -17 -51 -41q-21 -25 -33 -59q-12 -31 -17 -69h334z" />
    <glyph glyph-name="uni0436" unicode="&#x436;" horiz-adv-x="737" 
d="M100 516l237 -264v264h63v-263l237 263h85l-201 -216l223 -300h-77l-190 258l-77 -80v-178h-63v178l-77 80l-190 -258h-77l223 300l-201 216h85z" />
    <glyph glyph-name="uni0437" unicode="&#x437;" horiz-adv-x="485" 
d="M241 -14q-103 0 -155 48q-54 47 -58 128h63q5 -32 14 -51q11 -23 28 -39q18 -16 45 -24q26 -9 64 -9q44 0 70 10t43 27q15 16 21 36q6 19 6 40q0 40 -25 66q-25 27 -85 27h-86v48h71q45 0 77 24t32 70q0 15 -4 30t-19 30q-13 13 -39 22q-27 8 -65 8q-71 0 -102 -31
q-33 -33 -37 -80h-62q5 49 22 79t45 50q27 19 62 27q37 8 73 8q43 0 75 -7q35 -7 60 -24q25 -16 41 -43q15 -27 15 -65q0 -24 -7 -42t-18 -34q-11 -14 -27 -25q-14 -10 -31 -13v-2q16 -3 36 -11q17 -7 32 -22q14 -16 23 -36q9 -23 9 -52q0 -41 -17 -73t-45 -53
q-26 -19 -66 -32q-36 -10 -79 -10z" />
    <glyph glyph-name="uni0438" unicode="&#x438;" horiz-adv-x="544" 
d="M122 74l285 442h78v-516h-63v442l-285 -442h-78v516h63v-442z" />
    <glyph glyph-name="uni0439" unicode="&#x439;" horiz-adv-x="544" 
d="M270 592q-64 0 -98 34q-36 34 -43 96h39q4 -37 32 -60q25 -22 71 -22q43 0 71 22q28 21 35 60h39q-10 -62 -47 -96q-35 -34 -99 -34zM122 74l285 442h78v-516h-63v442l-285 -442h-78v516h63v-442z" />
    <glyph glyph-name="uni043A" unicode="&#x43a;" horiz-adv-x="498" 
d="M123 251l286 265h84l-219 -202l232 -314h-79l-199 271l-105 -97v-174h-63v516h63v-265z" />
    <glyph glyph-name="uni043B" unicode="&#x43b;" horiz-adv-x="565" 
d="M54 -5q-7 0 -12 1l-14 2q-13 3 -14 3q-2 0 -5 1q-4 0 -5 1v55q9 -4 24 -5q22 -2 27 -2q10 0 22 3q11 3 24 17t23 42q12 33 19 81q9 62 13 130q5 87 5 192h345v-516h-63v463h-221q0 -112 -6 -190q-8 -81 -19 -130q-12 -53 -28 -82q-17 -31 -34 -44q-19 -14 -39 -19
q-21 -3 -42 -3z" />
    <glyph glyph-name="uni043C" unicode="&#x43c;" horiz-adv-x="668" 
d="M335 71l190 445h84v-516h-63v425h-3l-181 -425h-56l-181 425h-3v-425h-63v516h84z" />
    <glyph glyph-name="uni043D" unicode="&#x43d;" horiz-adv-x="537" 
d="M122 297h293v219h63v-516h-63v244h-293v-244h-63v516h63v-219z" />
    <glyph glyph-name="uni043E" unicode="&#x43e;" 
d="M278 -14q-60 0 -104 22q-46 21 -77 58q-30 36 -47 87q-16 48 -16 105t16 105q17 51 47 87q31 37 77 59q44 22 104 22t105 -22q46 -23 76 -59t47 -87q16 -48 16 -105t-16 -105q-17 -51 -47 -87q-31 -37 -76 -58q-45 -22 -105 -22zM278 38q45 0 79 19q36 20 57 50
q22 31 34 71q11 41 11 80t-11 81q-12 39 -34 70q-21 30 -57 50q-34 19 -79 19t-79 -19t-56 -50q-24 -34 -34 -70q-12 -41 -12 -81q0 -41 12 -80q10 -37 34 -71q22 -31 56 -50t79 -19z" />
    <glyph glyph-name="uni043F" unicode="&#x43f;" horiz-adv-x="530" 
d="M471 0h-63v463h-286v-463h-63v516h412v-516z" />
    <glyph glyph-name="uni0440" unicode="&#x440;" horiz-adv-x="574" 
d="M118 418h2q22 54 72 84q50 29 112 29q60 0 103 -22q45 -23 72 -59q30 -40 43 -87q14 -51 14 -105t-14 -105q-13 -46 -43 -86q-29 -38 -72 -59q-43 -22 -103 -22q-31 0 -56 7q-28 7 -52 21q-23 13 -42 35q-18 20 -29 49h-2v-288h-63v706h58v-98zM304 38q45 0 77 20
q33 21 53 50q20 32 30 71q9 39 9 79q0 39 -9 80q-10 38 -30 70q-21 31 -53 51q-31 19 -77 19q-52 0 -87 -18t-56 -48q-22 -31 -29 -70q-9 -40 -9 -84q0 -42 10 -79q9 -40 31 -71q20 -29 56 -50q35 -20 84 -20z" />
    <glyph glyph-name="uni0441" unicode="&#x441;" horiz-adv-x="519" 
d="M278 -14q-60 0 -104 22q-46 21 -77 58q-30 36 -47 87q-16 48 -16 105t16 105q17 51 47 87q31 37 77 59q44 22 104 22q82 0 141 -44q57 -44 68 -133h-63q-13 58 -48 91q-34 33 -98 33q-45 0 -79 -19t-56 -50q-24 -34 -34 -70q-12 -41 -12 -81q0 -41 12 -80q10 -37 34 -71
q22 -31 56 -50t79 -19q28 0 55 11q25 11 46 31q20 20 33 46t16 59h63q-13 -93 -69 -146t-144 -53z" />
    <glyph glyph-name="uni0442" unicode="&#x442;" horiz-adv-x="443" 
d="M-1 516h445v-53h-191v-463h-63v463h-191v53z" />
    <glyph glyph-name="uni0443" unicode="&#x443;" horiz-adv-x="463" 
d="M101 -190q-13 1 -29 1q-14 2 -19 4v53l22 -4q7 -1 21 -1q22 0 35 6t23 16q8 8 17 26q7 15 15 33l22 58l-206 514h67l170 -440l159 440h63l-224 -594q-11 -27 -26 -55q-11 -19 -26 -34q-15 -12 -34 -18q-22 -5 -50 -5z" />
    <glyph glyph-name="uni0444" unicode="&#x444;" horiz-adv-x="800" 
d="M367 55q-16 -28 -52 -49q-33 -20 -77 -20q-41 0 -77 18q-35 18 -63 53q-27 32 -44 84q-16 48 -16 115q0 137 54 206q52 69 147 69q42 0 75 -18q34 -20 53 -52h2v253h63v-253h2q19 32 53 52q33 18 75 18q94 0 148 -69q53 -70 53 -206q0 -67 -16 -115q-17 -51 -43 -84
q-30 -36 -64 -53q-38 -18 -77 -18q-44 0 -77 20q-36 21 -52 49q-1 -1 -2 0v-245h-63v245h-2zM254 39q50 0 82 31q33 30 33 81v217q0 24 -9 44t-24 35q-16 16 -36 23q-22 8 -45 8q-31 0 -60 -12q-28 -13 -49 -40t-33 -69t-12 -101q0 -56 11 -98q10 -42 32 -68q20 -26 48 -38
q27 -13 62 -13zM547 39q35 0 62 13q28 12 48 38t32 68q11 42 11 98q0 59 -12 101t-33 69t-49 40q-28 12 -60 12q-23 0 -45 -8q-20 -7 -36 -23q-15 -15 -24 -35t-9 -44v-217q0 -51 33 -81q32 -31 82 -31z" />
    <glyph glyph-name="uni0445" unicode="&#x445;" horiz-adv-x="481" 
d="M95 516l147 -196l144 196h79l-186 -247l201 -269h-80l-162 217l-159 -217h-78l200 268l-185 248h79z" />
    <glyph glyph-name="uni0446" unicode="&#x446;" horiz-adv-x="552" 
d="M59 516h63v-463h283v463h63v-463h76v-217h-63v164h-422v516z" />
    <glyph glyph-name="uni0447" unicode="&#x447;" horiz-adv-x="498" 
d="M376 225q-19 -7 -34 -11q-15 -5 -42 -10q-30 -6 -47 -7q-24 -3 -48 -3q-77 0 -120 38q-43 37 -43 128v156h63v-163q0 -38 11 -58q10 -21 27 -30q17 -11 36 -12q26 -2 39 -2q43 0 86 10q44 9 72 21v234h63v-516h-63v225z" />
    <glyph glyph-name="uni0448" unicode="&#x448;" horiz-adv-x="783" 
d="M122 53h238v463h63v-463h238v463h63v-516h-665v516h63v-463z" />
    <glyph glyph-name="uni0449" unicode="&#x449;" horiz-adv-x="808" 
d="M59 516h63v-463h238v463h63v-463h238v463h63v-463h76v-217h-63v164h-678v516z" />
    <glyph glyph-name="uni044A" unicode="&#x44a;" horiz-adv-x="605" 
d="M10 516h222v-207h185q76 0 119 -40q44 -41 44 -113q0 -73 -44 -114q-44 -42 -119 -42h-248v463h-159v53zM402 53q53 0 85 26q30 25 30 77q0 50 -30 76q-31 24 -85 24h-170v-203h170z" />
    <glyph glyph-name="uni044B" unicode="&#x44b;" horiz-adv-x="671" 
d="M122 309h167q76 0 119 -40q44 -41 44 -113q0 -73 -44 -114q-44 -42 -119 -42h-230v516h63v-207zM612 0h-63v516h63v-516zM274 53q53 0 85 26q30 25 30 77q0 50 -30 76q-31 24 -85 24h-152v-203h152z" />
    <glyph glyph-name="uni044C" unicode="&#x44c;" horiz-adv-x="500" 
d="M127 309h185q76 0 119 -40q44 -41 44 -113q0 -73 -44 -114q-43 -42 -119 -42h-248v516h63v-207zM297 53q53 0 85 26q30 25 30 77q0 50 -30 76q-32 24 -85 24h-170v-203h170z" />
    <glyph glyph-name="uni044D" unicode="&#x44d;" horiz-adv-x="519" 
d="M245 -14q-89 0 -145 48q-55 46 -72 133h63q13 -63 56 -96q41 -33 101 -33q75 0 120 53q45 54 49 146h-236v53h236q-7 88 -54 139q-47 50 -121 50q-56 0 -94 -29q-39 -31 -52 -85h-65q14 79 69 122q56 44 143 44q53 0 99 -20q44 -20 76 -56t48 -87q17 -54 17 -115
q0 -59 -17 -110q-16 -49 -48 -84t-75 -54q-42 -19 -98 -19z" />
    <glyph glyph-name="uni044E" unicode="&#x44e;" horiz-adv-x="745" 
d="M474 -14q-51 0 -96 20q-41 18 -73 55q-31 35 -48 81q-19 48 -20 100h-115v-242h-63v516h63v-221h117q4 48 24 92q18 43 48 75q30 31 71 51q40 18 92 18q56 0 99 -22q45 -23 75 -59q31 -39 47 -87t16 -105t-16 -105t-47 -87q-31 -37 -75 -58q-43 -22 -99 -22zM474 38
q42 0 74 19q35 21 55 50q22 31 34 71q11 41 11 80t-11 81q-12 39 -34 70q-20 29 -55 50q-32 19 -74 19t-73 -19q-33 -20 -55 -50q-24 -34 -34 -70q-12 -41 -12 -81q0 -41 12 -80q10 -37 34 -71q22 -30 55 -50q31 -19 73 -19z" />
    <glyph glyph-name="uni044F" unicode="&#x44f;" horiz-adv-x="506" 
d="M191 209q-67 4 -109 46q-41 41 -41 107q0 33 11 63q10 27 31 48q20 20 49 32q30 11 65 11h250v-516h-63v205h-122l-177 -205h-82zM212 463q-52 0 -80 -28t-28 -74t28 -74q29 -29 80 -29h172v205h-172z" />
    <glyph glyph-name="uni0450" unicode="&#x450;" horiz-adv-x="519" 
d="M279 588l-131 141h77l105 -141h-51zM267 -14q-63 0 -106 22q-43 21 -72 59q-27 36 -41 86q-14 51 -14 105q0 49 14 100t41 88q29 38 72 62q44 23 106 23q63 0 106 -25q45 -26 72 -65q27 -41 39 -93q12 -51 10 -107h-397q0 -37 10 -71q9 -37 30 -65t53 -48q31 -19 77 -19
q69 0 108 36t54 96h63q-19 -87 -73 -136q-54 -48 -152 -48zM431 294q-1 36 -12 69q-12 34 -33 59q-19 24 -51 41q-30 15 -68 15q-39 0 -69 -15q-32 -17 -51 -41q-21 -25 -33 -59q-12 -31 -17 -69h334z" />
    <glyph glyph-name="uni0451" unicode="&#x451;" horiz-adv-x="519" 
d="M204 605h-67v101h67v-101zM381 605h-68v101h68v-101zM267 -14q-63 0 -106 22q-43 21 -72 59q-27 36 -41 86q-14 51 -14 105q0 49 14 100t41 88q29 38 72 62q44 23 106 23q63 0 106 -25q45 -26 72 -65q27 -41 39 -93q12 -51 10 -107h-397q0 -37 10 -71q9 -37 30 -65
t53 -48q31 -19 77 -19q69 0 108 36t54 96h63q-19 -87 -73 -136q-54 -48 -152 -48zM431 294q-1 36 -12 69q-12 34 -33 59q-19 24 -51 41q-30 15 -68 15q-39 0 -69 -15q-32 -17 -51 -41q-21 -25 -33 -59q-12 -31 -17 -69h334z" />
    <glyph glyph-name="uni0452" unicode="&#x452;" horiz-adv-x="547" 
d="M271 -190q-21 0 -43 3v59q21 -3 41 -3q85 0 121 46q35 47 35 131v261q0 156 -129 156q-37 0 -66 -13q-31 -13 -52 -36q-21 -21 -34 -56q-12 -33 -12 -72v-286h-63v581h-82v53h82v80h63v-80h233v-53h-233v-169h2q24 53 69 79q44 25 105 25q180 0 180 -199v-280
q0 -103 -53 -165q-54 -62 -164 -62z" />
    <glyph glyph-name="uni0453" unicode="&#x453;" horiz-adv-x="400" 
d="M351 729l-132 -141h-51l105 141h78zM406 463h-278v-463h-63v516h341v-53z" />
    <glyph glyph-name="uni0454" unicode="&#x454;" horiz-adv-x="519" 
d="M274 -14q-56 0 -98 19q-44 19 -75 54t-48 84q-17 51 -17 110q0 61 17 114q16 48 49 88q33 37 76 56q42 19 98 19q89 0 142 -43q54 -44 67 -122h-65q-13 55 -50 84t-93 29q-74 0 -121 -50q-46 -50 -54 -138h241v-53h-241q4 -93 50 -146q44 -53 119 -53q60 0 100 33
q41 33 54 96h63q-16 -80 -70 -131q-55 -50 -144 -50z" />
    <glyph glyph-name="uni0455" unicode="&#x455;" horiz-adv-x="481" 
d="M243 -14q-92 0 -147 43q-58 44 -65 138h63q5 -65 47 -96q42 -33 105 -33q19 0 47 5q24 4 46 17t35 31q13 17 13 45q0 22 -9 39q-12 17 -26 26q-13 8 -36 17q-21 8 -42 12l-81 18q-31 8 -57 18q-28 11 -45 26q-21 18 -31 39q-11 24 -11 55q0 38 18 67q17 29 45 45
q31 18 63 25q37 8 68 8q40 0 73 -10q35 -11 59 -31q25 -21 40 -52q16 -33 17 -73h-63q-1 29 -12 51q-11 21 -29 35q-20 14 -43 21q-24 6 -51 6q-23 0 -42 -4q-22 -4 -40 -15q-18 -10 -29 -28q-11 -17 -11 -42q0 -21 11 -35q11 -15 26 -25q16 -10 35 -16q10 -4 35 -11l84 -19
q31 -5 54 -14q24 -10 47 -28q20 -17 33 -42t13 -59q0 -43 -19 -71q-19 -30 -48 -48q-30 -20 -67 -27q-40 -8 -73 -8z" />
    <glyph glyph-name="uni0456" unicode="&#x456;" horiz-adv-x="185" 
d="M124 613h-63v101h63v-101zM124 0h-63v516h63v-516z" />
    <glyph glyph-name="uni0457" unicode="&#x457;" horiz-adv-x="185" 
d="M38 605h-67v101h67v-101zM215 605h-68v101h68v-101zM124 0h-63v516h63v-516z" />
    <glyph glyph-name="uni0458" unicode="&#x458;" horiz-adv-x="185" 
d="M124 613h-63v101h63v-101zM-8 -190q-3 0 -10 1t-11 1v52q3 -1 33 -1q36 0 47 21q10 21 10 54v578h63v-563q0 -32 -4 -55q-5 -26 -17 -46q-13 -19 -34 -31q-24 -11 -55 -11h-22z" />
    <glyph glyph-name="uni0459" unicode="&#x459;" horiz-adv-x="879" 
d="M54 -5q-7 0 -12 1l-14 2q-13 3 -14 3q-2 0 -5 1q-4 0 -5 1v55q9 -4 24 -5q22 -2 27 -2q10 0 22 3q11 3 24 17t23 42q12 33 19 81q9 62 13 130q5 87 5 192h345v-207h185q76 0 119 -40q44 -41 44 -113q0 -73 -44 -114q-44 -42 -119 -42h-248v463h-221q0 -112 -6 -190
q-8 -81 -19 -130q-12 -53 -28 -82q-17 -31 -34 -44q-19 -14 -39 -19q-21 -3 -42 -3zM676 53q53 0 85 26q30 26 30 77q0 50 -30 76q-31 24 -85 24h-170v-203h170z" />
    <glyph glyph-name="uni045A" unicode="&#x45a;" horiz-adv-x="851" 
d="M122 306h293v210h63v-210h185q76 0 119 -40q44 -41 44 -113t-44 -113q-43 -40 -119 -40h-248v253h-293v-253h-63v516h63v-210zM648 53q54 0 85 25q30 24 30 75t-30 76q-31 24 -85 24h-170v-200h170z" />
    <glyph glyph-name="uni045B" unicode="&#x45b;" horiz-adv-x="547" 
d="M-13 634h82v80h63v-80h233v-53h-233v-169h2q24 53 69 79q44 25 105 25q180 0 180 -199v-317h-63v307q0 156 -129 156q-37 0 -66 -13q-31 -13 -52 -36q-21 -21 -34 -56q-12 -33 -12 -72v-286h-63v581h-82v53z" />
    <glyph glyph-name="uni045C" unicode="&#x45c;" horiz-adv-x="500" 
d="M391 729l-132 -141h-51l105 141h78zM123 251l286 265h84l-219 -202l232 -314h-79l-199 271l-105 -97v-174h-63v516h63v-265z" />
    <glyph glyph-name="uni045D" unicode="&#x45d;" horiz-adv-x="544" 
d="M292 588l-131 141h77l105 -141h-51zM122 74l285 442h78v-516h-63v442l-285 -442h-78v516h63v-442z" />
    <glyph glyph-name="uni045E" unicode="&#x45e;" horiz-adv-x="463" 
d="M237 592q-64 0 -98 34q-36 34 -43 96h39q4 -37 32 -60q25 -22 71 -22q43 0 71 22q28 21 35 60h39q-10 -62 -47 -96q-35 -34 -99 -34zM101 -190q-13 1 -29 1q-14 2 -19 4v53l22 -4q7 -1 21 -1q22 0 35 6t23 16q8 8 17 26q7 15 15 33l22 58l-206 514h67l170 -440l159 440
h63l-224 -594q-11 -27 -26 -55q-11 -19 -26 -34q-15 -12 -34 -18q-22 -5 -50 -5z" />
    <glyph glyph-name="uni045F" unicode="&#x45f;" horiz-adv-x="527" 
d="M59 516h63v-463h283v463h63v-516h-173v-164h-63v164h-173v516z" />
    <glyph glyph-name="uni0490" unicode="&#x490;" horiz-adv-x="514" 
d="M451 875h68v-219h-373v-656h-68v714h373v161z" />
    <glyph glyph-name="uni0491" unicode="&#x491;" horiz-adv-x="400" 
d="M336 671h63v-208h-271v-463h-63v516h271v155z" />
    <glyph glyph-name="uni04B0" unicode="&#x4b0;" horiz-adv-x="611" 
d="M109 227h162v67l-280 420h80l235 -362l234 362h81l-282 -420v-67h165v-58h-165v-169h-68v169h-162v58z" />
    <glyph glyph-name="uni04B1" unicode="&#x4b1;" horiz-adv-x="463" 
d="M78 -38h128v45l-204 509h67l170 -440l159 440h63l-192 -511v-43h128v-53h-128v-99h-63v99h-128v53z" />
    <glyph glyph-name="uni2010" unicode="&#x2010;" horiz-adv-x="333" 
d="M40 229v62h253v-62h-253z" />
    <glyph glyph-name="uni2011" unicode="&#x2011;" horiz-adv-x="333" 
d="M40 229v62h253v-62h-253z" />
    <glyph glyph-name="figuredash" unicode="&#x2012;" horiz-adv-x="500" 
d="M0 282h500v-44h-500v44z" />
    <glyph glyph-name="endash" unicode="&#x2013;" horiz-adv-x="500" 
d="M0 282h500v-44h-500v44z" />
    <glyph glyph-name="emdash" unicode="&#x2014;" horiz-adv-x="1000" 
d="M1000 282v-44h-1000v44h1000z" />
    <glyph glyph-name="quoteleft" unicode="&#x2018;" horiz-adv-x="222" 
d="M69 613q0 44 21 71q19 25 52 36v-37q-11 -7 -23 -22q-11 -14 -11 -44v-34h34v-88h-73v118z" />
    <glyph glyph-name="quoteright" unicode="&#x2019;" horiz-adv-x="222" 
d="M153 602q0 -44 -20 -70t-53 -37v37q11 7 23 22q11 14 11 44v34h-34v88h73v-118z" />
    <glyph glyph-name="quotesinglbase" unicode="&#x201a;" horiz-adv-x="222" 
d="M153 -30q0 -43 -20 -71q-21 -25 -53 -36v37q11 7 23 22q11 14 11 44v34h-34v88h73v-118z" />
    <glyph glyph-name="quotereversed" unicode="&#x201b;" horiz-adv-x="222" 
d="M153 632h-34v-34q0 -30 11 -44q12 -15 23 -22v-37q-33 11 -52 37q-21 26 -21 70v118h73v-88z" />
    <glyph glyph-name="quotedblleft" unicode="&#x201c;" horiz-adv-x="389" 
d="M86 613q0 44 21 71q19 25 52 36v-37q-11 -7 -23 -22q-11 -14 -11 -44v-34h34v-88h-73v118zM237 613q0 44 21 71q19 25 52 36v-37q-11 -7 -23 -22q-11 -14 -11 -44v-34h34v-88h-73v118z" />
    <glyph glyph-name="quotedblright" unicode="&#x201d;" horiz-adv-x="389" 
d="M152 602q0 -44 -20 -70t-53 -37v37q11 7 23 22q11 14 11 44v34h-34v88h73v-118zM303 602q0 -44 -20 -70t-53 -37v37q11 7 23 22q11 14 11 44v34h-34v88h73v-118z" />
    <glyph glyph-name="quotedblbase" unicode="&#x201e;" horiz-adv-x="389" 
d="M152 -30q0 -43 -20 -71q-21 -25 -53 -36v37q11 7 23 22q11 14 11 44v34h-34v88h73v-118zM303 -30q0 -43 -20 -71q-21 -25 -53 -36v37q11 7 23 22q11 14 11 44v34h-34v88h73v-118z" />
    <glyph glyph-name="uni201F" unicode="&#x201f;" horiz-adv-x="389" 
d="M152 632h-34v-34q0 -30 11 -44q12 -15 23 -22v-37q-33 11 -52 37q-21 26 -21 70v118h73v-88zM303 632h-34v-34q0 -30 11 -44q12 -15 23 -22v-37q-33 11 -52 37q-21 26 -21 70v118h73v-88z" />
    <glyph glyph-name="dagger" unicode="&#x2020;" 
d="M37 490h211v230h60v-230h211v-54h-211v-602h-60v602h-211v54z" />
    <glyph glyph-name="daggerdbl" unicode="&#x2021;" 
d="M37 497h211v223h60v-223h211v-54h-211v-334h211v-54h-211v-221h-60v221h-211v54h211v334h-211v54z" />
    <glyph glyph-name="bullet" unicode="&#x2022;" horiz-adv-x="500" 
d="M430 359q0 -36 -14 -69t-39 -57q-26 -26 -58 -39q-34 -14 -70 -14t-69 14t-57 39q-25 24 -39 57t-14 69t14 70q13 32 39 58q24 25 57 39t69 14t70 -14q32 -13 58 -39t39 -58q14 -34 14 -70z" />
    <glyph glyph-name="onedotenleader" unicode="&#x2024;" horiz-adv-x="335" 
d="M204 88v-88h-73v88h73z" />
    <glyph glyph-name="twodotenleader" unicode="&#x2025;" horiz-adv-x="668" 
d="M204 88v-88h-73v88h73zM537 88v-88h-73v88h73z" />
    <glyph glyph-name="ellipsis" unicode="&#x2026;" horiz-adv-x="1000" 
d="M204 88v-88h-73v88h73zM537 88v-88h-73v88h73zM870 88v-88h-73v88h73z" />
    <glyph glyph-name="uni2027" unicode="&#x2027;" horiz-adv-x="278" 
d="M175 492v-88h-73v88h73z" />
    <glyph glyph-name="perthousand" unicode="&#x2030;" horiz-adv-x="1000" 
d="M546 705l-407 -719h-53l407 719h53zM163 698q30 0 58 -12q26 -12 48 -32q20 -20 32 -47t12 -58t-12 -58q-12 -28 -32 -48q-22 -20 -48 -32q-27 -12 -58 -12t-58 12q-28 12 -47 33q-22 20 -32 48q-12 27 -12 57q0 29 12 58q12 27 32 47t48 32q27 12 57 12zM163 641
q-20 0 -35 -7q-16 -7 -29 -20q-12 -12 -20 -30t-8 -35t8 -35t20 -30q10 -11 29 -20q18 -8 35 -8t35 8t30 20q14 14 21 30q7 15 7 35t-7 35q-7 16 -21 30q-15 13 -30 20t-35 7zM473 299q29 0 58 -12q26 -12 48 -32q20 -22 32 -48q12 -27 12 -58t-12 -58t-32 -47
q-22 -22 -48 -32q-27 -12 -58 -12t-58 12t-47 32q-22 20 -32 48q-12 27 -12 57q0 29 12 58q12 26 32 48q20 20 48 32q27 12 57 12zM836 299q31 0 58 -12t47 -32q20 -22 32 -48q12 -29 12 -58q0 -31 -12 -58t-32 -47q-20 -21 -47 -32q-27 -12 -58 -12t-58 12q-27 11 -47 32
q-21 19 -33 47q-12 27 -12 58q0 29 12 58q12 27 33 48q20 20 48 32q27 12 57 12zM473 57q17 0 35 8t30 20q12 13 20 29q8 18 8 35q0 20 -7 35q-7 16 -21 30t-29 21t-36 7q-20 0 -35 -7q-17 -8 -29 -21q-12 -12 -20 -30t-8 -35t8 -35q9 -19 20 -29q12 -12 30 -20t34 -8z
M836 57q17 0 35 8q17 7 29 20q14 13 21 30q7 15 7 34q0 20 -7 35t-20 30q-13 14 -30 21q-15 7 -35 7q-21 0 -36 -7q-17 -8 -29 -21q-13 -12 -20 -29q-8 -18 -8 -36q0 -17 8 -35q9 -19 20 -29q12 -12 30 -20t35 -8z" />
    <glyph glyph-name="uni2031" unicode="&#x2031;" horiz-adv-x="1379" 
d="M546 705l-407 -719h-53l407 719h53zM163 698q30 0 58 -12q26 -12 48 -32q20 -20 32 -47t12 -58t-12 -58q-12 -28 -32 -48q-22 -20 -48 -32q-27 -12 -58 -12t-58 12q-28 12 -47 33q-22 20 -32 48q-12 27 -12 57q0 29 12 58q12 27 32 47t48 32q27 12 57 12zM163 641
q-20 0 -35 -7q-16 -7 -29 -20q-12 -12 -20 -30t-8 -35t8 -35t20 -30q10 -11 29 -20q18 -8 35 -8t35 8t30 20q14 14 21 30q7 15 7 35t-7 35q-7 16 -21 30q-15 13 -30 20t-35 7zM473 299q29 0 58 -12q26 -12 48 -32q20 -22 32 -48q12 -27 12 -58t-12 -58t-32 -47
q-22 -22 -48 -32q-27 -12 -58 -12t-58 12t-47 32q-22 20 -32 48q-12 27 -12 57q0 29 12 58q12 26 32 48q20 20 48 32q27 12 57 12zM836 299q31 0 58 -12t47 -32q20 -22 32 -48q12 -29 12 -58q0 -31 -12 -58t-32 -47q-20 -21 -47 -32q-27 -12 -58 -12t-58 12q-27 11 -47 32
q-21 19 -33 47q-12 27 -12 58q0 29 12 58q12 27 33 48q20 20 48 32q27 12 57 12zM1196 299q31 0 58 -12t47 -32q20 -22 32 -48q12 -29 12 -58q0 -31 -12 -58t-32 -47q-20 -21 -47 -32q-27 -12 -58 -12t-58 12q-27 11 -47 32q-21 19 -33 47q-12 27 -12 58q0 29 12 58
q12 27 33 48q20 20 48 32q27 12 57 12zM473 57q17 0 35 8t30 20q12 13 20 29q8 18 8 35q0 20 -7 35q-7 16 -21 30t-29 21t-36 7q-20 0 -35 -7q-17 -8 -29 -21q-12 -12 -20 -30t-8 -35t8 -35q9 -19 20 -29q12 -12 30 -20t34 -8zM836 57q17 0 35 8q17 7 29 20q14 13 21 30
q7 15 7 34q0 20 -7 35t-20 30q-13 14 -30 21q-15 7 -35 7q-21 0 -36 -7q-17 -8 -29 -21q-13 -12 -20 -29q-8 -18 -8 -36q0 -17 8 -35q9 -19 20 -29q12 -12 30 -20t35 -8zM1196 57q17 0 35 8q17 7 29 20q14 13 21 30q7 15 7 34q0 20 -7 35t-20 30q-13 14 -30 21q-15 7 -35 7
q-21 0 -36 -7q-17 -8 -29 -21q-13 -12 -20 -29q-8 -18 -8 -36q0 -17 8 -35q9 -19 20 -29q12 -12 30 -20t35 -8z" />
    <glyph glyph-name="minute" unicode="&#x2032;" horiz-adv-x="333" 
d="M297 713l-137 -239h-51l111 239h77z" />
    <glyph glyph-name="second" unicode="&#x2033;" horiz-adv-x="418" 
d="M221 713l-137 -239h-51l111 239h77zM391 713l-137 -239h-51l111 239h77z" />
    <glyph glyph-name="uni2034" unicode="&#x2034;" horiz-adv-x="606" 
d="M229 713l-137 -239h-51l111 239h77zM399 713l-137 -239h-51l111 239h77zM569 713l-137 -239h-51l111 239h77z" />
    <glyph glyph-name="uni2035" unicode="&#x2035;" horiz-adv-x="333" 
d="M186 713l111 -239h-51l-137 239h77z" />
    <glyph glyph-name="uni2036" unicode="&#x2036;" horiz-adv-x="419" 
d="M104 713l111 -239h-51l-137 239h77zM274 713l111 -239h-51l-137 239h77z" />
    <glyph glyph-name="uni2037" unicode="&#x2037;" horiz-adv-x="606" 
d="M113 713l111 -239h-51l-137 239h77zM283 713l111 -239h-51l-137 239h77zM453 713l111 -239h-51l-137 239h77z" />
    <glyph glyph-name="guilsinglleft" unicode="&#x2039;" horiz-adv-x="389" 
d="M267 341l-104 -82l104 -80v-62l-146 111v63l146 113v-63z" />
    <glyph glyph-name="guilsinglright" unicode="&#x203a;" horiz-adv-x="389" 
d="M122 180l104 82l-104 80v62l146 -111v-63l-146 -113v63z" />
    <glyph glyph-name="uni203D" unicode="&#x203d;" horiz-adv-x="500" 
d="M208 680q-8 -2 -22 -8q-28 -14 -48 -36q-19 -22 -30 -53q-10 -31 -9 -67h-61q-4 49 11 91q15 41 45 71q28 28 70 45q39 16 90 16q53 0 92 -13q38 -13 68 -38q28 -25 43 -60t15 -77q0 -46 -19 -75q-20 -33 -48 -59q-38 -36 -58 -54q-30 -29 -52 -62q-18 -27 -19 -57
q-2 -42 -2 -62h-58q-2 38 3 71l-11 244v183zM317 413q27 25 44 45q23 27 34 46q13 23 13 52q0 28 -10 51q-10 22 -31 41q-19 16 -49 27q-18 7 -37 8v-186l-6 -124q27 27 42 40zM283 88v-88h-73v88h73z" />
    <glyph glyph-name="fraction" unicode="&#x2044;" horiz-adv-x="167" 
d="M331 705l-444 -719h-51l444 719h51z" />
    <glyph glyph-name="uni204B" unicode="&#x204b;" horiz-adv-x="650" 
d="M254 653h-128v-799h-60v866h217q106 0 165 -50q58 -49 58 -144q0 -38 -15 -73q-17 -36 -42 -61q-28 -26 -62 -41q-35 -15 -73 -15v-482h-60v799z" />
    <glyph glyph-name="uni204F" unicode="&#x204f;" horiz-adv-x="278" 
d="M175 492v-88h-73v88h73zM175 0h-34v-34q0 -30 11 -44q12 -15 23 -22v-37q-33 11 -52 36q-21 27 -21 71v118h73v-88z" />
    <glyph glyph-name="uni2052" unicode="&#x2052;" horiz-adv-x="889" 
d="M616 705h52l-397 -719h-52zM232 424q22 0 42 9q18 7 34 23q15 15 24 35t9 41t-8 42q-9 19 -24 34t-35 24t-42 9q-20 0 -41 -8q-20 -9 -35 -24q-16 -15 -23 -35q-9 -20 -9 -42q0 -21 9 -41q7 -20 23 -35q15 -16 35 -23q20 -9 41 -9zM657 274q-23 0 -42 -9q-21 -10 -34 -24
q-16 -15 -23 -35q-9 -20 -9 -42q0 -21 9 -40q9 -20 24 -35q16 -16 35 -23q19 -9 40 -9q23 0 42 9t34 24q14 16 23 35q8 21 8 41q0 21 -8 42q-8 17 -23 34q-15 15 -34 24q-21 8 -42 8z" />
    <glyph glyph-name="Euro" unicode="&#x20ac;" 
d="M100 290q-1 9 -1 28q-1 9 -1 27v22q0 14 1 21h-78l19 54h64q9 74 32 125q22 48 55 81q30 30 71 44q36 13 79 13q45 0 80 -11q33 -12 56 -29t37 -37q14 -21 21 -39l-28 -76q-9 38 -25 64q-18 27 -39 43q-23 16 -48 24q-24 7 -54 7q-39 0 -69 -15q-31 -17 -51 -44t-34 -66
q-13 -35 -19 -84h311l-20 -54h-296v-21q-1 -7 -1 -21q0 -19 1 -28q0 -19 1 -28h259l-20 -54h-233q8 -48 20 -79q14 -38 34 -62q22 -27 50 -40q28 -15 67 -15q50 0 94 29q41 28 73 80v-84q-29 -35 -71 -57q-43 -22 -96 -22q-41 0 -78 12q-37 14 -69 42q-33 30 -55 77
q-23 46 -34 119h-86l20 54h61z" />
    <glyph glyph-name="uni2116" unicode="&#x2116;" horiz-adv-x="994" 
d="M523 110h2v581h68v-691h-76l-376 581h-2v-581h-68v691h76zM802 272q-66 0 -102 38q-37 37 -37 107t37 107q38 38 100 38q65 0 105 -38q38 -38 38 -107q0 -66 -38 -106q-39 -39 -103 -39zM801 316q39 0 65 27q25 25 25 74t-25 75q-26 26 -63 26q-36 0 -62 -26
q-26 -28 -26 -75q0 -45 26 -73q25 -28 60 -28zM944 150h-280v53h280v-53z" />
    <glyph glyph-name="minus" unicode="&#x2212;" horiz-adv-x="660" 
d="M580 220h-500v60h500v-60z" />
    <glyph glyph-name="uni2215" unicode="&#x2215;" horiz-adv-x="167" 
d="M331 705l-444 -719h-51l444 719h51z" />
  </font>
</defs>
</svg>
